<ttFont>
    <TTGlyph name="A" xMin="35" yMin="0" xMax="773" yMax="732">
      <contour>
        <pt x="43" y="59" on="1"/>
        <pt x="123" y="59" on="1"/>
        <pt x="217" y="229" on="0"/>
        <pt x="407" y="562" on="0"/>
        <pt x="502" y="732" on="1"/>
        <pt x="550" y="562" on="0"/>
        <pt x="645" y="229" on="0"/>
        <pt x="693" y="59" on="1"/>
        <pt x="773" y="59" on="1"/>
        <pt x="765" y="0" on="1"/>
        <pt x="557" y="0" on="1"/>
        <pt x="565" y="59" on="1"/>
        <pt x="630" y="59" on="1"/>
        <pt x="613" y="117" on="0"/>
        <pt x="582" y="231" on="0"/>
        <pt x="565" y="289" on="1"/>
        <pt x="314" y="289" on="1"/>
        <pt x="282" y="231" on="0"/>
        <pt x="218" y="117" on="0"/>
        <pt x="185" y="59" on="1"/>
        <pt x="251" y="59" on="1"/>
        <pt x="243" y="0" on="1"/>
        <pt x="35" y="0" on="1"/>
      </contour>
      <contour>
        <pt x="488" y="563" on="1"/>
        <pt x="483" y="594" on="1"/>
        <pt x="482" y="592" on="0"/>
        <pt x="477" y="582" on="0"/>
        <pt x="475" y="577" on="1"/>
        <pt x="471" y="571" on="0"/>
        <pt x="468" y="563" on="1"/>
        <pt x="461" y="550" on="0"/>
        <pt x="434" y="501" on="0"/>
        <pt x="401" y="441" on="0"/>
        <pt x="365" y="376" on="0"/>
        <pt x="349" y="348" on="1"/>
        <pt x="548" y="348" on="1"/>
      </contour>
    </TTGlyph>
    <TTGlyph name="AE" xMin="35" yMin="0" xMax="825" yMax="700">
      <contour>
        <pt x="744" y="546" on="1"/>
        <pt x="758" y="640" on="1"/>
        <pt x="547" y="640" on="1"/>
        <pt x="511" y="382" on="1"/>
        <pt x="742" y="382" on="1"/>
        <pt x="733" y="323" on="1"/>
        <pt x="502" y="323" on="1"/>
        <pt x="465" y="59" on="1"/>
        <pt x="690" y="59" on="1"/>
        <pt x="703" y="154" on="1"/>
        <pt x="762" y="154" on="1"/>
        <pt x="741" y="0" on="1"/>
        <pt x="395" y="0" on="1"/>
        <pt x="434" y="280" on="1"/>
        <pt x="309" y="280" on="1"/>
        <pt x="278" y="224" on="0"/>
        <pt x="216" y="115" on="0"/>
        <pt x="185" y="59" on="1"/>
        <pt x="251" y="59" on="1"/>
        <pt x="243" y="0" on="1"/>
        <pt x="35" y="0" on="1"/>
        <pt x="43" y="59" on="1"/>
        <pt x="122" y="59" on="1"/>
        <pt x="213" y="220" on="0"/>
        <pt x="392" y="539" on="0"/>
        <pt x="483" y="700" on="1"/>
        <pt x="825" y="700" on="1"/>
        <pt x="803" y="546" on="1"/>
      </contour>
      <contour>
        <pt x="442" y="339" on="1"/>
        <pt x="477" y="583" on="1"/>
        <pt x="448" y="521" on="0"/>
        <pt x="376" y="400" on="0"/>
        <pt x="343" y="339" on="1"/>
      </contour>
    </TTGlyph>
    <TTGlyph name="Aacute" xMin="35" yMin="0" xMax="773" yMax="883">
      <component glyphName="acute" x="386" y="271" flags="0x4"/>
      <component glyphName="A" x="0" y="0" flags="0x4"/>
    </TTGlyph>
    <TTGlyph name="Acircumflex" xMin="35" yMin="0" xMax="773" yMax="931">
      <component glyphName="asciicircum" x="284" y="271" flags="0x4"/>
      <component glyphName="A" x="0" y="0" flags="0x4"/>
    </TTGlyph>
    <TTGlyph name="Adieresis" xMin="35" yMin="0" xMax="773" yMax="847">
      <component glyphName="dieresis" x="315" y="290" flags="0x4"/>
      <component glyphName="A" x="0" y="0" flags="0x4"/>
    </TTGlyph>
    <TTGlyph name="Agrave" xMin="35" yMin="0" xMax="773" yMax="883">
      <component glyphName="A" x="0" y="0" flags="0x204"/>
      <component glyphName="grave" x="425" y="271" flags="0x4"/>
    </TTGlyph>
    <TTGlyph name="Aring" xMin="35" yMin="0" xMax="773" yMax="916">
      <contour>
        <pt x="477" y="835" on="1"/>
        <pt x="475" y="820" on="0"/>
        <pt x="493" y="798" on="0"/>
        <pt x="508" y="798" on="1"/>
        <pt x="524" y="798" on="0"/>
        <pt x="550" y="820" on="0"/>
        <pt x="552" y="835" on="1"/>
        <pt x="554" y="851" on="0"/>
        <pt x="535" y="873" on="0"/>
        <pt x="519" y="873" on="1"/>
        <pt x="503" y="873" on="0"/>
        <pt x="479" y="851" on="0"/>
      </contour>
      <contour>
        <pt x="434" y="836" on="1"/>
        <pt x="436" y="852" on="0"/>
        <pt x="453" y="882" on="0"/>
        <pt x="478" y="903" on="0"/>
        <pt x="508" y="916" on="0"/>
        <pt x="525" y="916" on="1"/>
        <pt x="558" y="916" on="0"/>
        <pt x="598" y="869" on="0"/>
        <pt x="594" y="836" on="1"/>
        <pt x="589" y="803" on="0"/>
        <pt x="536" y="756" on="0"/>
        <pt x="503" y="756" on="1"/>
        <pt x="486" y="756" on="0"/>
        <pt x="459" y="769" on="0"/>
        <pt x="440" y="790" on="0"/>
        <pt x="432" y="819" on="0"/>
      </contour>
      <contour>
        <pt x="43" y="59" on="1"/>
        <pt x="123" y="59" on="1"/>
        <pt x="217" y="229" on="0"/>
        <pt x="407" y="562" on="0"/>
        <pt x="502" y="732" on="1"/>
        <pt x="550" y="562" on="0"/>
        <pt x="645" y="229" on="0"/>
        <pt x="693" y="59" on="1"/>
        <pt x="773" y="59" on="1"/>
        <pt x="765" y="0" on="1"/>
        <pt x="557" y="0" on="1"/>
        <pt x="565" y="59" on="1"/>
        <pt x="630" y="59" on="1"/>
        <pt x="613" y="117" on="0"/>
        <pt x="582" y="231" on="0"/>
        <pt x="565" y="289" on="1"/>
        <pt x="314" y="289" on="1"/>
        <pt x="282" y="231" on="0"/>
        <pt x="218" y="117" on="0"/>
        <pt x="185" y="59" on="1"/>
        <pt x="251" y="59" on="1"/>
        <pt x="243" y="0" on="1"/>
        <pt x="35" y="0" on="1"/>
      </contour>
      <contour>
        <pt x="488" y="563" on="1"/>
        <pt x="483" y="594" on="1"/>
        <pt x="482" y="592" on="0"/>
        <pt x="477" y="582" on="0"/>
        <pt x="475" y="577" on="1"/>
        <pt x="471" y="571" on="0"/>
        <pt x="468" y="563" on="1"/>
        <pt x="461" y="550" on="0"/>
        <pt x="434" y="501" on="0"/>
        <pt x="401" y="441" on="0"/>
        <pt x="365" y="376" on="0"/>
        <pt x="349" y="348" on="1"/>
        <pt x="548" y="348" on="1"/>
      </contour>
    </TTGlyph>
    <TTGlyph name="Atilde" xMin="35" yMin="0" xMax="773" yMax="848">
      <component glyphName="asciitilde" x="219" y="299" flags="0x4"/>
      <component glyphName="A" x="0" y="0" flags="0x4"/>
    </TTGlyph>
    <TTGlyph name="B" xMin="35" yMin="0" xMax="554" yMax="700">
      <contour>
        <pt x="43" y="59" on="1"/>
        <pt x="96" y="59" on="1"/>
        <pt x="177" y="640" on="1"/>
        <pt x="125" y="640" on="1"/>
        <pt x="133" y="700" on="1"/>
        <pt x="357" y="700" on="1"/>
        <pt x="405" y="700" on="0"/>
        <pt x="481" y="680" on="0"/>
        <pt x="532" y="638" on="0"/>
        <pt x="554" y="571" on="0"/>
        <pt x="547" y="525" on="1"/>
        <pt x="539" y="463" on="0"/>
        <pt x="465" y="369" on="0"/>
        <pt x="401" y="352" on="1"/>
        <pt x="429" y="346" on="0"/>
        <pt x="479" y="318" on="0"/>
        <pt x="513" y="274" on="0"/>
        <pt x="529" y="216" on="0"/>
        <pt x="524" y="180" on="1"/>
        <pt x="518" y="135" on="0"/>
        <pt x="471" y="68" on="0"/>
        <pt x="403" y="23" on="0"/>
        <pt x="320" y="0" on="0"/>
        <pt x="277" y="0" on="1"/>
        <pt x="35" y="0" on="1"/>
      </contour>
      <contour>
        <pt x="195" y="322" on="1"/>
        <pt x="158" y="59" on="1"/>
        <pt x="280" y="59" on="1"/>
        <pt x="314" y="59" on="0"/>
        <pt x="376" y="75" on="0"/>
        <pt x="425" y="107" on="0"/>
        <pt x="458" y="156" on="0"/>
        <pt x="463" y="188" on="1"/>
        <pt x="468" y="223" on="0"/>
        <pt x="444" y="274" on="0"/>
        <pt x="398" y="307" on="0"/>
        <pt x="335" y="322" on="0"/>
        <pt x="301" y="322" on="1"/>
      </contour>
      <contour>
        <pt x="240" y="640" on="1"/>
        <pt x="204" y="382" on="1"/>
        <pt x="323" y="382" on="1"/>
        <pt x="388" y="382" on="0"/>
        <pt x="475" y="457" on="0"/>
        <pt x="483" y="517" on="1"/>
        <pt x="488" y="550" on="0"/>
        <pt x="474" y="597" on="0"/>
        <pt x="440" y="626" on="0"/>
        <pt x="389" y="640" on="0"/>
        <pt x="357" y="640" on="1"/>
      </contour>
    </TTGlyph>
    <TTGlyph name="C" xMin="74" yMin="-8" xMax="668" yMax="708">
      <contour>
        <pt x="592" y="546" on="1"/>
        <pt x="603" y="620" on="1"/>
        <pt x="549" y="648" on="0"/>
        <pt x="484" y="648" on="1"/>
        <pt x="423" y="648" on="0"/>
        <pt x="309" y="601" on="0"/>
        <pt x="217" y="519" on="0"/>
        <pt x="156" y="410" on="0"/>
        <pt x="147" y="349" on="1"/>
        <pt x="138" y="287" on="0"/>
        <pt x="169" y="179" on="0"/>
        <pt x="238" y="98" on="0"/>
        <pt x="338" y="51" on="0"/>
        <pt x="399" y="51" on="1"/>
        <pt x="440" y="51" on="0"/>
        <pt x="517" y="72" on="0"/>
        <pt x="553" y="92" on="1"/>
        <pt x="581" y="42" on="1"/>
        <pt x="537" y="19" on="0"/>
        <pt x="443" y="-8" on="0"/>
        <pt x="392" y="-8" on="1"/>
        <pt x="318" y="-8" on="0"/>
        <pt x="196" y="48" on="0"/>
        <pt x="112" y="145" on="0"/>
        <pt x="74" y="275" on="0"/>
        <pt x="85" y="349" on="1"/>
        <pt x="95" y="423" on="0"/>
        <pt x="170" y="554" on="0"/>
        <pt x="280" y="651" on="0"/>
        <pt x="418" y="708" on="0"/>
        <pt x="492" y="708" on="1"/>
        <pt x="543" y="708" on="0"/>
        <pt x="631" y="682" on="0"/>
        <pt x="668" y="658" on="1"/>
        <pt x="652" y="546" on="1"/>
      </contour>
    </TTGlyph>
    <TTGlyph name="Ccedilla" xMin="108" yMin="-242" xMax="701" yMax="708">
      <contour>
        <pt x="612" y="450" on="1"/>
        <pt x="636" y="620" on="1"/>
        <pt x="582" y="648" on="0"/>
        <pt x="516" y="648" on="1"/>
        <pt x="455" y="648" on="0"/>
        <pt x="342" y="601" on="0"/>
        <pt x="250" y="519" on="0"/>
        <pt x="189" y="410" on="0"/>
        <pt x="180" y="349" on="1"/>
        <pt x="171" y="287" on="0"/>
        <pt x="202" y="179" on="0"/>
        <pt x="271" y="98" on="0"/>
        <pt x="371" y="51" on="0"/>
        <pt x="432" y="51" on="1"/>
        <pt x="473" y="51" on="0"/>
        <pt x="550" y="72" on="0"/>
        <pt x="586" y="92" on="1"/>
        <pt x="614" y="42" on="1"/>
        <pt x="572" y="19" on="0"/>
        <pt x="482" y="-6" on="0"/>
        <pt x="435" y="-8" on="1"/>
        <pt x="434" y="-13" on="0"/>
        <pt x="433" y="-20" on="0"/>
        <pt x="434" y="-22" on="1"/>
        <pt x="436" y="-40" on="0"/>
        <pt x="458" y="-53" on="0"/>
        <pt x="468" y="-61" on="1"/>
        <pt x="488" y="-77" on="0"/>
        <pt x="500" y="-116" on="0"/>
        <pt x="497" y="-138" on="1"/>
        <pt x="490" y="-183" on="0"/>
        <pt x="430" y="-242" on="0"/>
        <pt x="384" y="-242" on="1"/>
        <pt x="352" y="-242" on="0"/>
        <pt x="303" y="-207" on="0"/>
        <pt x="296" y="-172" on="1"/>
        <pt x="335" y="-154" on="1"/>
        <pt x="338" y="-171" on="0"/>
        <pt x="364" y="-194" on="0"/>
        <pt x="385" y="-194" on="1"/>
        <pt x="411" y="-194" on="0"/>
        <pt x="446" y="-160" on="0"/>
        <pt x="450" y="-134" on="1"/>
        <pt x="453" y="-112" on="0"/>
        <pt x="434" y="-86" on="0"/>
        <pt x="409" y="-67" on="0"/>
        <pt x="389" y="-47" on="0"/>
        <pt x="392" y="-29" on="1"/>
        <pt x="395" y="-6" on="1"/>
        <pt x="327" y="-1" on="0"/>
        <pt x="216" y="59" on="0"/>
        <pt x="141" y="154" on="0"/>
        <pt x="108" y="279" on="0"/>
        <pt x="118" y="349" on="1"/>
        <pt x="128" y="423" on="0"/>
        <pt x="203" y="554" on="0"/>
        <pt x="313" y="651" on="0"/>
        <pt x="451" y="708" on="0"/>
        <pt x="525" y="708" on="1"/>
        <pt x="576" y="708" on="0"/>
        <pt x="664" y="682" on="0"/>
        <pt x="701" y="658" on="1"/>
        <pt x="672" y="450" on="1"/>
      </contour>
    </TTGlyph>
    <TTGlyph name="D" xMin="35" yMin="0" xMax="657" yMax="700">
      <contour>
        <pt x="43" y="60" on="1"/>
        <pt x="98" y="60" on="1"/>
        <pt x="179" y="640" on="1"/>
        <pt x="125" y="640" on="1"/>
        <pt x="133" y="700" on="1"/>
        <pt x="343" y="700" on="1"/>
        <pt x="415" y="700" on="0"/>
        <pt x="536" y="651" on="0"/>
        <pt x="619" y="559" on="0"/>
        <pt x="657" y="430" on="0"/>
        <pt x="646" y="349" on="1"/>
        <pt x="637" y="290" on="0"/>
        <pt x="579" y="166" on="0"/>
        <pt x="473" y="65" on="0"/>
        <pt x="317" y="0" on="0"/>
        <pt x="211" y="0" on="1"/>
        <pt x="35" y="0" on="1"/>
      </contour>
      <contour>
        <pt x="242" y="640" on="1"/>
        <pt x="160" y="60" on="1"/>
        <pt x="238" y="60" on="1"/>
        <pt x="309" y="60" on="0"/>
        <pt x="429" y="106" on="0"/>
        <pt x="519" y="184" on="0"/>
        <pt x="575" y="290" on="0"/>
        <pt x="584" y="350" on="1"/>
        <pt x="593" y="416" on="0"/>
        <pt x="562" y="524" on="0"/>
        <pt x="493" y="599" on="0"/>
        <pt x="390" y="640" on="0"/>
        <pt x="329" y="640" on="1"/>
      </contour>
    </TTGlyph>
    <TTGlyph name="E" xMin="35" yMin="0" xMax="620" yMax="700">
      <contour>
        <pt x="43" y="59" on="1"/>
        <pt x="107" y="59" on="1"/>
        <pt x="188" y="640" on="1"/>
        <pt x="125" y="640" on="1"/>
        <pt x="133" y="700" on="1"/>
        <pt x="620" y="700" on="1"/>
        <pt x="598" y="546" on="1"/>
        <pt x="538" y="546" on="1"/>
        <pt x="552" y="640" on="1"/>
        <pt x="251" y="640" on="1"/>
        <pt x="215" y="382" on="1"/>
        <pt x="536" y="382" on="1"/>
        <pt x="527" y="323" on="1"/>
        <pt x="206" y="323" on="1"/>
        <pt x="169" y="59" on="1"/>
        <pt x="484" y="59" on="1"/>
        <pt x="497" y="154" on="1"/>
        <pt x="557" y="154" on="1"/>
        <pt x="536" y="0" on="1"/>
        <pt x="35" y="0" on="1"/>
      </contour>
    </TTGlyph>
    <TTGlyph name="Eacute" xMin="35" yMin="0" xMax="620" yMax="883">
      <component glyphName="E" x="0" y="0" flags="0x204"/>
      <component glyphName="acute" x="300" y="271" flags="0x4"/>
    </TTGlyph>
    <TTGlyph name="Ecircumflex" xMin="35" yMin="0" xMax="620" yMax="931">
      <component glyphName="E" x="0" y="0" flags="0x204"/>
      <component glyphName="asciicircum" x="179" y="271" flags="0x4"/>
    </TTGlyph>
    <TTGlyph name="Edieresis" xMin="35" yMin="0" xMax="620" yMax="847">
      <component glyphName="E" x="0" y="0" flags="0x204"/>
      <component glyphName="dieresis" x="210" y="290" flags="0x4"/>
    </TTGlyph>
    <TTGlyph name="Egrave" xMin="35" yMin="0" xMax="620" yMax="883">
      <component glyphName="E" x="0" y="0" flags="0x204"/>
      <component glyphName="grave" x="301" y="271" flags="0x4"/>
    </TTGlyph>
    <TTGlyph name="Eth" xMin="35" yMin="0" xMax="657" yMax="700">
      <contour>
        <pt x="97" y="381" on="1"/>
        <pt x="143" y="381" on="1"/>
        <pt x="179" y="640" on="1"/>
        <pt x="125" y="640" on="1"/>
        <pt x="133" y="700" on="1"/>
        <pt x="343" y="700" on="1"/>
        <pt x="415" y="700" on="0"/>
        <pt x="536" y="651" on="0"/>
        <pt x="619" y="559" on="0"/>
        <pt x="657" y="430" on="0"/>
        <pt x="646" y="349" on="1"/>
        <pt x="637" y="290" on="0"/>
        <pt x="579" y="166" on="0"/>
        <pt x="473" y="65" on="0"/>
        <pt x="317" y="0" on="0"/>
        <pt x="211" y="0" on="1"/>
        <pt x="35" y="0" on="1"/>
        <pt x="43" y="59" on="1"/>
        <pt x="98" y="59" on="1"/>
        <pt x="134" y="320" on="1"/>
        <pt x="88" y="320" on="1"/>
      </contour>
      <contour>
        <pt x="242" y="640" on="1"/>
        <pt x="205" y="381" on="1"/>
        <pt x="399" y="381" on="1"/>
        <pt x="390" y="320" on="1"/>
        <pt x="197" y="320" on="1"/>
        <pt x="160" y="60" on="1"/>
        <pt x="239" y="60" on="1"/>
        <pt x="310" y="60" on="0"/>
        <pt x="429" y="106" on="0"/>
        <pt x="519" y="184" on="0"/>
        <pt x="575" y="290" on="0"/>
        <pt x="584" y="350" on="1"/>
        <pt x="593" y="416" on="0"/>
        <pt x="562" y="524" on="0"/>
        <pt x="493" y="599" on="0"/>
        <pt x="390" y="640" on="0"/>
        <pt x="329" y="640" on="1"/>
      </contour>
    </TTGlyph>
    <TTGlyph name="F" xMin="35" yMin="0" xMax="620" yMax="700">
      <contour>
        <pt x="43" y="59" on="1"/>
        <pt x="107" y="59" on="1"/>
        <pt x="188" y="640" on="1"/>
        <pt x="125" y="640" on="1"/>
        <pt x="133" y="700" on="1"/>
        <pt x="620" y="700" on="1"/>
        <pt x="598" y="546" on="1"/>
        <pt x="538" y="546" on="1"/>
        <pt x="552" y="640" on="1"/>
        <pt x="251" y="640" on="1"/>
        <pt x="215" y="382" on="1"/>
        <pt x="536" y="382" on="1"/>
        <pt x="527" y="323" on="1"/>
        <pt x="206" y="323" on="1"/>
        <pt x="169" y="59" on="1"/>
        <pt x="265" y="59" on="1"/>
        <pt x="257" y="0" on="1"/>
        <pt x="35" y="0" on="1"/>
      </contour>
    </TTGlyph>
    <TTGlyph name="G" xMin="23" yMin="-10" xMax="617" yMax="706">
      <contour>
        <pt x="565" y="298" on="1"/>
        <pt x="529" y="40" on="1"/>
        <pt x="486" y="17" on="0"/>
        <pt x="392" y="-10" on="0"/>
        <pt x="341" y="-10" on="1"/>
        <pt x="267" y="-10" on="0"/>
        <pt x="145" y="46" on="0"/>
        <pt x="61" y="143" on="0"/>
        <pt x="23" y="273" on="0"/>
        <pt x="33" y="347" on="1"/>
        <pt x="43" y="421" on="0"/>
        <pt x="118" y="552" on="0"/>
        <pt x="229" y="649" on="0"/>
        <pt x="367" y="706" on="0"/>
        <pt x="441" y="706" on="1"/>
        <pt x="492" y="706" on="0"/>
        <pt x="579" y="680" on="0"/>
        <pt x="617" y="656" on="1"/>
        <pt x="575" y="605" on="1"/>
        <pt x="514" y="646" on="0"/>
        <pt x="433" y="646" on="1"/>
        <pt x="372" y="646" on="0"/>
        <pt x="258" y="599" on="0"/>
        <pt x="166" y="517" on="0"/>
        <pt x="104" y="408" on="0"/>
        <pt x="95" y="347" on="1"/>
        <pt x="87" y="285" on="0"/>
        <pt x="118" y="177" on="0"/>
        <pt x="187" y="96" on="0"/>
        <pt x="287" y="49" on="0"/>
        <pt x="347" y="49" on="1"/>
        <pt x="412" y="49" on="0"/>
        <pt x="472" y="76" on="1"/>
        <pt x="495" y="238" on="1"/>
        <pt x="371" y="238" on="1"/>
        <pt x="379" y="298" on="1"/>
      </contour>
    </TTGlyph>
    <TTGlyph name="H" xMin="35" yMin="0" xMax="818" yMax="700">
      <contour>
        <pt x="597" y="700" on="1"/>
        <pt x="818" y="700" on="1"/>
        <pt x="810" y="640" on="1"/>
        <pt x="731" y="640" on="1"/>
        <pt x="650" y="59" on="1"/>
        <pt x="728" y="59" on="1"/>
        <pt x="720" y="0" on="1"/>
        <pt x="499" y="0" on="1"/>
        <pt x="507" y="59" on="1"/>
        <pt x="587" y="59" on="1"/>
        <pt x="624" y="323" on="1"/>
        <pt x="220" y="323" on="1"/>
        <pt x="184" y="59" on="1"/>
        <pt x="265" y="59" on="1"/>
        <pt x="257" y="0" on="1"/>
        <pt x="35" y="0" on="1"/>
        <pt x="43" y="59" on="1"/>
        <pt x="121" y="59" on="1"/>
        <pt x="203" y="640" on="1"/>
        <pt x="125" y="640" on="1"/>
        <pt x="133" y="700" on="1"/>
        <pt x="355" y="700" on="1"/>
        <pt x="346" y="640" on="1"/>
        <pt x="265" y="640" on="1"/>
        <pt x="229" y="382" on="1"/>
        <pt x="633" y="382" on="1"/>
        <pt x="669" y="640" on="1"/>
        <pt x="588" y="640" on="1"/>
      </contour>
    </TTGlyph>
    <TTGlyph name="I" xMin="35" yMin="0" xMax="355" yMax="700">
      <contour>
        <pt x="43" y="59" on="1"/>
        <pt x="121" y="59" on="1"/>
        <pt x="203" y="640" on="1"/>
        <pt x="125" y="640" on="1"/>
        <pt x="133" y="700" on="1"/>
        <pt x="355" y="700" on="1"/>
        <pt x="346" y="640" on="1"/>
        <pt x="265" y="640" on="1"/>
        <pt x="184" y="59" on="1"/>
        <pt x="265" y="59" on="1"/>
        <pt x="257" y="0" on="1"/>
        <pt x="35" y="0" on="1"/>
      </contour>
    </TTGlyph>
    <TTGlyph name="Iacute" xMin="35" yMin="0" xMax="400" yMax="883">
      <component glyphName="I" x="0" y="0" flags="0x204"/>
      <component glyphName="acute" x="128" y="271" flags="0x4"/>
    </TTGlyph>
    <TTGlyph name="Icircumflex" xMin="35" yMin="0" xMax="373" yMax="931">
      <component glyphName="I" x="0" y="0" flags="0x4"/>
      <component glyphName="asciicircum" x="34" y="271" flags="0x4"/>
    </TTGlyph>
    <TTGlyph name="Idieresis" xMin="35" yMin="0" xMax="387" yMax="847">
      <component glyphName="I" x="0" y="0" flags="0x4"/>
      <component glyphName="dieresis" x="70" y="290" flags="0x4"/>
    </TTGlyph>
    <TTGlyph name="Igrave" xMin="35" yMin="0" xMax="355" yMax="883">
      <component glyphName="I" x="0" y="0" flags="0x204"/>
      <component glyphName="grave" x="165" y="271" flags="0x4"/>
    </TTGlyph>
    <TTGlyph name="J" xMin="-24" yMin="-143" xMax="317" yMax="700">
      <contour>
        <pt x="93" y="700" on="1"/>
        <pt x="317" y="700" on="1"/>
        <pt x="231" y="90" on="1"/>
        <pt x="223" y="34" on="0"/>
        <pt x="177" y="-52" on="0"/>
        <pt x="108" y="-110" on="0"/>
        <pt x="23" y="-142" on="0"/>
        <pt x="-24" y="-143" on="1"/>
        <pt x="-17" y="-84" on="1"/>
        <pt x="18" y="-82" on="0"/>
        <pt x="81" y="-57" on="0"/>
        <pt x="130" y="-12" on="0"/>
        <pt x="163" y="52" on="0"/>
        <pt x="169" y="93" on="1"/>
        <pt x="247" y="640" on="1"/>
        <pt x="85" y="640" on="1"/>
      </contour>
    </TTGlyph>
    <TTGlyph name="K" xMin="35" yMin="0" xMax="706" yMax="700">
      <contour>
        <pt x="451" y="59" on="1"/>
        <pt x="508" y="59" on="1"/>
        <pt x="456" y="139" on="0"/>
        <pt x="353" y="298" on="0"/>
        <pt x="302" y="378" on="1"/>
        <pt x="217" y="308" on="1"/>
        <pt x="208" y="245" on="0"/>
        <pt x="191" y="122" on="0"/>
        <pt x="182" y="59" on="1"/>
        <pt x="265" y="59" on="1"/>
        <pt x="257" y="0" on="1"/>
        <pt x="35" y="0" on="1"/>
        <pt x="43" y="59" on="1"/>
        <pt x="120" y="59" on="1"/>
        <pt x="202" y="640" on="1"/>
        <pt x="125" y="640" on="1"/>
        <pt x="133" y="700" on="1"/>
        <pt x="341" y="700" on="1"/>
        <pt x="332" y="640" on="1"/>
        <pt x="264" y="640" on="1"/>
        <pt x="231" y="406" on="1"/>
        <pt x="229" y="398" on="0"/>
        <pt x="226" y="383" on="0"/>
        <pt x="224" y="375" on="1"/>
        <pt x="246" y="397" on="1"/>
        <pt x="535" y="640" on="1"/>
        <pt x="490" y="640" on="1"/>
        <pt x="498" y="700" on="1"/>
        <pt x="706" y="700" on="1"/>
        <pt x="698" y="640" on="1"/>
        <pt x="613" y="640" on="1"/>
        <pt x="349" y="418" on="1"/>
        <pt x="407" y="328" on="0"/>
        <pt x="523" y="150" on="0"/>
        <pt x="582" y="59" on="1"/>
        <pt x="659" y="59" on="1"/>
        <pt x="651" y="0" on="1"/>
        <pt x="443" y="0" on="1"/>
      </contour>
    </TTGlyph>
    <TTGlyph name="L" xMin="35" yMin="0" xMax="555" yMax="700">
      <contour>
        <pt x="43" y="59" on="1"/>
        <pt x="105" y="59" on="1"/>
        <pt x="187" y="640" on="1"/>
        <pt x="125" y="640" on="1"/>
        <pt x="133" y="700" on="1"/>
        <pt x="341" y="700" on="1"/>
        <pt x="332" y="640" on="1"/>
        <pt x="249" y="640" on="1"/>
        <pt x="168" y="59" on="1"/>
        <pt x="483" y="59" on="1"/>
        <pt x="496" y="154" on="1"/>
        <pt x="555" y="154" on="1"/>
        <pt x="534" y="0" on="1"/>
        <pt x="35" y="0" on="1"/>
      </contour>
    </TTGlyph>
    <TTGlyph name="M" xMin="35" yMin="0" xMax="1033" yMax="700">
      <contour>
        <pt x="925" y="700" on="1"/>
        <pt x="1033" y="700" on="1"/>
        <pt x="1025" y="640" on="1"/>
        <pt x="941" y="640" on="1"/>
        <pt x="859" y="59" on="1"/>
        <pt x="944" y="59" on="1"/>
        <pt x="936" y="0" on="1"/>
        <pt x="715" y="0" on="1"/>
        <pt x="723" y="59" on="1"/>
        <pt x="797" y="59" on="1"/>
        <pt x="862" y="522" on="1"/>
        <pt x="863" y="528" on="0"/>
        <pt x="867" y="553" on="0"/>
        <pt x="869" y="558" on="1"/>
        <pt x="862" y="550" on="0"/>
        <pt x="847" y="532" on="0"/>
        <pt x="839" y="523" on="1"/>
        <pt x="808" y="487" on="0"/>
        <pt x="726" y="396" on="0"/>
        <pt x="637" y="299" on="0"/>
        <pt x="546" y="200" on="0"/>
        <pt x="506" y="156" on="1"/>
        <pt x="460" y="229" on="0"/>
        <pt x="393" y="337" on="0"/>
        <pt x="345" y="414" on="0"/>
        <pt x="313" y="466" on="0"/>
        <pt x="291" y="501" on="0"/>
        <pt x="276" y="525" on="0"/>
        <pt x="269" y="536" on="1"/>
        <pt x="257" y="558" on="1"/>
        <pt x="256" y="549" on="0"/>
        <pt x="255" y="532" on="0"/>
        <pt x="254" y="522" on="1"/>
        <pt x="189" y="59" on="1"/>
        <pt x="265" y="59" on="1"/>
        <pt x="257" y="0" on="1"/>
        <pt x="35" y="0" on="1"/>
        <pt x="43" y="59" on="1"/>
        <pt x="127" y="59" on="1"/>
        <pt x="209" y="640" on="1"/>
        <pt x="125" y="640" on="1"/>
        <pt x="133" y="700" on="1"/>
        <pt x="241" y="700" on="1"/>
        <pt x="265" y="661" on="0"/>
        <pt x="333" y="554" on="0"/>
        <pt x="408" y="435" on="0"/>
        <pt x="486" y="311" on="0"/>
        <pt x="521" y="256" on="1"/>
        <pt x="622" y="367" on="0"/>
        <pt x="823" y="589" on="0"/>
      </contour>
    </TTGlyph>
    <TTGlyph name="N" xMin="39" yMin="-32" xMax="917" yMax="700">
      <contour>
        <pt x="47" y="59" on="1"/>
        <pt x="131" y="59" on="1"/>
        <pt x="213" y="640" on="1"/>
        <pt x="129" y="640" on="1"/>
        <pt x="137" y="700" on="1"/>
        <pt x="249" y="700" on="1"/>
        <pt x="674" y="132" on="1"/>
        <pt x="689" y="106" on="1"/>
        <pt x="691" y="138" on="1"/>
        <pt x="761" y="640" on="1"/>
        <pt x="688" y="640" on="1"/>
        <pt x="696" y="700" on="1"/>
        <pt x="917" y="700" on="1"/>
        <pt x="909" y="640" on="1"/>
        <pt x="824" y="640" on="1"/>
        <pt x="730" y="-32" on="1"/>
        <pt x="280" y="559" on="1"/>
        <pt x="265" y="584" on="1"/>
        <pt x="263" y="553" on="1"/>
        <pt x="194" y="59" on="1"/>
        <pt x="269" y="59" on="1"/>
        <pt x="261" y="0" on="1"/>
        <pt x="39" y="0" on="1"/>
      </contour>
    </TTGlyph>
    <TTGlyph name="Ntilde" xMin="39" yMin="-32" xMax="917" yMax="841">
      <component glyphName="N" x="0" y="0" flags="0x4"/>
      <component glyphName="asciitilde" x="223" y="292" flags="0x4"/>
    </TTGlyph>
    <TTGlyph name="O" xMin="74" yMin="-8" xMax="811" yMax="708">
      <contour>
        <pt x="85" y="349" on="1"/>
        <pt x="95" y="423" on="0"/>
        <pt x="169" y="554" on="0"/>
        <pt x="280" y="651" on="0"/>
        <pt x="418" y="708" on="0"/>
        <pt x="492" y="708" on="1"/>
        <pt x="566" y="708" on="0"/>
        <pt x="688" y="651" on="0"/>
        <pt x="772" y="554" on="0"/>
        <pt x="811" y="423" on="0"/>
        <pt x="801" y="349" on="1"/>
        <pt x="790" y="275" on="0"/>
        <pt x="715" y="145" on="0"/>
        <pt x="604" y="48" on="0"/>
        <pt x="466" y="-8" on="0"/>
        <pt x="392" y="-8" on="1"/>
        <pt x="318" y="-8" on="0"/>
        <pt x="196" y="48" on="0"/>
        <pt x="112" y="145" on="0"/>
        <pt x="74" y="275" on="0"/>
      </contour>
      <contour>
        <pt x="147" y="349" on="1"/>
        <pt x="138" y="287" on="0"/>
        <pt x="169" y="179" on="0"/>
        <pt x="238" y="98" on="0"/>
        <pt x="339" y="51" on="0"/>
        <pt x="400" y="51" on="1"/>
        <pt x="461" y="51" on="0"/>
        <pt x="575" y="98" on="0"/>
        <pt x="667" y="179" on="0"/>
        <pt x="730" y="287" on="0"/>
        <pt x="739" y="349" on="1"/>
        <pt x="747" y="410" on="0"/>
        <pt x="715" y="519" on="0"/>
        <pt x="646" y="601" on="0"/>
        <pt x="545" y="648" on="0"/>
        <pt x="484" y="648" on="1"/>
        <pt x="423" y="648" on="0"/>
        <pt x="309" y="601" on="0"/>
        <pt x="217" y="519" on="0"/>
        <pt x="156" y="410" on="0"/>
      </contour>
    </TTGlyph>
    <TTGlyph name="Oacute" xMin="74" yMin="-8" xMax="811" yMax="883">
      <component glyphName="O" x="0" y="0" flags="0x204"/>
      <component glyphName="acute" x="384" y="271" flags="0x4"/>
    </TTGlyph>
    <TTGlyph name="Ocircumflex" xMin="74" yMin="-8" xMax="811" yMax="931">
      <component glyphName="O" x="0" y="0" flags="0x204"/>
      <component glyphName="asciicircum" x="281" y="271" flags="0x4"/>
    </TTGlyph>
    <TTGlyph name="Odieresis" xMin="74" yMin="-8" xMax="811" yMax="847">
      <component glyphName="O" x="0" y="0" flags="0x204"/>
      <component glyphName="dieresis" x="311" y="290" flags="0x4"/>
    </TTGlyph>
    <TTGlyph name="Ograve" xMin="74" yMin="-8" xMax="811" yMax="883">
      <component glyphName="O" x="0" y="0" flags="0x204"/>
      <component glyphName="grave" x="415" y="271" flags="0x4"/>
    </TTGlyph>
    <TTGlyph name="Oslash" xMin="75" yMin="-14" xMax="812" yMax="716">
      <contour>
        <pt x="148" y="349" on="1"/>
        <pt x="139" y="289" on="0"/>
        <pt x="168" y="185" on="0"/>
        <pt x="200" y="145" on="1"/>
        <pt x="312" y="258" on="0"/>
        <pt x="534" y="481" on="0"/>
        <pt x="646" y="594" on="1"/>
        <pt x="613" y="620" on="0"/>
        <pt x="531" y="648" on="0"/>
        <pt x="484" y="648" on="1"/>
        <pt x="423" y="648" on="0"/>
        <pt x="309" y="601" on="0"/>
        <pt x="218" y="519" on="0"/>
        <pt x="156" y="410" on="0"/>
      </contour>
      <contour>
        <pt x="400" y="51" on="1"/>
        <pt x="461" y="51" on="0"/>
        <pt x="575" y="98" on="0"/>
        <pt x="668" y="179" on="0"/>
        <pt x="730" y="287" on="0"/>
        <pt x="739" y="349" on="1"/>
        <pt x="748" y="409" on="0"/>
        <pt x="717" y="516" on="0"/>
        <pt x="683" y="556" on="1"/>
        <pt x="571" y="443" on="0"/>
        <pt x="350" y="220" on="0"/>
        <pt x="238" y="107" on="1"/>
        <pt x="270" y="81" on="0"/>
        <pt x="352" y="51" on="0"/>
      </contour>
      <contour>
        <pt x="86" y="349" on="1"/>
        <pt x="96" y="423" on="0"/>
        <pt x="171" y="554" on="0"/>
        <pt x="281" y="651" on="0"/>
        <pt x="419" y="708" on="0"/>
        <pt x="493" y="708" on="1"/>
        <pt x="551" y="708" on="0"/>
        <pt x="652" y="673" on="0"/>
        <pt x="692" y="641" on="1"/>
        <pt x="711" y="660" on="0"/>
        <pt x="747" y="697" on="0"/>
        <pt x="766" y="716" on="1"/>
        <pt x="776" y="706" on="0"/>
        <pt x="794" y="687" on="0"/>
        <pt x="804" y="678" on="1"/>
        <pt x="730" y="604" on="1"/>
        <pt x="773" y="555" on="0"/>
        <pt x="812" y="424" on="0"/>
        <pt x="802" y="349" on="1"/>
        <pt x="791" y="275" on="0"/>
        <pt x="717" y="145" on="0"/>
        <pt x="606" y="48" on="0"/>
        <pt x="467" y="-8" on="0"/>
        <pt x="393" y="-8" on="1"/>
        <pt x="333" y="-8" on="0"/>
        <pt x="231" y="28" on="0"/>
        <pt x="192" y="60" on="1"/>
        <pt x="173" y="42" on="0"/>
        <pt x="137" y="4" on="0"/>
        <pt x="119" y="-14" on="1"/>
        <pt x="109" y="-5" on="0"/>
        <pt x="89" y="14" on="0"/>
        <pt x="81" y="24" on="1"/>
        <pt x="99" y="42" on="0"/>
        <pt x="135" y="79" on="0"/>
        <pt x="153" y="98" on="1"/>
        <pt x="111" y="146" on="0"/>
        <pt x="75" y="275" on="0"/>
      </contour>
    </TTGlyph>
    <TTGlyph name="Otilde" xMin="74" yMin="-8" xMax="811" yMax="876">
      <component glyphName="O" x="0" y="0" flags="0x204"/>
      <component glyphName="asciitilde" x="223" y="327" flags="0x4"/>
    </TTGlyph>
    <TTGlyph name="P" xMin="35" yMin="0" xMax="550" yMax="700">
      <contour>
        <pt x="43" y="59" on="1"/>
        <pt x="96" y="59" on="1"/>
        <pt x="177" y="640" on="1"/>
        <pt x="125" y="640" on="1"/>
        <pt x="133" y="700" on="1"/>
        <pt x="343" y="700" on="1"/>
        <pt x="376" y="700" on="0"/>
        <pt x="451" y="679" on="0"/>
        <pt x="513" y="634" on="0"/>
        <pt x="550" y="564" on="0"/>
        <pt x="543" y="514" on="1"/>
        <pt x="530" y="426" on="0"/>
        <pt x="407" y="321" on="0"/>
        <pt x="304" y="321" on="1"/>
        <pt x="194" y="321" on="1"/>
        <pt x="158" y="59" on="1"/>
        <pt x="265" y="59" on="1"/>
        <pt x="257" y="0" on="1"/>
        <pt x="35" y="0" on="1"/>
      </contour>
      <contour>
        <pt x="203" y="381" on="1"/>
        <pt x="299" y="381" on="1"/>
        <pt x="347" y="381" on="0"/>
        <pt x="414" y="406" on="0"/>
        <pt x="456" y="445" on="0"/>
        <pt x="477" y="492" on="0"/>
        <pt x="480" y="514" on="1"/>
        <pt x="484" y="539" on="0"/>
        <pt x="466" y="585" on="0"/>
        <pt x="427" y="619" on="0"/>
        <pt x="370" y="640" on="0"/>
        <pt x="336" y="640" on="1"/>
        <pt x="240" y="640" on="1"/>
      </contour>
    </TTGlyph>
    <TTGlyph name="Q" xMin="74" yMin="-8" xMax="811" yMax="708">
      <contour>
        <pt x="147" y="349" on="1"/>
        <pt x="138" y="287" on="0"/>
        <pt x="169" y="179" on="0"/>
        <pt x="238" y="98" on="0"/>
        <pt x="338" y="51" on="0"/>
        <pt x="399" y="51" on="1"/>
        <pt x="460" y="51" on="0"/>
        <pt x="575" y="98" on="0"/>
        <pt x="667" y="179" on="0"/>
        <pt x="730" y="287" on="0"/>
        <pt x="739" y="349" on="1"/>
        <pt x="747" y="410" on="0"/>
        <pt x="715" y="519" on="0"/>
        <pt x="646" y="601" on="0"/>
        <pt x="545" y="648" on="0"/>
        <pt x="484" y="648" on="1"/>
        <pt x="423" y="648" on="0"/>
        <pt x="309" y="601" on="0"/>
        <pt x="217" y="519" on="0"/>
        <pt x="156" y="410" on="0"/>
      </contour>
      <contour>
        <pt x="85" y="349" on="1"/>
        <pt x="95" y="423" on="0"/>
        <pt x="170" y="554" on="0"/>
        <pt x="280" y="651" on="0"/>
        <pt x="418" y="708" on="0"/>
        <pt x="492" y="708" on="1"/>
        <pt x="566" y="708" on="0"/>
        <pt x="689" y="651" on="0"/>
        <pt x="773" y="554" on="0"/>
        <pt x="811" y="423" on="0"/>
        <pt x="801" y="349" on="1"/>
        <pt x="787" y="257" on="0"/>
        <pt x="680" y="105" on="0"/>
        <pt x="602" y="59" on="1"/>
        <pt x="782" y="59" on="1"/>
        <pt x="774" y="0" on="1"/>
        <pt x="467" y="0" on="1"/>
        <pt x="427" y="-8" on="0"/>
        <pt x="392" y="-8" on="1"/>
        <pt x="318" y="-8" on="0"/>
        <pt x="196" y="48" on="0"/>
        <pt x="112" y="145" on="0"/>
        <pt x="74" y="275" on="0"/>
      </contour>
    </TTGlyph>
    <TTGlyph name="R" xMin="35" yMin="0" xMax="550" yMax="700">
      <contour>
        <pt x="43" y="59" on="1"/>
        <pt x="96" y="59" on="1"/>
        <pt x="177" y="640" on="1"/>
        <pt x="125" y="640" on="1"/>
        <pt x="133" y="700" on="1"/>
        <pt x="343" y="700" on="1"/>
        <pt x="376" y="700" on="0"/>
        <pt x="451" y="679" on="0"/>
        <pt x="513" y="634" on="0"/>
        <pt x="550" y="564" on="0"/>
        <pt x="543" y="514" on="1"/>
        <pt x="532" y="440" on="0"/>
        <pt x="443" y="342" on="0"/>
        <pt x="368" y="326" on="1"/>
        <pt x="456" y="59" on="1"/>
        <pt x="547" y="59" on="1"/>
        <pt x="539" y="0" on="1"/>
        <pt x="409" y="0" on="1"/>
        <pt x="302" y="322" on="1"/>
        <pt x="291" y="321" on="0"/>
        <pt x="268" y="321" on="0"/>
        <pt x="257" y="321" on="1"/>
        <pt x="194" y="321" on="1"/>
        <pt x="158" y="59" on="1"/>
        <pt x="265" y="59" on="1"/>
        <pt x="257" y="0" on="1"/>
        <pt x="35" y="0" on="1"/>
      </contour>
      <contour>
        <pt x="203" y="381" on="1"/>
        <pt x="299" y="381" on="1"/>
        <pt x="347" y="381" on="0"/>
        <pt x="414" y="406" on="0"/>
        <pt x="456" y="445" on="0"/>
        <pt x="477" y="492" on="0"/>
        <pt x="480" y="514" on="1"/>
        <pt x="484" y="539" on="0"/>
        <pt x="466" y="585" on="0"/>
        <pt x="427" y="619" on="0"/>
        <pt x="370" y="640" on="0"/>
        <pt x="336" y="640" on="1"/>
        <pt x="240" y="640" on="1"/>
      </contour>
    </TTGlyph>
    <TTGlyph name="S" xMin="41" yMin="-8" xMax="504" yMax="704">
      <contour>
        <pt x="41" y="84" on="1"/>
        <pt x="57" y="195" on="1"/>
        <pt x="116" y="195" on="1"/>
        <pt x="103" y="106" on="1"/>
        <pt x="127" y="83" on="0"/>
        <pt x="199" y="51" on="0"/>
        <pt x="249" y="51" on="1"/>
        <pt x="279" y="51" on="0"/>
        <pt x="336" y="69" on="0"/>
        <pt x="383" y="103" on="0"/>
        <pt x="416" y="154" on="0"/>
        <pt x="421" y="186" on="1"/>
        <pt x="427" y="228" on="0"/>
        <pt x="406" y="281" on="0"/>
        <pt x="363" y="315" on="0"/>
        <pt x="306" y="336" on="0"/>
        <pt x="245" y="355" on="0"/>
        <pt x="187" y="377" on="0"/>
        <pt x="144" y="414" on="0"/>
        <pt x="122" y="472" on="0"/>
        <pt x="127" y="517" on="1"/>
        <pt x="131" y="550" on="0"/>
        <pt x="160" y="617" on="0"/>
        <pt x="213" y="670" on="0"/>
        <pt x="290" y="704" on="0"/>
        <pt x="343" y="704" on="1"/>
        <pt x="360" y="704" on="0"/>
        <pt x="401" y="700" on="0"/>
        <pt x="443" y="689" on="0"/>
        <pt x="485" y="667" on="0"/>
        <pt x="504" y="649" on="1"/>
        <pt x="490" y="546" on="1"/>
        <pt x="430" y="546" on="1"/>
        <pt x="441" y="619" on="1"/>
        <pt x="423" y="630" on="0"/>
        <pt x="369" y="644" on="0"/>
        <pt x="334" y="644" on="1"/>
        <pt x="302" y="644" on="0"/>
        <pt x="252" y="623" on="0"/>
        <pt x="215" y="589" on="0"/>
        <pt x="193" y="544" on="0"/>
        <pt x="190" y="519" on="1"/>
        <pt x="185" y="486" on="0"/>
        <pt x="209" y="444" on="0"/>
        <pt x="253" y="417" on="0"/>
        <pt x="311" y="398" on="0"/>
        <pt x="371" y="378" on="0"/>
        <pt x="428" y="350" on="0"/>
        <pt x="470" y="305" on="0"/>
        <pt x="490" y="237" on="0"/>
        <pt x="483" y="187" on="1"/>
        <pt x="477" y="142" on="0"/>
        <pt x="434" y="70" on="0"/>
        <pt x="370" y="19" on="0"/>
        <pt x="290" y="-8" on="0"/>
        <pt x="247" y="-8" on="1"/>
        <pt x="208" y="-8" on="0"/>
        <pt x="142" y="8" on="0"/>
        <pt x="89" y="35" on="0"/>
        <pt x="51" y="67" on="0"/>
      </contour>
    </TTGlyph>
    <TTGlyph name="T" xMin="111" yMin="0" xMax="686" yMax="700">
      <contour>
        <pt x="205" y="59" on="1"/>
        <pt x="289" y="59" on="1"/>
        <pt x="371" y="640" on="1"/>
        <pt x="184" y="640" on="1"/>
        <pt x="170" y="546" on="1"/>
        <pt x="111" y="546" on="1"/>
        <pt x="133" y="700" on="1"/>
        <pt x="686" y="700" on="1"/>
        <pt x="664" y="546" on="1"/>
        <pt x="604" y="546" on="1"/>
        <pt x="618" y="640" on="1"/>
        <pt x="433" y="640" on="1"/>
        <pt x="351" y="59" on="1"/>
        <pt x="427" y="59" on="1"/>
        <pt x="419" y="0" on="1"/>
        <pt x="197" y="0" on="1"/>
      </contour>
    </TTGlyph>
    <TTGlyph name="Thorn" xMin="35" yMin="0" xMax="545" yMax="700">
      <contour>
        <pt x="43" y="59" on="1"/>
        <pt x="114" y="59" on="1"/>
        <pt x="196" y="640" on="1"/>
        <pt x="125" y="640" on="1"/>
        <pt x="133" y="700" on="1"/>
        <pt x="341" y="700" on="1"/>
        <pt x="332" y="640" on="1"/>
        <pt x="258" y="640" on="1"/>
        <pt x="243" y="535" on="1"/>
        <pt x="338" y="535" on="1"/>
        <pt x="371" y="535" on="0"/>
        <pt x="447" y="514" on="0"/>
        <pt x="509" y="469" on="0"/>
        <pt x="545" y="399" on="0"/>
        <pt x="538" y="349" on="1"/>
        <pt x="525" y="261" on="0"/>
        <pt x="402" y="156" on="0"/>
        <pt x="299" y="156" on="1"/>
        <pt x="189" y="156" on="1"/>
        <pt x="176" y="59" on="1"/>
        <pt x="265" y="59" on="1"/>
        <pt x="257" y="0" on="1"/>
        <pt x="35" y="0" on="1"/>
      </contour>
      <contour>
        <pt x="198" y="216" on="1"/>
        <pt x="293" y="216" on="1"/>
        <pt x="341" y="216" on="0"/>
        <pt x="408" y="241" on="0"/>
        <pt x="451" y="280" on="0"/>
        <pt x="473" y="327" on="0"/>
        <pt x="476" y="349" on="1"/>
        <pt x="479" y="374" on="0"/>
        <pt x="461" y="420" on="0"/>
        <pt x="422" y="455" on="0"/>
        <pt x="365" y="476" on="0"/>
        <pt x="331" y="476" on="1"/>
        <pt x="235" y="476" on="1"/>
      </contour>
    </TTGlyph>
    <TTGlyph name="U" xMin="126" yMin="-8" xMax="776" yMax="700">
      <contour>
        <pt x="134" y="700" on="1"/>
        <pt x="356" y="700" on="1"/>
        <pt x="347" y="640" on="1"/>
        <pt x="265" y="640" on="1"/>
        <pt x="207" y="229" on="1"/>
        <pt x="201" y="186" on="0"/>
        <pt x="219" y="120" on="0"/>
        <pt x="261" y="75" on="0"/>
        <pt x="324" y="51" on="0"/>
        <pt x="364" y="51" on="1"/>
        <pt x="403" y="51" on="0"/>
        <pt x="473" y="75" on="0"/>
        <pt x="528" y="120" on="0"/>
        <pt x="565" y="186" on="0"/>
        <pt x="571" y="229" on="1"/>
        <pt x="629" y="640" on="1"/>
        <pt x="547" y="640" on="1"/>
        <pt x="555" y="700" on="1"/>
        <pt x="776" y="700" on="1"/>
        <pt x="768" y="640" on="1"/>
        <pt x="691" y="640" on="1"/>
        <pt x="632" y="226" on="1"/>
        <pt x="624" y="169" on="0"/>
        <pt x="575" y="81" on="0"/>
        <pt x="501" y="22" on="0"/>
        <pt x="408" y="-8" on="0"/>
        <pt x="356" y="-8" on="1"/>
        <pt x="303" y="-8" on="0"/>
        <pt x="218" y="22" on="0"/>
        <pt x="161" y="81" on="0"/>
        <pt x="136" y="169" on="0"/>
        <pt x="144" y="226" on="1"/>
        <pt x="203" y="640" on="1"/>
        <pt x="126" y="640" on="1"/>
      </contour>
    </TTGlyph>
    <TTGlyph name="Uacute" xMin="126" yMin="-8" xMax="776" yMax="883">
      <component glyphName="U" x="0" y="0" flags="0x204"/>
      <component glyphName="acute" x="338" y="271" flags="0x4"/>
    </TTGlyph>
    <TTGlyph name="Ucircumflex" xMin="126" yMin="-8" xMax="776" yMax="932">
      <component glyphName="U" x="0" y="0" flags="0x204"/>
      <component glyphName="asciicircum" x="245" y="272" flags="0x4"/>
    </TTGlyph>
    <TTGlyph name="Udieresis" xMin="126" yMin="-8" xMax="776" yMax="847">
      <component glyphName="U" x="0" y="0" flags="0x204"/>
      <component glyphName="dieresis" x="280" y="290" flags="0x4"/>
    </TTGlyph>
    <TTGlyph name="Ugrave" xMin="126" yMin="-8" xMax="776" yMax="883">
      <component glyphName="U" x="0" y="0" flags="0x204"/>
      <component glyphName="grave" x="389" y="271" flags="0x4"/>
    </TTGlyph>
    <TTGlyph name="V" xMin="129" yMin="-32" xMax="887" yMax="700">
      <contour>
        <pt x="137" y="700" on="1"/>
        <pt x="359" y="700" on="1"/>
        <pt x="350" y="640" on="1"/>
        <pt x="277" y="640" on="1"/>
        <pt x="313" y="514" on="0"/>
        <pt x="384" y="263" on="0"/>
        <pt x="420" y="137" on="1"/>
        <pt x="425" y="106" on="1"/>
        <pt x="438" y="137" on="1"/>
        <pt x="510" y="263" on="0"/>
        <pt x="650" y="513" on="0"/>
        <pt x="721" y="640" on="1"/>
        <pt x="657" y="640" on="1"/>
        <pt x="666" y="700" on="1"/>
        <pt x="887" y="700" on="1"/>
        <pt x="879" y="640" on="1"/>
        <pt x="785" y="640" on="1"/>
        <pt x="690" y="471" on="0"/>
        <pt x="500" y="137" on="0"/>
        <pt x="406" y="-32" on="1"/>
        <pt x="214" y="640" on="1"/>
        <pt x="129" y="640" on="1"/>
      </contour>
    </TTGlyph>
    <TTGlyph name="W" xMin="129" yMin="-32" xMax="1258" yMax="700">
      <contour>
        <pt x="137" y="700" on="1"/>
        <pt x="359" y="700" on="1"/>
        <pt x="350" y="640" on="1"/>
        <pt x="277" y="640" on="1"/>
        <pt x="313" y="514" on="0"/>
        <pt x="383" y="263" on="0"/>
        <pt x="420" y="137" on="1"/>
        <pt x="425" y="106" on="1"/>
        <pt x="467" y="202" on="0"/>
        <pt x="581" y="389" on="0"/>
        <pt x="632" y="482" on="1"/>
        <pt x="621" y="521" on="0"/>
        <pt x="598" y="600" on="0"/>
        <pt x="587" y="640" on="1"/>
        <pt x="499" y="640" on="1"/>
        <pt x="507" y="700" on="1"/>
        <pt x="729" y="700" on="1"/>
        <pt x="721" y="640" on="1"/>
        <pt x="650" y="640" on="1"/>
        <pt x="685" y="514" on="0"/>
        <pt x="756" y="263" on="0"/>
        <pt x="793" y="137" on="1"/>
        <pt x="797" y="106" on="1"/>
        <pt x="811" y="137" on="1"/>
        <pt x="882" y="263" on="0"/>
        <pt x="1023" y="513" on="0"/>
        <pt x="1094" y="640" on="1"/>
        <pt x="1028" y="640" on="1"/>
        <pt x="1036" y="700" on="1"/>
        <pt x="1258" y="700" on="1"/>
        <pt x="1249" y="640" on="1"/>
        <pt x="1157" y="640" on="1"/>
        <pt x="1063" y="471" on="0"/>
        <pt x="873" y="137" on="0"/>
        <pt x="779" y="-32" on="1"/>
        <pt x="660" y="385" on="1"/>
        <pt x="654" y="416" on="1"/>
        <pt x="630" y="360" on="0"/>
        <pt x="569" y="247" on="0"/>
        <pt x="503" y="134" on="0"/>
        <pt x="436" y="22" on="0"/>
        <pt x="406" y="-32" on="1"/>
        <pt x="214" y="640" on="1"/>
        <pt x="129" y="640" on="1"/>
      </contour>
    </TTGlyph>
    <TTGlyph name="X" xMin="35" yMin="0" xMax="762" yMax="700">
      <contour>
        <pt x="133" y="700" on="1"/>
        <pt x="355" y="700" on="1"/>
        <pt x="346" y="640" on="1"/>
        <pt x="290" y="640" on="1"/>
        <pt x="317" y="586" on="0"/>
        <pt x="372" y="482" on="0"/>
        <pt x="398" y="429" on="1"/>
        <pt x="407" y="406" on="1"/>
        <pt x="421" y="429" on="1"/>
        <pt x="588" y="640" on="1"/>
        <pt x="532" y="640" on="1"/>
        <pt x="540" y="700" on="1"/>
        <pt x="762" y="700" on="1"/>
        <pt x="753" y="640" on="1"/>
        <pt x="664" y="640" on="1"/>
        <pt x="607" y="568" on="0"/>
        <pt x="494" y="424" on="0"/>
        <pt x="437" y="352" on="1"/>
        <pt x="511" y="207" on="0"/>
        <pt x="588" y="59" on="1"/>
        <pt x="672" y="59" on="1"/>
        <pt x="664" y="0" on="1"/>
        <pt x="442" y="0" on="1"/>
        <pt x="450" y="59" on="1"/>
        <pt x="510" y="59" on="1"/>
        <pt x="405" y="264" on="1"/>
        <pt x="400" y="274" on="0"/>
        <pt x="393" y="295" on="0"/>
        <pt x="388" y="305" on="1"/>
        <pt x="373" y="281" on="1"/>
        <pt x="328" y="225" on="0"/>
        <pt x="243" y="115" on="0"/>
        <pt x="199" y="59" on="1"/>
        <pt x="265" y="59" on="1"/>
        <pt x="257" y="0" on="1"/>
        <pt x="35" y="0" on="1"/>
        <pt x="43" y="59" on="1"/>
        <pt x="122" y="59" on="1"/>
        <pt x="358" y="358" on="1"/>
        <pt x="214" y="640" on="1"/>
        <pt x="125" y="640" on="1"/>
      </contour>
    </TTGlyph>
    <TTGlyph name="Y" xMin="125" yMin="0" xMax="831" yMax="700">
      <contour>
        <pt x="284" y="59" on="1"/>
        <pt x="354" y="59" on="1"/>
        <pt x="383" y="268" on="1"/>
        <pt x="340" y="361" on="0"/>
        <pt x="256" y="546" on="0"/>
        <pt x="214" y="640" on="1"/>
        <pt x="125" y="640" on="1"/>
        <pt x="133" y="700" on="1"/>
        <pt x="355" y="700" on="1"/>
        <pt x="346" y="640" on="1"/>
        <pt x="290" y="640" on="1"/>
        <pt x="323" y="568" on="0"/>
        <pt x="389" y="425" on="0"/>
        <pt x="421" y="353" on="1"/>
        <pt x="428" y="324" on="1"/>
        <pt x="429" y="324" on="1"/>
        <pt x="445" y="353" on="1"/>
        <pt x="656" y="640" on="1"/>
        <pt x="601" y="640" on="1"/>
        <pt x="609" y="700" on="1"/>
        <pt x="831" y="700" on="1"/>
        <pt x="822" y="640" on="1"/>
        <pt x="732" y="640" on="1"/>
        <pt x="663" y="546" on="0"/>
        <pt x="528" y="361" on="0"/>
        <pt x="459" y="267" on="1"/>
        <pt x="430" y="59" on="1"/>
        <pt x="505" y="59" on="1"/>
        <pt x="497" y="0" on="1"/>
        <pt x="276" y="0" on="1"/>
      </contour>
    </TTGlyph>
    <TTGlyph name="Yacute" xMin="125" yMin="0" xMax="831" yMax="883">
      <component glyphName="Y" x="0" y="0" flags="0x204"/>
      <component glyphName="acute" x="374" y="271" flags="0x4"/>
    </TTGlyph>
    <TTGlyph name="Z" xMin="35" yMin="0" xMax="663" yMax="735">
      <contour>
        <pt x="625" y="222" on="1"/>
        <pt x="594" y="0" on="1"/>
        <pt x="35" y="0" on="1"/>
        <pt x="43" y="60" on="1"/>
        <pt x="577" y="640" on="1"/>
        <pt x="141" y="640" on="1"/>
        <pt x="154" y="735" on="1"/>
        <pt x="217" y="735" on="1"/>
        <pt x="212" y="700" on="1"/>
        <pt x="663" y="700" on="1"/>
        <pt x="655" y="640" on="1"/>
        <pt x="120" y="60" on="1"/>
        <pt x="542" y="60" on="1"/>
        <pt x="565" y="222" on="1"/>
      </contour>
    </TTGlyph>
    <TTGlyph name="a" xMin="56" yMin="-8" xMax="516" yMax="384">
      <contour>
        <pt x="62" y="187" on="1"/>
        <pt x="68" y="227" on="0"/>
        <pt x="108" y="298" on="0"/>
        <pt x="170" y="352" on="0"/>
        <pt x="247" y="384" on="0"/>
        <pt x="289" y="384" on="1"/>
        <pt x="317" y="384" on="0"/>
        <pt x="363" y="368" on="0"/>
        <pt x="398" y="344" on="0"/>
        <pt x="419" y="318" on="0"/>
        <pt x="421" y="308" on="1"/>
        <pt x="423" y="324" on="0"/>
        <pt x="432" y="358" on="0"/>
        <pt x="434" y="375" on="1"/>
        <pt x="485" y="375" on="1"/>
        <pt x="441" y="59" on="1"/>
        <pt x="516" y="59" on="1"/>
        <pt x="508" y="0" on="1"/>
        <pt x="378" y="0" on="1"/>
        <pt x="382" y="30" on="1"/>
        <pt x="384" y="38" on="0"/>
        <pt x="385" y="55" on="0"/>
        <pt x="387" y="63" on="1"/>
        <pt x="381" y="53" on="0"/>
        <pt x="354" y="29" on="0"/>
        <pt x="315" y="7" on="0"/>
        <pt x="264" y="-8" on="0"/>
        <pt x="234" y="-8" on="1"/>
        <pt x="192" y="-8" on="0"/>
        <pt x="124" y="23" on="0"/>
        <pt x="77" y="76" on="0"/>
        <pt x="56" y="147" on="0"/>
      </contour>
      <contour>
        <pt x="125" y="188" on="1"/>
        <pt x="121" y="159" on="0"/>
        <pt x="134" y="110" on="0"/>
        <pt x="166" y="74" on="0"/>
        <pt x="213" y="53" on="0"/>
        <pt x="242" y="53" on="1"/>
        <pt x="271" y="53" on="0"/>
        <pt x="324" y="74" on="0"/>
        <pt x="366" y="110" on="0"/>
        <pt x="393" y="159" on="0"/>
        <pt x="397" y="188" on="1"/>
        <pt x="401" y="216" on="0"/>
        <pt x="388" y="266" on="0"/>
        <pt x="356" y="302" on="0"/>
        <pt x="309" y="323" on="0"/>
        <pt x="280" y="323" on="1"/>
        <pt x="250" y="323" on="0"/>
        <pt x="197" y="302" on="0"/>
        <pt x="156" y="266" on="0"/>
        <pt x="129" y="216" on="0"/>
      </contour>
    </TTGlyph>
    <TTGlyph name="aacute" xMin="56" yMin="-8" xMax="516" yMax="612">
      <component glyphName="a" x="0" y="0" flags="0x204"/>
      <component glyphName="acute" x="195" y="0" flags="0x4"/>
    </TTGlyph>
    <TTGlyph name="acircumflex" xMin="56" yMin="-8" xMax="516" yMax="660">
      <component glyphName="a" x="0" y="0" flags="0x204"/>
      <component glyphName="asciicircum" x="103" y="0" flags="0x4"/>
    </TTGlyph>
    <TTGlyph name="acute" xMin="100" yMin="479" xMax="272" yMax="612">
      <contour>
        <pt x="100" y="479" on="1"/>
        <pt x="127" y="512" on="0"/>
        <pt x="181" y="579" on="0"/>
        <pt x="208" y="612" on="1"/>
        <pt x="272" y="612" on="1"/>
        <pt x="240" y="579" on="0"/>
        <pt x="178" y="512" on="0"/>
        <pt x="146" y="479" on="1"/>
      </contour>
    </TTGlyph>
    <TTGlyph name="adieresis" xMin="56" yMin="-8" xMax="516" yMax="557">
      <component glyphName="a" x="0" y="0" flags="0x204"/>
      <component glyphName="dieresis" x="134" y="0" flags="0x4"/>
    </TTGlyph>
    <TTGlyph name="ae" xMin="45" yMin="-10" xMax="601" yMax="382">
      <contour>
        <pt x="385" y="242" on="1"/>
        <pt x="381" y="211" on="1"/>
        <pt x="417" y="225" on="0"/>
        <pt x="490" y="250" on="0"/>
        <pt x="526" y="264" on="1"/>
        <pt x="515" y="290" on="0"/>
        <pt x="469" y="321" on="0"/>
        <pt x="440" y="321" on="1"/>
        <pt x="409" y="321" on="0"/>
        <pt x="382" y="310" on="1"/>
        <pt x="391" y="288" on="0"/>
      </contour>
      <contour>
        <pt x="309" y="147" on="1"/>
        <pt x="242" y="147" on="1"/>
        <pt x="227" y="147" on="0"/>
        <pt x="185" y="146" on="0"/>
        <pt x="145" y="138" on="0"/>
        <pt x="116" y="120" on="0"/>
        <pt x="114" y="103" on="1"/>
        <pt x="112" y="87" on="0"/>
        <pt x="126" y="67" on="0"/>
        <pt x="152" y="55" on="0"/>
        <pt x="185" y="51" on="0"/>
        <pt x="202" y="51" on="1"/>
        <pt x="217" y="51" on="0"/>
        <pt x="251" y="54" on="0"/>
        <pt x="280" y="66" on="0"/>
        <pt x="300" y="88" on="0"/>
        <pt x="303" y="107" on="1"/>
      </contour>
      <contour>
        <pt x="131" y="291" on="1"/>
        <pt x="124" y="302" on="0"/>
        <pt x="110" y="321" on="0"/>
        <pt x="103" y="332" on="1"/>
        <pt x="115" y="342" on="0"/>
        <pt x="150" y="360" on="0"/>
        <pt x="190" y="374" on="0"/>
        <pt x="232" y="382" on="0"/>
        <pt x="250" y="382" on="1"/>
        <pt x="327" y="382" on="0"/>
        <pt x="357" y="362" on="1"/>
        <pt x="402" y="382" on="0"/>
        <pt x="449" y="382" on="1"/>
        <pt x="511" y="382" on="0"/>
        <pt x="592" y="296" on="0"/>
        <pt x="601" y="229" on="1"/>
        <pt x="544" y="208" on="0"/>
        <pt x="429" y="167" on="0"/>
        <pt x="372" y="146" on="1"/>
        <pt x="369" y="129" on="1"/>
        <pt x="365" y="88" on="0"/>
        <pt x="344" y="63" on="1"/>
        <pt x="368" y="51" on="0"/>
        <pt x="402" y="51" on="1"/>
        <pt x="429" y="51" on="0"/>
        <pt x="478" y="72" on="0"/>
        <pt x="498" y="89" on="1"/>
        <pt x="506" y="77" on="0"/>
        <pt x="522" y="54" on="0"/>
        <pt x="530" y="43" on="1"/>
        <pt x="501" y="19" on="0"/>
        <pt x="432" y="-9" on="0"/>
        <pt x="394" y="-9" on="1"/>
        <pt x="344" y="-9" on="0"/>
        <pt x="303" y="13" on="1"/>
        <pt x="262" y="-10" on="0"/>
        <pt x="194" y="-10" on="1"/>
        <pt x="158" y="-10" on="0"/>
        <pt x="101" y="1" on="0"/>
        <pt x="63" y="28" on="0"/>
        <pt x="45" y="72" on="0"/>
        <pt x="50" y="106" on="1"/>
        <pt x="54" y="136" on="0"/>
        <pt x="85" y="176" on="0"/>
        <pt x="130" y="201" on="0"/>
        <pt x="184" y="211" on="0"/>
        <pt x="212" y="211" on="1"/>
        <pt x="318" y="211" on="1"/>
        <pt x="322" y="244" on="1"/>
        <pt x="325" y="263" on="0"/>
        <pt x="323" y="292" on="0"/>
        <pt x="305" y="312" on="0"/>
        <pt x="270" y="321" on="0"/>
        <pt x="240" y="321" on="1"/>
        <pt x="227" y="321" on="0"/>
        <pt x="196" y="316" on="0"/>
        <pt x="166" y="307" on="0"/>
        <pt x="140" y="297" on="0"/>
      </contour>
    </TTGlyph>
    <TTGlyph name="agrave" xMin="56" yMin="-8" xMax="516" yMax="612">
      <component glyphName="a" x="0" y="0" flags="0x204"/>
      <component glyphName="grave" x="211" y="0" flags="0x4"/>
    </TTGlyph>
    <TTGlyph name="ampersand" xMin="72" yMin="-19" xMax="600" yMax="750">
      <contour>
        <pt x="439" y="375" on="1"/>
        <pt x="600" y="375" on="1"/>
        <pt x="592" y="314" on="1"/>
        <pt x="493" y="314" on="1"/>
        <pt x="486" y="260" on="1"/>
        <pt x="482" y="234" on="0"/>
        <pt x="472" y="159" on="0"/>
        <pt x="455" y="127" on="1"/>
        <pt x="509" y="13" on="1"/>
        <pt x="456" y="-19" on="1"/>
        <pt x="415" y="66" on="1"/>
        <pt x="383" y="31" on="0"/>
        <pt x="297" y="-8" on="0"/>
        <pt x="249" y="-8" on="1"/>
        <pt x="208" y="-8" on="0"/>
        <pt x="140" y="23" on="0"/>
        <pt x="93" y="76" on="0"/>
        <pt x="72" y="147" on="0"/>
        <pt x="78" y="188" on="1"/>
        <pt x="83" y="224" on="0"/>
        <pt x="117" y="288" on="0"/>
        <pt x="168" y="339" on="0"/>
        <pt x="232" y="374" on="0"/>
        <pt x="267" y="380" on="1"/>
        <pt x="212" y="496" on="1"/>
        <pt x="198" y="526" on="0"/>
        <pt x="193" y="590" on="0"/>
        <pt x="212" y="651" on="0"/>
        <pt x="256" y="706" on="0"/>
        <pt x="292" y="726" on="1"/>
        <pt x="323" y="743" on="0"/>
        <pt x="382" y="750" on="0"/>
        <pt x="436" y="739" on="0"/>
        <pt x="483" y="717" on="0"/>
        <pt x="500" y="705" on="1"/>
        <pt x="468" y="656" on="1"/>
        <pt x="455" y="664" on="0"/>
        <pt x="422" y="681" on="0"/>
        <pt x="384" y="690" on="0"/>
        <pt x="345" y="687" on="0"/>
        <pt x="326" y="676" on="1"/>
        <pt x="274" y="646" on="0"/>
        <pt x="251" y="556" on="0"/>
        <pt x="272" y="512" on="1"/>
        <pt x="410" y="220" on="1"/>
        <pt x="420" y="234" on="0"/>
        <pt x="421" y="249" on="1"/>
      </contour>
      <contour>
        <pt x="141" y="188" on="1"/>
        <pt x="137" y="159" on="0"/>
        <pt x="150" y="110" on="0"/>
        <pt x="181" y="73" on="0"/>
        <pt x="228" y="52" on="0"/>
        <pt x="258" y="52" on="1"/>
        <pt x="299" y="52" on="0"/>
        <pt x="368" y="92" on="0"/>
        <pt x="388" y="124" on="1"/>
        <pt x="295" y="322" on="1"/>
        <pt x="265" y="321" on="0"/>
        <pt x="212" y="301" on="0"/>
        <pt x="171" y="266" on="0"/>
        <pt x="145" y="217" on="0"/>
      </contour>
    </TTGlyph>
    <TTGlyph name="aring" xMin="56" yMin="-8" xMax="516" yMax="620">
      <contour>
        <pt x="274" y="539" on="1"/>
        <pt x="272" y="524" on="0"/>
        <pt x="291" y="502" on="0"/>
        <pt x="306" y="502" on="1"/>
        <pt x="322" y="502" on="0"/>
        <pt x="347" y="524" on="0"/>
        <pt x="349" y="539" on="1"/>
        <pt x="351" y="555" on="0"/>
        <pt x="332" y="577" on="0"/>
        <pt x="316" y="577" on="1"/>
        <pt x="301" y="577" on="0"/>
        <pt x="276" y="555" on="0"/>
      </contour>
      <contour>
        <pt x="232" y="540" on="1"/>
        <pt x="234" y="556" on="0"/>
        <pt x="251" y="586" on="0"/>
        <pt x="276" y="607" on="0"/>
        <pt x="306" y="620" on="0"/>
        <pt x="323" y="620" on="1"/>
        <pt x="355" y="620" on="0"/>
        <pt x="396" y="573" on="0"/>
        <pt x="392" y="540" on="1"/>
        <pt x="389" y="523" on="0"/>
        <pt x="372" y="494" on="0"/>
        <pt x="347" y="473" on="0"/>
        <pt x="316" y="460" on="0"/>
        <pt x="300" y="460" on="1"/>
        <pt x="267" y="460" on="0"/>
        <pt x="227" y="507" on="0"/>
      </contour>
      <contour>
        <pt x="62" y="187" on="1"/>
        <pt x="68" y="227" on="0"/>
        <pt x="108" y="298" on="0"/>
        <pt x="170" y="352" on="0"/>
        <pt x="247" y="384" on="0"/>
        <pt x="289" y="384" on="1"/>
        <pt x="317" y="384" on="0"/>
        <pt x="363" y="368" on="0"/>
        <pt x="398" y="344" on="0"/>
        <pt x="419" y="318" on="0"/>
        <pt x="421" y="308" on="1"/>
        <pt x="423" y="324" on="0"/>
        <pt x="432" y="358" on="0"/>
        <pt x="434" y="375" on="1"/>
        <pt x="485" y="375" on="1"/>
        <pt x="441" y="59" on="1"/>
        <pt x="516" y="59" on="1"/>
        <pt x="508" y="0" on="1"/>
        <pt x="378" y="0" on="1"/>
        <pt x="382" y="30" on="1"/>
        <pt x="384" y="38" on="0"/>
        <pt x="385" y="55" on="0"/>
        <pt x="387" y="63" on="1"/>
        <pt x="381" y="53" on="0"/>
        <pt x="354" y="29" on="0"/>
        <pt x="315" y="7" on="0"/>
        <pt x="264" y="-8" on="0"/>
        <pt x="234" y="-8" on="1"/>
        <pt x="192" y="-8" on="0"/>
        <pt x="124" y="23" on="0"/>
        <pt x="77" y="76" on="0"/>
        <pt x="56" y="147" on="0"/>
      </contour>
      <contour>
        <pt x="125" y="188" on="1"/>
        <pt x="121" y="159" on="0"/>
        <pt x="134" y="110" on="0"/>
        <pt x="166" y="74" on="0"/>
        <pt x="213" y="53" on="0"/>
        <pt x="242" y="53" on="1"/>
        <pt x="271" y="53" on="0"/>
        <pt x="324" y="74" on="0"/>
        <pt x="366" y="110" on="0"/>
        <pt x="393" y="159" on="0"/>
        <pt x="397" y="188" on="1"/>
        <pt x="401" y="216" on="0"/>
        <pt x="388" y="266" on="0"/>
        <pt x="356" y="302" on="0"/>
        <pt x="309" y="323" on="0"/>
        <pt x="280" y="323" on="1"/>
        <pt x="250" y="323" on="0"/>
        <pt x="197" y="302" on="0"/>
        <pt x="156" y="266" on="0"/>
        <pt x="129" y="216" on="0"/>
      </contour>
    </TTGlyph>
    <TTGlyph name="asciicircum" xMin="99" yMin="479" xMax="339" yMax="660">
      <contour>
        <pt x="244" y="660" on="1"/>
        <pt x="268" y="615" on="0"/>
        <pt x="315" y="524" on="0"/>
        <pt x="339" y="479" on="1"/>
        <pt x="293" y="479" on="1"/>
        <pt x="278" y="503" on="0"/>
        <pt x="248" y="551" on="0"/>
        <pt x="232" y="576" on="1"/>
        <pt x="211" y="551" on="0"/>
        <pt x="167" y="503" on="0"/>
        <pt x="145" y="479" on="1"/>
        <pt x="99" y="479" on="1"/>
        <pt x="135" y="524" on="0"/>
        <pt x="208" y="615" on="0"/>
      </contour>
    </TTGlyph>
    <TTGlyph name="asciitilde" xMin="126" yMin="452" xMax="443" yMax="549">
      <contour>
        <pt x="273" y="486" on="1"/>
        <pt x="260" y="503" on="0"/>
        <pt x="239" y="513" on="0"/>
        <pt x="225" y="513" on="1"/>
        <pt x="218" y="513" on="0"/>
        <pt x="199" y="509" on="0"/>
        <pt x="180" y="498" on="0"/>
        <pt x="165" y="479" on="0"/>
        <pt x="161" y="464" on="1"/>
        <pt x="152" y="465" on="0"/>
        <pt x="134" y="466" on="0"/>
        <pt x="126" y="467" on="1"/>
        <pt x="130" y="486" on="0"/>
        <pt x="151" y="517" on="0"/>
        <pt x="179" y="538" on="0"/>
        <pt x="211" y="549" on="0"/>
        <pt x="226" y="549" on="1"/>
        <pt x="248" y="549" on="0"/>
        <pt x="281" y="530" on="0"/>
        <pt x="295" y="514" on="1"/>
        <pt x="308" y="497" on="0"/>
        <pt x="330" y="487" on="0"/>
        <pt x="344" y="487" on="1"/>
        <pt x="351" y="487" on="0"/>
        <pt x="370" y="491" on="0"/>
        <pt x="389" y="502" on="0"/>
        <pt x="404" y="521" on="0"/>
        <pt x="408" y="536" on="1"/>
        <pt x="416" y="535" on="0"/>
        <pt x="434" y="534" on="0"/>
        <pt x="443" y="533" on="1"/>
        <pt x="439" y="513" on="0"/>
        <pt x="418" y="483" on="0"/>
        <pt x="390" y="462" on="0"/>
        <pt x="359" y="452" on="0"/>
        <pt x="344" y="452" on="1"/>
        <pt x="321" y="452" on="0"/>
        <pt x="287" y="471" on="0"/>
      </contour>
    </TTGlyph>
    <TTGlyph name="asterisk" xMin="23" yMin="434" xMax="314" yMax="720">
      <contour>
        <pt x="229" y="575" on="1"/>
        <pt x="247" y="564" on="0"/>
        <pt x="283" y="542" on="0"/>
        <pt x="300" y="531" on="1"/>
        <pt x="290" y="517" on="0"/>
        <pt x="270" y="489" on="0"/>
        <pt x="260" y="475" on="1"/>
        <pt x="243" y="486" on="0"/>
        <pt x="207" y="510" on="0"/>
        <pt x="190" y="521" on="1"/>
        <pt x="187" y="499" on="0"/>
        <pt x="180" y="456" on="0"/>
        <pt x="176" y="434" on="1"/>
        <pt x="116" y="434" on="1"/>
        <pt x="128" y="521" on="1"/>
        <pt x="108" y="510" on="0"/>
        <pt x="67" y="489" on="0"/>
        <pt x="46" y="478" on="1"/>
        <pt x="36" y="504" on="0"/>
        <pt x="23" y="533" on="1"/>
        <pt x="43" y="544" on="0"/>
        <pt x="84" y="565" on="0"/>
        <pt x="105" y="576" on="1"/>
        <pt x="88" y="587" on="0"/>
        <pt x="53" y="611" on="0"/>
        <pt x="36" y="622" on="1"/>
        <pt x="45" y="635" on="0"/>
        <pt x="63" y="660" on="0"/>
        <pt x="72" y="674" on="1"/>
        <pt x="90" y="663" on="0"/>
        <pt x="126" y="639" on="0"/>
        <pt x="144" y="628" on="1"/>
        <pt x="157" y="720" on="1"/>
        <pt x="221" y="720" on="1"/>
        <pt x="217" y="697" on="0"/>
        <pt x="210" y="651" on="0"/>
        <pt x="206" y="628" on="1"/>
        <pt x="228" y="639" on="0"/>
        <pt x="270" y="662" on="0"/>
        <pt x="292" y="673" on="1"/>
        <pt x="297" y="659" on="0"/>
        <pt x="309" y="634" on="0"/>
        <pt x="314" y="621" on="1"/>
        <pt x="293" y="610" on="0"/>
        <pt x="251" y="586" on="0"/>
      </contour>
    </TTGlyph>
    <TTGlyph name="at" xMin="62" yMin="-225" xMax="913" yMax="602">
      <contour>
        <pt x="350" y="188" on="1"/>
        <pt x="346" y="159" on="0"/>
        <pt x="359" y="110" on="0"/>
        <pt x="390" y="74" on="0"/>
        <pt x="437" y="53" on="0"/>
        <pt x="467" y="53" on="1"/>
        <pt x="496" y="53" on="0"/>
        <pt x="549" y="74" on="0"/>
        <pt x="590" y="110" on="0"/>
        <pt x="618" y="159" on="0"/>
        <pt x="622" y="188" on="1"/>
        <pt x="626" y="216" on="0"/>
        <pt x="613" y="266" on="0"/>
        <pt x="581" y="302" on="0"/>
        <pt x="534" y="323" on="0"/>
        <pt x="505" y="323" on="1"/>
        <pt x="476" y="323" on="0"/>
        <pt x="423" y="302" on="0"/>
        <pt x="382" y="266" on="0"/>
        <pt x="354" y="216" on="0"/>
      </contour>
      <contour>
        <pt x="901" y="188" on="1"/>
        <pt x="890" y="134" on="0"/>
        <pt x="845" y="61" on="0"/>
        <pt x="788" y="18" on="0"/>
        <pt x="727" y="0" on="0"/>
        <pt x="700" y="0" on="1"/>
        <pt x="603" y="0" on="1"/>
        <pt x="607" y="30" on="1"/>
        <pt x="608" y="38" on="0"/>
        <pt x="610" y="55" on="0"/>
        <pt x="612" y="63" on="1"/>
        <pt x="606" y="53" on="0"/>
        <pt x="579" y="28" on="0"/>
        <pt x="539" y="7" on="0"/>
        <pt x="488" y="-8" on="0"/>
        <pt x="458" y="-8" on="1"/>
        <pt x="416" y="-8" on="0"/>
        <pt x="348" y="23" on="0"/>
        <pt x="302" y="76" on="0"/>
        <pt x="281" y="147" on="0"/>
        <pt x="287" y="187" on="1"/>
        <pt x="293" y="227" on="0"/>
        <pt x="333" y="298" on="0"/>
        <pt x="395" y="351" on="0"/>
        <pt x="471" y="382" on="0"/>
        <pt x="513" y="382" on="1"/>
        <pt x="540" y="382" on="0"/>
        <pt x="587" y="366" on="0"/>
        <pt x="621" y="344" on="0"/>
        <pt x="643" y="318" on="0"/>
        <pt x="646" y="308" on="1"/>
        <pt x="648" y="324" on="0"/>
        <pt x="656" y="358" on="0"/>
        <pt x="660" y="375" on="1"/>
        <pt x="711" y="375" on="1"/>
        <pt x="666" y="61" on="1"/>
        <pt x="711" y="61" on="1"/>
        <pt x="755" y="61" on="0"/>
        <pt x="826" y="118" on="0"/>
        <pt x="838" y="188" on="1"/>
        <pt x="848" y="261" on="0"/>
        <pt x="812" y="390" on="0"/>
        <pt x="730" y="486" on="0"/>
        <pt x="610" y="542" on="0"/>
        <pt x="538" y="542" on="1"/>
        <pt x="465" y="542" on="0"/>
        <pt x="329" y="486" on="0"/>
        <pt x="220" y="390" on="0"/>
        <pt x="146" y="261" on="0"/>
        <pt x="136" y="188" on="1"/>
        <pt x="126" y="115" on="0"/>
        <pt x="163" y="-13" on="0"/>
        <pt x="245" y="-109" on="0"/>
        <pt x="366" y="-164" on="0"/>
        <pt x="439" y="-164" on="1"/>
        <pt x="499" y="-164" on="0"/>
        <pt x="611" y="-128" on="0"/>
        <pt x="660" y="-96" on="1"/>
        <pt x="668" y="-108" on="0"/>
        <pt x="684" y="-130" on="0"/>
        <pt x="692" y="-141" on="1"/>
        <pt x="637" y="-182" on="0"/>
        <pt x="496" y="-225" on="0"/>
        <pt x="430" y="-225" on="1"/>
        <pt x="344" y="-225" on="0"/>
        <pt x="202" y="-160" on="0"/>
        <pt x="105" y="-48" on="0"/>
        <pt x="62" y="103" on="0"/>
        <pt x="74" y="189" on="1"/>
        <pt x="86" y="275" on="0"/>
        <pt x="172" y="425" on="0"/>
        <pt x="301" y="537" on="0"/>
        <pt x="461" y="602" on="0"/>
        <pt x="547" y="602" on="1"/>
        <pt x="633" y="602" on="0"/>
        <pt x="774" y="537" on="0"/>
        <pt x="870" y="425" on="0"/>
        <pt x="913" y="274" on="0"/>
      </contour>
    </TTGlyph>
    <TTGlyph name="atilde" xMin="56" yMin="-8" xMax="516" yMax="549">
      <component glyphName="a" x="0" y="0" flags="0x204"/>
      <component glyphName="asciitilde" x="16" y="0" flags="0x4"/>
    </TTGlyph>
    <TTGlyph name="b" xMin="36" yMin="-8" xMax="540" yMax="750">
      <contour>
        <pt x="44" y="59" on="1"/>
        <pt x="119" y="59" on="1"/>
        <pt x="208" y="690" on="1"/>
        <pt x="140" y="690" on="1"/>
        <pt x="148" y="750" on="1"/>
        <pt x="278" y="750" on="1"/>
        <pt x="222" y="350" on="1"/>
        <pt x="219" y="339" on="0"/>
        <pt x="213" y="320" on="0"/>
        <pt x="209" y="310" on="1"/>
        <pt x="215" y="320" on="0"/>
        <pt x="244" y="346" on="0"/>
        <pt x="285" y="369" on="0"/>
        <pt x="336" y="384" on="0"/>
        <pt x="363" y="384" on="1"/>
        <pt x="405" y="384" on="0"/>
        <pt x="473" y="353" on="0"/>
        <pt x="519" y="299" on="0"/>
        <pt x="540" y="228" on="0"/>
        <pt x="534" y="188" on="1"/>
        <pt x="528" y="148" on="0"/>
        <pt x="488" y="77" on="0"/>
        <pt x="427" y="23" on="0"/>
        <pt x="351" y="-8" on="0"/>
        <pt x="309" y="-8" on="1"/>
        <pt x="279" y="-8" on="0"/>
        <pt x="231" y="7" on="0"/>
        <pt x="197" y="29" on="0"/>
        <pt x="177" y="53" on="0"/>
        <pt x="174" y="63" on="1"/>
        <pt x="171" y="30" on="1"/>
        <pt x="166" y="0" on="1"/>
        <pt x="36" y="0" on="1"/>
      </contour>
      <contour>
        <pt x="471" y="188" on="1"/>
        <pt x="475" y="216" on="0"/>
        <pt x="462" y="266" on="0"/>
        <pt x="431" y="302" on="0"/>
        <pt x="384" y="323" on="0"/>
        <pt x="354" y="323" on="1"/>
        <pt x="325" y="323" on="0"/>
        <pt x="272" y="302" on="0"/>
        <pt x="231" y="266" on="0"/>
        <pt x="203" y="216" on="0"/>
        <pt x="199" y="188" on="1"/>
        <pt x="195" y="159" on="0"/>
        <pt x="209" y="110" on="0"/>
        <pt x="240" y="74" on="0"/>
        <pt x="287" y="53" on="0"/>
        <pt x="317" y="53" on="1"/>
        <pt x="346" y="53" on="0"/>
        <pt x="399" y="74" on="0"/>
        <pt x="440" y="110" on="0"/>
        <pt x="467" y="159" on="0"/>
      </contour>
    </TTGlyph>
    <TTGlyph name="backslash" xMin="58" yMin="-19" xMax="299" yMax="736">
      <contour>
        <pt x="128" y="736" on="1"/>
        <pt x="171" y="546" on="0"/>
        <pt x="256" y="171" on="0"/>
        <pt x="299" y="-19" on="1"/>
        <pt x="229" y="-19" on="1"/>
        <pt x="186" y="171" on="0"/>
        <pt x="101" y="546" on="0"/>
        <pt x="58" y="736" on="1"/>
      </contour>
    </TTGlyph>
    <TTGlyph name="bar" xMin="93" yMin="-232" xMax="286" yMax="700">
      <contour>
        <pt x="93" y="-232" on="1"/>
        <pt x="223" y="700" on="1"/>
        <pt x="286" y="700" on="1"/>
        <pt x="156" y="-232" on="1"/>
      </contour>
    </TTGlyph>
    <TTGlyph name="braceleft" xMin="88" yMin="-149" xMax="399" yMax="746">
      <contour>
        <pt x="88" y="265" on="1"/>
        <pt x="98" y="329" on="1"/>
        <pt x="122" y="330" on="0"/>
        <pt x="157" y="357" on="0"/>
        <pt x="180" y="397" on="0"/>
        <pt x="193" y="444" on="0"/>
        <pt x="196" y="464" on="1"/>
        <pt x="219" y="628" on="1"/>
        <pt x="225" y="674" on="0"/>
        <pt x="250" y="723" on="0"/>
        <pt x="282" y="744" on="0"/>
        <pt x="322" y="746" on="0"/>
        <pt x="343" y="746" on="1"/>
        <pt x="399" y="746" on="1"/>
        <pt x="390" y="685" on="1"/>
        <pt x="342" y="685" on="1"/>
        <pt x="327" y="685" on="0"/>
        <pt x="305" y="676" on="0"/>
        <pt x="290" y="652" on="0"/>
        <pt x="279" y="611" on="0"/>
        <pt x="275" y="579" on="1"/>
        <pt x="256" y="444" on="1"/>
        <pt x="251" y="408" on="0"/>
        <pt x="232" y="359" on="0"/>
        <pt x="208" y="325" on="0"/>
        <pt x="182" y="305" on="0"/>
        <pt x="170" y="298" on="1"/>
        <pt x="180" y="292" on="0"/>
        <pt x="201" y="271" on="0"/>
        <pt x="215" y="237" on="0"/>
        <pt x="220" y="187" on="0"/>
        <pt x="215" y="153" on="1"/>
        <pt x="196" y="18" on="1"/>
        <pt x="188" y="-45" on="0"/>
        <pt x="203" y="-88" on="0"/>
        <pt x="234" y="-88" on="1"/>
        <pt x="282" y="-88" on="1"/>
        <pt x="273" y="-149" on="1"/>
        <pt x="217" y="-149" on="1"/>
        <pt x="195" y="-149" on="0"/>
        <pt x="156" y="-147" on="0"/>
        <pt x="130" y="-124" on="0"/>
        <pt x="120" y="-71" on="0"/>
        <pt x="127" y="-20" on="1"/>
        <pt x="148" y="130" on="1"/>
        <pt x="151" y="150" on="0"/>
        <pt x="151" y="197" on="0"/>
        <pt x="139" y="237" on="0"/>
        <pt x="112" y="264" on="0"/>
      </contour>
    </TTGlyph>
    <TTGlyph name="braceright" xMin="47" yMin="-149" xMax="358" yMax="746">
      <contour>
        <pt x="358" y="329" on="1"/>
        <pt x="348" y="265" on="1"/>
        <pt x="322" y="264" on="0"/>
        <pt x="286" y="233" on="0"/>
        <pt x="264" y="188" on="0"/>
        <pt x="252" y="138" on="0"/>
        <pt x="249" y="119" on="1"/>
        <pt x="228" y="-31" on="1"/>
        <pt x="222" y="-77" on="0"/>
        <pt x="197" y="-126" on="0"/>
        <pt x="164" y="-147" on="0"/>
        <pt x="124" y="-149" on="0"/>
        <pt x="103" y="-149" on="1"/>
        <pt x="47" y="-149" on="1"/>
        <pt x="56" y="-88" on="1"/>
        <pt x="104" y="-88" on="1"/>
        <pt x="119" y="-88" on="0"/>
        <pt x="141" y="-79" on="0"/>
        <pt x="156" y="-55" on="0"/>
        <pt x="166" y="-14" on="0"/>
        <pt x="171" y="18" on="1"/>
        <pt x="191" y="164" on="1"/>
        <pt x="196" y="195" on="0"/>
        <pt x="216" y="241" on="0"/>
        <pt x="240" y="273" on="0"/>
        <pt x="266" y="292" on="0"/>
        <pt x="276" y="298" on="1"/>
        <pt x="266" y="305" on="0"/>
        <pt x="246" y="325" on="0"/>
        <pt x="232" y="359" on="0"/>
        <pt x="226" y="408" on="0"/>
        <pt x="231" y="444" on="1"/>
        <pt x="250" y="579" on="1"/>
        <pt x="254" y="611" on="0"/>
        <pt x="255" y="652" on="0"/>
        <pt x="247" y="676" on="0"/>
        <pt x="228" y="685" on="0"/>
        <pt x="213" y="685" on="1"/>
        <pt x="165" y="685" on="1"/>
        <pt x="173" y="746" on="1"/>
        <pt x="229" y="746" on="1"/>
        <pt x="250" y="746" on="0"/>
        <pt x="289" y="744" on="0"/>
        <pt x="316" y="723" on="0"/>
        <pt x="327" y="674" on="0"/>
        <pt x="321" y="628" on="1"/>
        <pt x="299" y="475" on="1"/>
        <pt x="296" y="455" on="0"/>
        <pt x="294" y="406" on="0"/>
        <pt x="305" y="361" on="0"/>
        <pt x="332" y="330" on="0"/>
      </contour>
    </TTGlyph>
    <TTGlyph name="bracketleft" xMin="20" yMin="-149" xMax="328" yMax="746">
      <contour>
        <pt x="20" y="-149" on="1"/>
        <pt x="145" y="746" on="1"/>
        <pt x="328" y="746" on="1"/>
        <pt x="320" y="685" on="1"/>
        <pt x="200" y="685" on="1"/>
        <pt x="91" y="-88" on="1"/>
        <pt x="212" y="-88" on="1"/>
        <pt x="203" y="-149" on="1"/>
      </contour>
    </TTGlyph>
    <TTGlyph name="bracketright" xMin="5" yMin="-149" xMax="313" yMax="746">
      <contour>
        <pt x="313" y="746" on="1"/>
        <pt x="188" y="-149" on="1"/>
        <pt x="5" y="-149" on="1"/>
        <pt x="13" y="-88" on="1"/>
        <pt x="133" y="-88" on="1"/>
        <pt x="242" y="685" on="1"/>
        <pt x="121" y="685" on="1"/>
        <pt x="130" y="746" on="1"/>
      </contour>
    </TTGlyph>
    <TTGlyph name="brokenbar" xMin="79" yMin="-233" xMax="273" yMax="700">
      <contour>
        <pt x="142" y="-233" on="1"/>
        <pt x="79" y="-233" on="1"/>
        <pt x="128" y="117" on="1"/>
        <pt x="191" y="117" on="1"/>
      </contour>
      <contour>
        <pt x="223" y="350" on="1"/>
        <pt x="160" y="350" on="1"/>
        <pt x="210" y="700" on="1"/>
        <pt x="273" y="700" on="1"/>
      </contour>
    </TTGlyph>
    <TTGlyph name="bullet" xMin="143" yMin="192" xMax="369" yMax="409">
      <contour>
        <pt x="146" y="300" on="1"/>
        <pt x="149" y="323" on="0"/>
        <pt x="171" y="363" on="0"/>
        <pt x="205" y="392" on="0"/>
        <pt x="246" y="409" on="0"/>
        <pt x="269" y="409" on="1"/>
        <pt x="315" y="409" on="0"/>
        <pt x="369" y="346" on="0"/>
        <pt x="363" y="300" on="1"/>
        <pt x="360" y="277" on="0"/>
        <pt x="337" y="238" on="0"/>
        <pt x="304" y="209" on="0"/>
        <pt x="262" y="192" on="0"/>
        <pt x="239" y="192" on="1"/>
        <pt x="216" y="192" on="0"/>
        <pt x="179" y="209" on="0"/>
        <pt x="154" y="238" on="0"/>
        <pt x="143" y="277" on="0"/>
      </contour>
    </TTGlyph>
    <TTGlyph name="c" xMin="56" yMin="-8" xMax="408" yMax="384">
      <contour>
        <pt x="364" y="35" on="1"/>
        <pt x="335" y="15" on="0"/>
        <pt x="269" y="-8" on="0"/>
        <pt x="233" y="-8" on="1"/>
        <pt x="192" y="-8" on="0"/>
        <pt x="124" y="23" on="0"/>
        <pt x="77" y="76" on="0"/>
        <pt x="56" y="147" on="0"/>
        <pt x="62" y="188" on="1"/>
        <pt x="68" y="228" on="0"/>
        <pt x="109" y="300" on="0"/>
        <pt x="170" y="353" on="0"/>
        <pt x="247" y="384" on="0"/>
        <pt x="288" y="384" on="1"/>
        <pt x="324" y="384" on="0"/>
        <pt x="385" y="361" on="0"/>
        <pt x="408" y="341" on="1"/>
        <pt x="392" y="233" on="1"/>
        <pt x="336" y="233" on="1"/>
        <pt x="346" y="304" on="1"/>
        <pt x="317" y="323" on="0"/>
        <pt x="279" y="323" on="1"/>
        <pt x="250" y="323" on="0"/>
        <pt x="197" y="302" on="0"/>
        <pt x="156" y="266" on="0"/>
        <pt x="128" y="216" on="0"/>
        <pt x="124" y="188" on="1"/>
        <pt x="120" y="159" on="0"/>
        <pt x="134" y="110" on="0"/>
        <pt x="165" y="74" on="0"/>
        <pt x="212" y="53" on="0"/>
        <pt x="241" y="53" on="1"/>
        <pt x="267" y="53" on="0"/>
        <pt x="312" y="68" on="0"/>
        <pt x="331" y="82" on="1"/>
      </contour>
    </TTGlyph>
    <TTGlyph name="ccedilla" xMin="47" yMin="-241" xMax="397" yMax="384">
      <contour>
        <pt x="322" y="82" on="1"/>
        <pt x="353" y="35" on="1"/>
        <pt x="342" y="27" on="0"/>
        <pt x="309" y="11" on="0"/>
        <pt x="273" y="-2" on="0"/>
        <pt x="237" y="-10" on="0"/>
        <pt x="225" y="-9" on="1"/>
        <pt x="223" y="-23" on="0"/>
        <pt x="228" y="-39" on="0"/>
        <pt x="239" y="-49" on="0"/>
        <pt x="253" y="-57" on="0"/>
        <pt x="259" y="-61" on="1"/>
        <pt x="279" y="-77" on="0"/>
        <pt x="290" y="-116" on="0"/>
        <pt x="287" y="-138" on="1"/>
        <pt x="282" y="-176" on="0"/>
        <pt x="236" y="-230" on="0"/>
        <pt x="201" y="-238" on="1"/>
        <pt x="192" y="-240" on="0"/>
        <pt x="174" y="-241" on="0"/>
        <pt x="164" y="-240" on="1"/>
        <pt x="136" y="-238" on="0"/>
        <pt x="93" y="-205" on="0"/>
        <pt x="86" y="-172" on="1"/>
        <pt x="126" y="-154" on="1"/>
        <pt x="129" y="-171" on="0"/>
        <pt x="155" y="-194" on="0"/>
        <pt x="176" y="-194" on="1"/>
        <pt x="202" y="-194" on="0"/>
        <pt x="236" y="-160" on="0"/>
        <pt x="241" y="-134" on="1"/>
        <pt x="244" y="-112" on="0"/>
        <pt x="224" y="-86" on="0"/>
        <pt x="199" y="-67" on="0"/>
        <pt x="179" y="-47" on="0"/>
        <pt x="182" y="-29" on="1"/>
        <pt x="185" y="-3" on="1"/>
        <pt x="152" y="3" on="0"/>
        <pt x="98" y="37" on="0"/>
        <pt x="62" y="88" on="0"/>
        <pt x="47" y="152" on="0"/>
        <pt x="52" y="188" on="1"/>
        <pt x="58" y="228" on="0"/>
        <pt x="98" y="300" on="0"/>
        <pt x="159" y="353" on="0"/>
        <pt x="236" y="384" on="0"/>
        <pt x="277" y="384" on="1"/>
        <pt x="314" y="384" on="0"/>
        <pt x="374" y="361" on="0"/>
        <pt x="397" y="341" on="1"/>
        <pt x="382" y="233" on="1"/>
        <pt x="326" y="233" on="1"/>
        <pt x="335" y="304" on="1"/>
        <pt x="321" y="313" on="0"/>
        <pt x="289" y="323" on="0"/>
        <pt x="269" y="323" on="1"/>
        <pt x="240" y="323" on="0"/>
        <pt x="187" y="302" on="0"/>
        <pt x="146" y="266" on="0"/>
        <pt x="118" y="216" on="0"/>
        <pt x="114" y="188" on="1"/>
        <pt x="110" y="159" on="0"/>
        <pt x="123" y="110" on="0"/>
        <pt x="154" y="74" on="0"/>
        <pt x="201" y="53" on="0"/>
        <pt x="231" y="53" on="1"/>
        <pt x="256" y="53" on="0"/>
        <pt x="302" y="68" on="0"/>
      </contour>
    </TTGlyph>
    <TTGlyph name="cedilla" xMin="121" yMin="-242" xMax="325" yMax="0">
      <contour>
        <pt x="220" y="0" on="1"/>
        <pt x="260" y="0" on="1"/>
        <pt x="259" y="-7" on="1"/>
        <pt x="257" y="-21" on="0"/>
        <pt x="263" y="-38" on="0"/>
        <pt x="274" y="-49" on="0"/>
        <pt x="287" y="-57" on="0"/>
        <pt x="293" y="-61" on="1"/>
        <pt x="313" y="-77" on="0"/>
        <pt x="325" y="-116" on="0"/>
        <pt x="322" y="-138" on="1"/>
        <pt x="315" y="-183" on="0"/>
        <pt x="255" y="-242" on="0"/>
        <pt x="209" y="-242" on="1"/>
        <pt x="177" y="-242" on="0"/>
        <pt x="128" y="-207" on="0"/>
        <pt x="121" y="-172" on="1"/>
        <pt x="160" y="-154" on="1"/>
        <pt x="163" y="-171" on="0"/>
        <pt x="189" y="-194" on="0"/>
        <pt x="210" y="-194" on="1"/>
        <pt x="236" y="-194" on="0"/>
        <pt x="271" y="-160" on="0"/>
        <pt x="275" y="-134" on="1"/>
        <pt x="278" y="-112" on="0"/>
        <pt x="259" y="-86" on="0"/>
        <pt x="234" y="-67" on="0"/>
        <pt x="214" y="-47" on="0"/>
        <pt x="216" y="-29" on="1"/>
      </contour>
    </TTGlyph>
    <TTGlyph name="cent" xMin="66" yMin="-68" xMax="417" yMax="438">
      <contour>
        <pt x="341" y="82" on="1"/>
        <pt x="373" y="35" on="1"/>
        <pt x="324" y="0" on="0"/>
        <pt x="261" y="-7" on="1"/>
        <pt x="253" y="-68" on="1"/>
        <pt x="190" y="-68" on="1"/>
        <pt x="198" y="-2" on="1"/>
        <pt x="166" y="5" on="0"/>
        <pt x="114" y="40" on="0"/>
        <pt x="80" y="90" on="0"/>
        <pt x="66" y="153" on="0"/>
        <pt x="71" y="188" on="1"/>
        <pt x="76" y="222" on="0"/>
        <pt x="109" y="285" on="0"/>
        <pt x="157" y="336" on="0"/>
        <pt x="218" y="371" on="0"/>
        <pt x="252" y="378" on="1"/>
        <pt x="261" y="438" on="1"/>
        <pt x="324" y="438" on="1"/>
        <pt x="316" y="382" on="1"/>
        <pt x="346" y="380" on="0"/>
        <pt x="397" y="358" on="0"/>
        <pt x="417" y="341" on="1"/>
        <pt x="416" y="340" on="0"/>
        <pt x="416" y="340" on="1"/>
        <pt x="413" y="319" on="1"/>
        <pt x="401" y="233" on="1"/>
        <pt x="345" y="233" on="1"/>
        <pt x="355" y="304" on="1"/>
        <pt x="345" y="312" on="0"/>
        <pt x="321" y="319" on="0"/>
        <pt x="307" y="321" on="1"/>
        <pt x="269" y="54" on="1"/>
        <pt x="308" y="59" on="0"/>
      </contour>
      <contour>
        <pt x="133" y="188" on="1"/>
        <pt x="127" y="143" on="0"/>
        <pt x="169" y="74" on="0"/>
        <pt x="207" y="62" on="1"/>
        <pt x="243" y="313" on="1"/>
        <pt x="201" y="301" on="0"/>
        <pt x="140" y="233" on="0"/>
      </contour>
    </TTGlyph>
    <TTGlyph name="colon" xMin="22" yMin="0" xMax="146" yMax="335">
      <contour>
        <pt x="60" y="292" on="1"/>
        <pt x="62" y="311" on="0"/>
        <pt x="91" y="335" on="0"/>
        <pt x="108" y="335" on="1"/>
        <pt x="124" y="335" on="0"/>
        <pt x="146" y="311" on="0"/>
        <pt x="144" y="292" on="1"/>
        <pt x="142" y="273" on="0"/>
        <pt x="112" y="250" on="0"/>
        <pt x="96" y="250" on="1"/>
        <pt x="80" y="250" on="0"/>
        <pt x="57" y="273" on="0"/>
      </contour>
      <contour>
        <pt x="25" y="42" on="1"/>
        <pt x="27" y="61" on="0"/>
        <pt x="56" y="85" on="0"/>
        <pt x="73" y="85" on="1"/>
        <pt x="89" y="85" on="0"/>
        <pt x="111" y="61" on="0"/>
        <pt x="109" y="42" on="1"/>
        <pt x="106" y="23" on="0"/>
        <pt x="77" y="0" on="0"/>
        <pt x="61" y="0" on="1"/>
        <pt x="45" y="0" on="0"/>
        <pt x="22" y="23" on="0"/>
      </contour>
    </TTGlyph>
    <TTGlyph name="comma" xMin="-5" yMin="-120" xMax="166" yMax="86">
      <contour>
        <pt x="166" y="86" on="1"/>
        <pt x="137" y="34" on="0"/>
        <pt x="80" y="-68" on="0"/>
        <pt x="51" y="-120" on="1"/>
        <pt x="-5" y="-120" on="1"/>
        <pt x="21" y="-68" on="0"/>
        <pt x="73" y="34" on="0"/>
        <pt x="100" y="86" on="1"/>
      </contour>
    </TTGlyph>
    <TTGlyph name="copyright" xMin="167" yMin="113" xMax="704" yMax="632">
      <contour>
        <pt x="403" y="143" on="1"/>
        <pt x="451" y="143" on="0"/>
        <pt x="540" y="178" on="0"/>
        <pt x="610" y="239" on="0"/>
        <pt x="657" y="323" on="0"/>
        <pt x="664" y="372" on="1"/>
        <pt x="671" y="422" on="0"/>
        <pt x="648" y="506" on="0"/>
        <pt x="595" y="568" on="0"/>
        <pt x="516" y="602" on="0"/>
        <pt x="468" y="602" on="1"/>
        <pt x="420" y="602" on="0"/>
        <pt x="332" y="568" on="0"/>
        <pt x="261" y="506" on="0"/>
        <pt x="214" y="422" on="0"/>
        <pt x="207" y="372" on="1"/>
        <pt x="200" y="323" on="0"/>
        <pt x="224" y="239" on="0"/>
        <pt x="277" y="178" on="0"/>
        <pt x="355" y="143" on="0"/>
      </contour>
      <contour>
        <pt x="400" y="113" on="1"/>
        <pt x="346" y="113" on="0"/>
        <pt x="256" y="152" on="0"/>
        <pt x="195" y="222" on="0"/>
        <pt x="167" y="316" on="0"/>
        <pt x="175" y="372" on="1"/>
        <pt x="183" y="428" on="0"/>
        <pt x="237" y="524" on="0"/>
        <pt x="318" y="593" on="0"/>
        <pt x="418" y="632" on="0"/>
        <pt x="472" y="632" on="1"/>
        <pt x="526" y="632" on="0"/>
        <pt x="615" y="593" on="0"/>
        <pt x="676" y="524" on="0"/>
        <pt x="704" y="428" on="0"/>
        <pt x="696" y="372" on="1"/>
        <pt x="688" y="316" on="0"/>
        <pt x="635" y="222" on="0"/>
        <pt x="554" y="152" on="0"/>
        <pt x="454" y="113" on="0"/>
      </contour>
      <contour>
        <pt x="508" y="464" on="1"/>
        <pt x="513" y="498" on="1"/>
        <pt x="490" y="510" on="0"/>
        <pt x="460" y="510" on="1"/>
        <pt x="432" y="510" on="0"/>
        <pt x="381" y="489" on="0"/>
        <pt x="339" y="452" on="0"/>
        <pt x="311" y="403" on="0"/>
        <pt x="307" y="375" on="1"/>
        <pt x="303" y="347" on="0"/>
        <pt x="317" y="298" on="0"/>
        <pt x="348" y="261" on="0"/>
        <pt x="394" y="240" on="0"/>
        <pt x="421" y="240" on="1"/>
        <pt x="456" y="240" on="0"/>
        <pt x="491" y="259" on="1"/>
        <pt x="504" y="236" on="1"/>
        <pt x="484" y="225" on="0"/>
        <pt x="441" y="213" on="0"/>
        <pt x="418" y="213" on="1"/>
        <pt x="385" y="213" on="0"/>
        <pt x="329" y="239" on="0"/>
        <pt x="292" y="283" on="0"/>
        <pt x="274" y="342" on="0"/>
        <pt x="279" y="375" on="1"/>
        <pt x="284" y="409" on="0"/>
        <pt x="318" y="468" on="0"/>
        <pt x="367" y="512" on="0"/>
        <pt x="430" y="537" on="0"/>
        <pt x="463" y="537" on="1"/>
        <pt x="508" y="537" on="0"/>
        <pt x="543" y="515" on="1"/>
        <pt x="536" y="464" on="1"/>
      </contour>
    </TTGlyph>
    <TTGlyph name="currency" xMin="98" yMin="203" xMax="439" yMax="514">
      <contour>
        <pt x="180" y="360" on="1"/>
        <pt x="175" y="323" on="0"/>
        <pt x="220" y="271" on="0"/>
        <pt x="257" y="271" on="1"/>
        <pt x="295" y="271" on="0"/>
        <pt x="354" y="323" on="0"/>
        <pt x="359" y="360" on="1"/>
        <pt x="365" y="398" on="0"/>
        <pt x="320" y="451" on="0"/>
        <pt x="282" y="451" on="1"/>
        <pt x="264" y="451" on="0"/>
        <pt x="229" y="437" on="0"/>
        <pt x="201" y="412" on="0"/>
        <pt x="183" y="379" on="0"/>
      </contour>
      <contour>
        <pt x="117" y="361" on="1"/>
        <pt x="123" y="404" on="0"/>
        <pt x="153" y="442" on="1"/>
        <pt x="147" y="449" on="0"/>
        <pt x="135" y="462" on="0"/>
        <pt x="129" y="470" on="1"/>
        <pt x="179" y="514" on="1"/>
        <pt x="204" y="486" on="1"/>
        <pt x="224" y="497" on="0"/>
        <pt x="267" y="511" on="0"/>
        <pt x="290" y="511" on="1"/>
        <pt x="336" y="511" on="0"/>
        <pt x="369" y="486" on="1"/>
        <pt x="401" y="514" on="1"/>
        <pt x="439" y="470" on="1"/>
        <pt x="409" y="443" on="1"/>
        <pt x="430" y="405" on="0"/>
        <pt x="422" y="361" on="1"/>
        <pt x="419" y="337" on="0"/>
        <pt x="399" y="295" on="0"/>
        <pt x="384" y="277" on="1"/>
        <pt x="409" y="248" on="1"/>
        <pt x="359" y="204" on="1"/>
        <pt x="332" y="234" on="1"/>
        <pt x="294" y="210" on="0"/>
        <pt x="247" y="210" on="1"/>
        <pt x="202" y="210" on="0"/>
        <pt x="170" y="233" on="1"/>
        <pt x="136" y="203" on="1"/>
        <pt x="98" y="247" on="1"/>
        <pt x="131" y="276" on="1"/>
        <pt x="121" y="294" on="0"/>
        <pt x="113" y="337" on="0"/>
      </contour>
    </TTGlyph>
    <TTGlyph name="d" xMin="56" yMin="-8" xMax="538" yMax="750">
      <contour>
        <pt x="382" y="30" on="1"/>
        <pt x="384" y="38" on="0"/>
        <pt x="385" y="55" on="0"/>
        <pt x="387" y="63" on="1"/>
        <pt x="381" y="53" on="0"/>
        <pt x="354" y="29" on="0"/>
        <pt x="315" y="7" on="0"/>
        <pt x="264" y="-8" on="0"/>
        <pt x="234" y="-8" on="1"/>
        <pt x="192" y="-8" on="0"/>
        <pt x="124" y="23" on="0"/>
        <pt x="77" y="77" on="0"/>
        <pt x="56" y="148" on="0"/>
        <pt x="62" y="188" on="1"/>
        <pt x="68" y="228" on="0"/>
        <pt x="108" y="299" on="0"/>
        <pt x="170" y="353" on="0"/>
        <pt x="247" y="384" on="0"/>
        <pt x="289" y="384" on="1"/>
        <pt x="316" y="384" on="0"/>
        <pt x="362" y="369" on="0"/>
        <pt x="397" y="346" on="0"/>
        <pt x="418" y="320" on="0"/>
        <pt x="421" y="310" on="1"/>
        <pt x="422" y="324" on="0"/>
        <pt x="422" y="352" on="0"/>
        <pt x="423" y="367" on="1"/>
        <pt x="468" y="690" on="1"/>
        <pt x="400" y="690" on="1"/>
        <pt x="408" y="750" on="1"/>
        <pt x="538" y="750" on="1"/>
        <pt x="441" y="59" on="1"/>
        <pt x="516" y="59" on="1"/>
        <pt x="508" y="0" on="1"/>
        <pt x="378" y="0" on="1"/>
      </contour>
      <contour>
        <pt x="125" y="188" on="1"/>
        <pt x="121" y="159" on="0"/>
        <pt x="134" y="110" on="0"/>
        <pt x="166" y="74" on="0"/>
        <pt x="213" y="53" on="0"/>
        <pt x="242" y="53" on="1"/>
        <pt x="271" y="53" on="0"/>
        <pt x="324" y="74" on="0"/>
        <pt x="366" y="110" on="0"/>
        <pt x="393" y="159" on="0"/>
        <pt x="397" y="188" on="1"/>
        <pt x="401" y="216" on="0"/>
        <pt x="388" y="266" on="0"/>
        <pt x="356" y="302" on="0"/>
        <pt x="309" y="323" on="0"/>
        <pt x="280" y="323" on="1"/>
        <pt x="250" y="323" on="0"/>
        <pt x="197" y="302" on="0"/>
        <pt x="156" y="266" on="0"/>
        <pt x="129" y="216" on="0"/>
      </contour>
    </TTGlyph>
    <TTGlyph name="degree" xMin="51" yMin="467" xMax="246" yMax="653">
      <contour>
        <pt x="143" y="507" on="1"/>
        <pt x="165" y="507" on="0"/>
        <pt x="200" y="537" on="0"/>
        <pt x="203" y="559" on="1"/>
        <pt x="206" y="582" on="0"/>
        <pt x="180" y="612" on="0"/>
        <pt x="158" y="612" on="1"/>
        <pt x="135" y="612" on="0"/>
        <pt x="101" y="582" on="0"/>
        <pt x="98" y="559" on="1"/>
        <pt x="95" y="537" on="0"/>
        <pt x="121" y="507" on="0"/>
      </contour>
      <contour>
        <pt x="56" y="560" on="1"/>
        <pt x="59" y="579" on="0"/>
        <pt x="78" y="613" on="0"/>
        <pt x="107" y="639" on="0"/>
        <pt x="144" y="653" on="0"/>
        <pt x="164" y="653" on="1"/>
        <pt x="183" y="653" on="0"/>
        <pt x="215" y="639" on="0"/>
        <pt x="236" y="613" on="0"/>
        <pt x="246" y="579" on="0"/>
        <pt x="244" y="560" on="1"/>
        <pt x="241" y="540" on="0"/>
        <pt x="221" y="507" on="0"/>
        <pt x="193" y="481" on="0"/>
        <pt x="157" y="467" on="0"/>
        <pt x="138" y="467" on="1"/>
        <pt x="98" y="467" on="0"/>
        <pt x="51" y="521" on="0"/>
      </contour>
    </TTGlyph>
    <TTGlyph name="dieresis" xMin="62" yMin="472" xMax="317" yMax="557">
      <contour>
        <pt x="230" y="514" on="1"/>
        <pt x="232" y="532" on="0"/>
        <pt x="262" y="557" on="0"/>
        <pt x="278" y="557" on="1"/>
        <pt x="294" y="557" on="0"/>
        <pt x="317" y="532" on="0"/>
        <pt x="314" y="514" on="1"/>
        <pt x="311" y="495" on="0"/>
        <pt x="283" y="472" on="0"/>
        <pt x="267" y="472" on="1"/>
        <pt x="250" y="472" on="0"/>
        <pt x="227" y="495" on="0"/>
      </contour>
      <contour>
        <pt x="64" y="514" on="1"/>
        <pt x="67" y="532" on="0"/>
        <pt x="96" y="557" on="0"/>
        <pt x="113" y="557" on="1"/>
        <pt x="128" y="557" on="0"/>
        <pt x="151" y="532" on="0"/>
        <pt x="148" y="514" on="1"/>
        <pt x="146" y="495" on="0"/>
        <pt x="117" y="472" on="0"/>
        <pt x="101" y="472" on="1"/>
        <pt x="85" y="472" on="0"/>
        <pt x="62" y="495" on="0"/>
      </contour>
    </TTGlyph>
    <TTGlyph name="divide" xMin="68" yMin="71" xMax="436" yMax="406">
      <contour>
        <pt x="428" y="207" on="1"/>
        <pt x="68" y="207" on="1"/>
        <pt x="76" y="268" on="1"/>
        <pt x="436" y="268" on="1"/>
      </contour>
      <contour>
        <pt x="226" y="363" on="1"/>
        <pt x="228" y="382" on="0"/>
        <pt x="257" y="406" on="0"/>
        <pt x="274" y="406" on="1"/>
        <pt x="290" y="406" on="0"/>
        <pt x="312" y="382" on="0"/>
        <pt x="310" y="363" on="1"/>
        <pt x="308" y="344" on="0"/>
        <pt x="278" y="321" on="0"/>
        <pt x="262" y="321" on="1"/>
        <pt x="246" y="321" on="0"/>
        <pt x="223" y="344" on="0"/>
      </contour>
      <contour>
        <pt x="191" y="113" on="1"/>
        <pt x="193" y="132" on="0"/>
        <pt x="222" y="156" on="0"/>
        <pt x="239" y="156" on="1"/>
        <pt x="255" y="156" on="0"/>
        <pt x="277" y="132" on="0"/>
        <pt x="275" y="113" on="1"/>
        <pt x="272" y="94" on="0"/>
        <pt x="243" y="71" on="0"/>
        <pt x="227" y="71" on="1"/>
        <pt x="211" y="71" on="0"/>
        <pt x="188" y="94" on="0"/>
      </contour>
    </TTGlyph>
    <TTGlyph name="dollar" xMin="-8" yMin="-68" xMax="454" yMax="764">
      <contour>
        <pt x="380" y="546" on="1"/>
        <pt x="391" y="619" on="1"/>
        <pt x="377" y="628" on="0"/>
        <pt x="337" y="641" on="0"/>
        <pt x="311" y="643" on="1"/>
        <pt x="276" y="393" on="1"/>
        <pt x="308" y="382" on="0"/>
        <pt x="371" y="355" on="0"/>
        <pt x="417" y="310" on="0"/>
        <pt x="440" y="240" on="0"/>
        <pt x="433" y="187" on="1"/>
        <pt x="428" y="145" on="0"/>
        <pt x="389" y="77" on="0"/>
        <pt x="331" y="27" on="0"/>
        <pt x="259" y="-4" on="0"/>
        <pt x="220" y="-7" on="1"/>
        <pt x="211" y="-68" on="1"/>
        <pt x="148" y="-68" on="1"/>
        <pt x="157" y="-5" on="1"/>
        <pt x="93" y="2" on="0"/>
        <pt x="8" y="56" on="0"/>
        <pt x="-8" y="84" on="1"/>
        <pt x="7" y="195" on="1"/>
        <pt x="66" y="195" on="1"/>
        <pt x="53" y="106" on="1"/>
        <pt x="73" y="87" on="0"/>
        <pt x="127" y="59" on="0"/>
        <pt x="165" y="54" on="1"/>
        <pt x="207" y="350" on="1"/>
        <pt x="179" y="359" on="0"/>
        <pt x="128" y="383" on="0"/>
        <pt x="91" y="420" on="0"/>
        <pt x="72" y="475" on="0"/>
        <pt x="77" y="517" on="1"/>
        <pt x="80" y="547" on="0"/>
        <pt x="104" y="607" on="0"/>
        <pt x="149" y="659" on="0"/>
        <pt x="213" y="695" on="0"/>
        <pt x="257" y="701" on="1"/>
        <pt x="265" y="764" on="1"/>
        <pt x="328" y="764" on="1"/>
        <pt x="319" y="703" on="1"/>
        <pt x="351" y="700" on="0"/>
        <pt x="423" y="678" on="0"/>
        <pt x="454" y="649" on="1"/>
        <pt x="440" y="546" on="1"/>
      </contour>
      <contour>
        <pt x="371" y="186" on="1"/>
        <pt x="376" y="220" on="0"/>
        <pt x="362" y="267" on="0"/>
        <pt x="332" y="300" on="0"/>
        <pt x="290" y="322" on="0"/>
        <pt x="267" y="330" on="1"/>
        <pt x="228" y="54" on="1"/>
        <pt x="254" y="58" on="0"/>
        <pt x="302" y="79" on="0"/>
        <pt x="341" y="112" on="0"/>
        <pt x="367" y="158" on="0"/>
      </contour>
      <contour>
        <pt x="140" y="519" on="1"/>
        <pt x="137" y="496" on="0"/>
        <pt x="146" y="463" on="0"/>
        <pt x="167" y="439" on="0"/>
        <pt x="198" y="421" on="0"/>
        <pt x="216" y="414" on="1"/>
        <pt x="248" y="638" on="1"/>
        <pt x="200" y="629" on="0"/>
        <pt x="145" y="561" on="0"/>
      </contour>
    </TTGlyph>
    <TTGlyph name="e" xMin="56" yMin="-8" xMax="440" yMax="384">
      <contour>
        <pt x="279" y="323" on="1"/>
        <pt x="248" y="323" on="0"/>
        <pt x="193" y="299" on="0"/>
        <pt x="151" y="259" on="0"/>
        <pt x="126" y="207" on="0"/>
        <pt x="125" y="178" on="1"/>
        <pt x="185" y="200" on="0"/>
        <pt x="305" y="243" on="0"/>
        <pt x="365" y="265" on="1"/>
        <pt x="353" y="291" on="0"/>
        <pt x="308" y="323" on="0"/>
      </contour>
      <contour>
        <pt x="440" y="230" on="1"/>
        <pt x="363" y="202" on="0"/>
        <pt x="210" y="147" on="0"/>
        <pt x="133" y="119" on="1"/>
        <pt x="146" y="89" on="0"/>
        <pt x="202" y="53" on="0"/>
        <pt x="241" y="53" on="1"/>
        <pt x="268" y="53" on="0"/>
        <pt x="317" y="73" on="0"/>
        <pt x="336" y="90" on="1"/>
        <pt x="345" y="79" on="0"/>
        <pt x="361" y="56" on="0"/>
        <pt x="369" y="45" on="1"/>
        <pt x="340" y="20" on="0"/>
        <pt x="271" y="-8" on="0"/>
        <pt x="233" y="-8" on="1"/>
        <pt x="192" y="-8" on="0"/>
        <pt x="124" y="23" on="0"/>
        <pt x="77" y="76" on="0"/>
        <pt x="56" y="147" on="0"/>
        <pt x="62" y="188" on="1"/>
        <pt x="68" y="228" on="0"/>
        <pt x="109" y="300" on="0"/>
        <pt x="170" y="353" on="0"/>
        <pt x="247" y="384" on="0"/>
        <pt x="288" y="384" on="1"/>
        <pt x="350" y="384" on="0"/>
        <pt x="431" y="297" on="0"/>
      </contour>
    </TTGlyph>
    <TTGlyph name="eacute" xMin="56" yMin="-8" xMax="441" yMax="612">
      <component glyphName="e" x="0" y="0" flags="0x204"/>
      <component glyphName="acute" x="169" y="0" flags="0x4"/>
    </TTGlyph>
    <TTGlyph name="ecircumflex" xMin="56" yMin="-8" xMax="440" yMax="660">
      <component glyphName="e" x="0" y="0" flags="0x204"/>
      <component glyphName="asciicircum" x="83" y="0" flags="0x4"/>
    </TTGlyph>
    <TTGlyph name="edieresis" xMin="56" yMin="-8" xMax="440" yMax="557">
      <component glyphName="e" x="0" y="0" flags="0x204"/>
      <component glyphName="dieresis" x="86" y="0" flags="0x4"/>
    </TTGlyph>
    <TTGlyph name="egrave" xMin="56" yMin="-8" xMax="440" yMax="612">
      <component glyphName="e" x="0" y="0" flags="0x204"/>
      <component glyphName="grave" x="189" y="0" flags="0x4"/>
    </TTGlyph>
    <TTGlyph name="eight" xMin="17" yMin="-8" xMax="460" yMax="658">
      <contour>
        <pt x="187" y="502" on="1"/>
        <pt x="182" y="465" on="0"/>
        <pt x="228" y="416" on="0"/>
        <pt x="266" y="416" on="1"/>
        <pt x="305" y="416" on="0"/>
        <pt x="365" y="465" on="0"/>
        <pt x="370" y="502" on="1"/>
        <pt x="373" y="521" on="0"/>
        <pt x="364" y="556" on="0"/>
        <pt x="343" y="582" on="0"/>
        <pt x="311" y="597" on="0"/>
        <pt x="292" y="597" on="1"/>
        <pt x="273" y="597" on="0"/>
        <pt x="237" y="582" on="0"/>
        <pt x="209" y="556" on="0"/>
        <pt x="190" y="521" on="0"/>
      </contour>
      <contour>
        <pt x="88" y="205" on="1"/>
        <pt x="84" y="174" on="0"/>
        <pt x="99" y="119" on="0"/>
        <pt x="133" y="77" on="0"/>
        <pt x="183" y="53" on="0"/>
        <pt x="214" y="53" on="1"/>
        <pt x="245" y="53" on="0"/>
        <pt x="305" y="77" on="0"/>
        <pt x="352" y="119" on="0"/>
        <pt x="384" y="174" on="0"/>
        <pt x="388" y="205" on="1"/>
        <pt x="392" y="235" on="0"/>
        <pt x="377" y="289" on="0"/>
        <pt x="342" y="329" on="0"/>
        <pt x="291" y="353" on="0"/>
        <pt x="260" y="354" on="1"/>
        <pt x="228" y="354" on="0"/>
        <pt x="169" y="330" on="0"/>
        <pt x="123" y="290" on="0"/>
        <pt x="92" y="236" on="0"/>
      </contour>
      <contour>
        <pt x="23" y="205" on="1"/>
        <pt x="32" y="267" on="0"/>
        <pt x="111" y="365" on="0"/>
        <pt x="166" y="390" on="1"/>
        <pt x="142" y="409" on="0"/>
        <pt x="119" y="468" on="0"/>
        <pt x="124" y="504" on="1"/>
        <pt x="128" y="536" on="0"/>
        <pt x="160" y="592" on="0"/>
        <pt x="208" y="634" on="0"/>
        <pt x="267" y="658" on="0"/>
        <pt x="299" y="658" on="1"/>
        <pt x="331" y="658" on="0"/>
        <pt x="384" y="633" on="0"/>
        <pt x="420" y="591" on="0"/>
        <pt x="436" y="535" on="0"/>
        <pt x="432" y="503" on="1"/>
        <pt x="427" y="468" on="0"/>
        <pt x="387" y="409" on="0"/>
        <pt x="358" y="390" on="1"/>
        <pt x="407" y="365" on="0"/>
        <pt x="460" y="267" on="0"/>
        <pt x="451" y="205" on="1"/>
        <pt x="445" y="161" on="0"/>
        <pt x="399" y="84" on="0"/>
        <pt x="333" y="26" on="0"/>
        <pt x="250" y="-8" on="0"/>
        <pt x="207" y="-8" on="1"/>
        <pt x="163" y="-8" on="0"/>
        <pt x="90" y="26" on="0"/>
        <pt x="40" y="84" on="0"/>
        <pt x="17" y="161" on="0"/>
      </contour>
    </TTGlyph>
    <TTGlyph name="emdash" xMin="99" yMin="175" xMax="609" yMax="236">
      <contour>
        <pt x="99" y="175" on="1"/>
        <pt x="107" y="236" on="1"/>
        <pt x="609" y="236" on="1"/>
        <pt x="601" y="175" on="1"/>
      </contour>
    </TTGlyph>
    <TTGlyph name="endash" xMin="100" yMin="175" xMax="409" yMax="236">
      <contour>
        <pt x="100" y="175" on="1"/>
        <pt x="108" y="236" on="1"/>
        <pt x="409" y="236" on="1"/>
        <pt x="401" y="175" on="1"/>
      </contour>
    </TTGlyph>
    <TTGlyph name="equal" xMin="81" yMin="123" xMax="623" yMax="378">
      <contour>
        <pt x="596" y="184" on="1"/>
        <pt x="587" y="123" on="1"/>
        <pt x="81" y="123" on="1"/>
        <pt x="90" y="184" on="1"/>
      </contour>
      <contour>
        <pt x="623" y="378" on="1"/>
        <pt x="614" y="317" on="1"/>
        <pt x="108" y="317" on="1"/>
        <pt x="117" y="378" on="1"/>
      </contour>
    </TTGlyph>
    <TTGlyph name="eth" xMin="57" yMin="-7" xMax="467" yMax="734">
      <contour>
        <pt x="125" y="188" on="1"/>
        <pt x="121" y="159" on="0"/>
        <pt x="136" y="110" on="0"/>
        <pt x="167" y="74" on="0"/>
        <pt x="215" y="54" on="0"/>
        <pt x="244" y="55" on="1"/>
        <pt x="274" y="55" on="0"/>
        <pt x="326" y="77" on="0"/>
        <pt x="367" y="114" on="0"/>
        <pt x="394" y="164" on="0"/>
        <pt x="398" y="192" on="1"/>
        <pt x="401" y="221" on="0"/>
        <pt x="386" y="270" on="0"/>
        <pt x="354" y="306" on="0"/>
        <pt x="307" y="325" on="0"/>
        <pt x="278" y="325" on="1"/>
        <pt x="248" y="324" on="0"/>
        <pt x="195" y="303" on="0"/>
        <pt x="155" y="266" on="0"/>
        <pt x="128" y="216" on="0"/>
      </contour>
      <contour>
        <pt x="194" y="536" on="1"/>
        <pt x="266" y="602" on="1"/>
        <pt x="229" y="653" on="0"/>
        <pt x="186" y="693" on="1"/>
        <pt x="198" y="704" on="0"/>
        <pt x="224" y="724" on="0"/>
        <pt x="236" y="734" on="1"/>
        <pt x="257" y="716" on="0"/>
        <pt x="297" y="673" on="0"/>
        <pt x="316" y="650" on="1"/>
        <pt x="331" y="664" on="0"/>
        <pt x="361" y="693" on="0"/>
        <pt x="377" y="708" on="1"/>
        <pt x="395" y="688" on="0"/>
        <pt x="415" y="670" on="1"/>
        <pt x="398" y="653" on="0"/>
        <pt x="363" y="622" on="0"/>
        <pt x="346" y="605" on="1"/>
        <pt x="374" y="562" on="0"/>
        <pt x="422" y="461" on="0"/>
        <pt x="454" y="353" on="0"/>
        <pt x="467" y="245" on="0"/>
        <pt x="460" y="194" on="1"/>
        <pt x="455" y="153" on="0"/>
        <pt x="416" y="82" on="0"/>
        <pt x="356" y="28" on="0"/>
        <pt x="280" y="-5" on="0"/>
        <pt x="238" y="-6" on="1"/>
        <pt x="197" y="-7" on="0"/>
        <pt x="128" y="23" on="0"/>
        <pt x="80" y="75" on="0"/>
        <pt x="57" y="145" on="0"/>
        <pt x="62" y="186" on="1"/>
        <pt x="67" y="226" on="0"/>
        <pt x="107" y="298" on="0"/>
        <pt x="167" y="352" on="0"/>
        <pt x="243" y="384" on="0"/>
        <pt x="284" y="385" on="1"/>
        <pt x="311" y="386" on="0"/>
        <pt x="357" y="368" on="0"/>
        <pt x="374" y="353" on="1"/>
        <pt x="367" y="398" on="0"/>
        <pt x="329" y="502" on="0"/>
        <pt x="295" y="556" on="1"/>
        <pt x="279" y="541" on="0"/>
        <pt x="247" y="511" on="0"/>
        <pt x="232" y="496" on="1"/>
        <pt x="222" y="507" on="0"/>
        <pt x="204" y="525" on="0"/>
      </contour>
    </TTGlyph>
    <TTGlyph name="exclam" xMin="10" yMin="11" xMax="182" yMax="750">
      <contour>
        <pt x="48" y="11" on="1"/>
        <pt x="31" y="11" on="0"/>
        <pt x="10" y="35" on="0"/>
        <pt x="11" y="54" on="1"/>
        <pt x="14" y="73" on="0"/>
        <pt x="44" y="96" on="0"/>
        <pt x="60" y="96" on="1"/>
        <pt x="76" y="96" on="0"/>
        <pt x="97" y="73" on="0"/>
        <pt x="95" y="54" on="1"/>
        <pt x="93" y="35" on="0"/>
        <pt x="63" y="11" on="0"/>
      </contour>
      <contour>
        <pt x="120" y="750" on="1"/>
        <pt x="182" y="750" on="1"/>
        <pt x="100" y="166" on="1"/>
        <pt x="38" y="166" on="1"/>
      </contour>
    </TTGlyph>
    <TTGlyph name="exclamdown" xMin="70" yMin="-210" xMax="244" yMax="529">
      <contour>
        <pt x="206" y="529" on="1"/>
        <pt x="222" y="529" on="0"/>
        <pt x="244" y="505" on="0"/>
        <pt x="241" y="486" on="1"/>
        <pt x="238" y="467" on="0"/>
        <pt x="209" y="444" on="0"/>
        <pt x="194" y="444" on="1"/>
        <pt x="178" y="444" on="0"/>
        <pt x="155" y="467" on="0"/>
        <pt x="157" y="486" on="1"/>
        <pt x="161" y="505" on="0"/>
        <pt x="190" y="529" on="0"/>
      </contour>
      <contour>
        <pt x="152" y="374" on="1"/>
        <pt x="215" y="374" on="1"/>
        <pt x="133" y="-210" on="1"/>
        <pt x="70" y="-210" on="1"/>
      </contour>
    </TTGlyph>
    <TTGlyph name="f" xMin="35" yMin="0" xMax="424" yMax="751">
      <contour>
        <pt x="43" y="59" on="1"/>
        <pt x="104" y="59" on="1"/>
        <pt x="140" y="314" on="1"/>
        <pt x="79" y="314" on="1"/>
        <pt x="87" y="375" on="1"/>
        <pt x="147" y="375" on="1"/>
        <pt x="167" y="517" on="1"/>
        <pt x="175" y="573" on="0"/>
        <pt x="221" y="659" on="0"/>
        <pt x="290" y="718" on="0"/>
        <pt x="376" y="749" on="0"/>
        <pt x="424" y="751" on="1"/>
        <pt x="416" y="691" on="1"/>
        <pt x="381" y="690" on="0"/>
        <pt x="319" y="665" on="0"/>
        <pt x="269" y="620" on="0"/>
        <pt x="236" y="556" on="0"/>
        <pt x="230" y="516" on="1"/>
        <pt x="210" y="375" on="1"/>
        <pt x="331" y="375" on="1"/>
        <pt x="323" y="314" on="1"/>
        <pt x="201" y="314" on="1"/>
        <pt x="166" y="59" on="1"/>
        <pt x="251" y="59" on="1"/>
        <pt x="243" y="0" on="1"/>
        <pt x="35" y="0" on="1"/>
      </contour>
    </TTGlyph>
    <TTGlyph name="five" xMin="68" yMin="-8" xMax="476" yMax="650">
      <contour>
        <pt x="476" y="650" on="1"/>
        <pt x="460" y="535" on="1"/>
        <pt x="400" y="535" on="1"/>
        <pt x="407" y="589" on="1"/>
        <pt x="243" y="589" on="1"/>
        <pt x="218" y="407" on="1"/>
        <pt x="242" y="415" on="0"/>
        <pt x="266" y="415" on="1"/>
        <pt x="310" y="415" on="0"/>
        <pt x="383" y="382" on="0"/>
        <pt x="434" y="325" on="0"/>
        <pt x="458" y="249" on="0"/>
        <pt x="452" y="205" on="1"/>
        <pt x="446" y="161" on="0"/>
        <pt x="400" y="84" on="0"/>
        <pt x="333" y="26" on="0"/>
        <pt x="250" y="-8" on="0"/>
        <pt x="207" y="-8" on="1"/>
        <pt x="164" y="-8" on="0"/>
        <pt x="93" y="23" on="0"/>
        <pt x="68" y="51" on="1"/>
        <pt x="120" y="94" on="1"/>
        <pt x="156" y="53" on="0"/>
        <pt x="215" y="53" on="1"/>
        <pt x="246" y="53" on="0"/>
        <pt x="305" y="77" on="0"/>
        <pt x="353" y="119" on="0"/>
        <pt x="384" y="174" on="0"/>
        <pt x="389" y="205" on="1"/>
        <pt x="393" y="236" on="0"/>
        <pt x="377" y="290" on="0"/>
        <pt x="341" y="330" on="0"/>
        <pt x="288" y="354" on="0"/>
        <pt x="257" y="354" on="1"/>
        <pt x="222" y="354" on="0"/>
        <pt x="161" y="331" on="0"/>
        <pt x="140" y="307" on="1"/>
        <pt x="189" y="650" on="1"/>
      </contour>
    </TTGlyph>
    <TTGlyph name="four" xMin="16" yMin="0" xMax="487" yMax="658">
      <contour>
        <pt x="226" y="59" on="1"/>
        <pt x="301" y="59" on="1"/>
        <pt x="319" y="183" on="1"/>
        <pt x="16" y="183" on="1"/>
        <pt x="449" y="658" on="1"/>
        <pt x="390" y="244" on="1"/>
        <pt x="487" y="244" on="1"/>
        <pt x="479" y="183" on="1"/>
        <pt x="382" y="183" on="1"/>
        <pt x="364" y="59" on="1"/>
        <pt x="447" y="59" on="1"/>
        <pt x="439" y="0" on="1"/>
        <pt x="217" y="0" on="1"/>
      </contour>
      <contour>
        <pt x="360" y="474" on="1"/>
        <pt x="151" y="244" on="1"/>
        <pt x="327" y="244" on="1"/>
      </contour>
    </TTGlyph>
    <TTGlyph name="g" xMin="89" yMin="-250" xMax="595" yMax="384">
      <contour>
        <pt x="468" y="375" on="1"/>
        <pt x="595" y="375" on="1"/>
        <pt x="586" y="315" on="1"/>
        <pt x="511" y="315" on="1"/>
        <pt x="460" y="-47" on="1"/>
        <pt x="454" y="-92" on="0"/>
        <pt x="413" y="-166" on="0"/>
        <pt x="353" y="-220" on="0"/>
        <pt x="278" y="-250" on="0"/>
        <pt x="238" y="-250" on="1"/>
        <pt x="193" y="-249" on="0"/>
        <pt x="115" y="-215" on="0"/>
        <pt x="89" y="-190" on="1"/>
        <pt x="138" y="-140" on="1"/>
        <pt x="157" y="-160" on="0"/>
        <pt x="213" y="-186" on="0"/>
        <pt x="245" y="-186" on="1"/>
        <pt x="273" y="-186" on="0"/>
        <pt x="325" y="-164" on="0"/>
        <pt x="367" y="-125" on="0"/>
        <pt x="394" y="-72" on="0"/>
        <pt x="399" y="-40" on="1"/>
        <pt x="409" y="30" on="1"/>
        <pt x="411" y="38" on="0"/>
        <pt x="417" y="54" on="0"/>
        <pt x="419" y="62" on="1"/>
        <pt x="412" y="51" on="0"/>
        <pt x="384" y="26" on="0"/>
        <pt x="345" y="6" on="0"/>
        <pt x="296" y="-7" on="0"/>
        <pt x="268" y="-7" on="1"/>
        <pt x="226" y="-7" on="0"/>
        <pt x="158" y="24" on="0"/>
        <pt x="111" y="77" on="0"/>
        <pt x="90" y="147" on="0"/>
        <pt x="96" y="187" on="1"/>
        <pt x="102" y="227" on="0"/>
        <pt x="142" y="298" on="0"/>
        <pt x="204" y="352" on="0"/>
        <pt x="281" y="384" on="0"/>
        <pt x="323" y="384" on="1"/>
        <pt x="351" y="384" on="0"/>
        <pt x="397" y="368" on="0"/>
        <pt x="432" y="344" on="0"/>
        <pt x="453" y="318" on="0"/>
        <pt x="455" y="308" on="1"/>
        <pt x="457" y="324" on="0"/>
        <pt x="466" y="358" on="0"/>
      </contour>
      <contour>
        <pt x="159" y="188" on="1"/>
        <pt x="155" y="159" on="0"/>
        <pt x="168" y="110" on="0"/>
        <pt x="200" y="74" on="0"/>
        <pt x="247" y="53" on="0"/>
        <pt x="276" y="53" on="1"/>
        <pt x="305" y="53" on="0"/>
        <pt x="358" y="74" on="0"/>
        <pt x="400" y="110" on="0"/>
        <pt x="427" y="159" on="0"/>
        <pt x="431" y="188" on="1"/>
        <pt x="435" y="216" on="0"/>
        <pt x="422" y="266" on="0"/>
        <pt x="390" y="302" on="0"/>
        <pt x="343" y="323" on="0"/>
        <pt x="314" y="323" on="1"/>
        <pt x="284" y="323" on="0"/>
        <pt x="231" y="302" on="0"/>
        <pt x="190" y="266" on="0"/>
        <pt x="163" y="216" on="0"/>
      </contour>
    </TTGlyph>
    <TTGlyph name="germandbls" xMin="36" yMin="-9" xMax="557" yMax="657">
      <contour>
        <pt x="44" y="59" on="1"/>
        <pt x="111" y="59" on="1"/>
        <pt x="151" y="345" on="1"/>
        <pt x="90" y="345" on="1"/>
        <pt x="98" y="406" on="1"/>
        <pt x="160" y="406" on="1"/>
        <pt x="162" y="424" on="1"/>
        <pt x="170" y="479" on="0"/>
        <pt x="215" y="565" on="0"/>
        <pt x="279" y="625" on="0"/>
        <pt x="357" y="657" on="0"/>
        <pt x="397" y="657" on="1"/>
        <pt x="429" y="657" on="0"/>
        <pt x="482" y="632" on="0"/>
        <pt x="518" y="590" on="0"/>
        <pt x="534" y="534" on="0"/>
        <pt x="530" y="502" on="1"/>
        <pt x="525" y="467" on="0"/>
        <pt x="485" y="408" on="0"/>
        <pt x="456" y="390" on="1"/>
        <pt x="504" y="365" on="0"/>
        <pt x="557" y="266" on="0"/>
        <pt x="548" y="204" on="1"/>
        <pt x="542" y="160" on="0"/>
        <pt x="497" y="83" on="0"/>
        <pt x="431" y="25" on="0"/>
        <pt x="348" y="-9" on="0"/>
        <pt x="304" y="-9" on="1"/>
        <pt x="254" y="-9" on="0"/>
        <pt x="215" y="13" on="1"/>
        <pt x="248" y="68" on="1"/>
        <pt x="277" y="52" on="0"/>
        <pt x="311" y="52" on="1"/>
        <pt x="342" y="52" on="0"/>
        <pt x="402" y="76" on="0"/>
        <pt x="450" y="118" on="0"/>
        <pt x="482" y="173" on="0"/>
        <pt x="486" y="204" on="1"/>
        <pt x="490" y="235" on="0"/>
        <pt x="473" y="289" on="0"/>
        <pt x="437" y="330" on="0"/>
        <pt x="384" y="354" on="0"/>
        <pt x="353" y="354" on="1"/>
        <pt x="355" y="361" on="0"/>
        <pt x="355" y="376" on="0"/>
        <pt x="357" y="384" on="1"/>
        <pt x="361" y="415" on="1"/>
        <pt x="400" y="415" on="0"/>
        <pt x="462" y="462" on="0"/>
        <pt x="467" y="501" on="1"/>
        <pt x="470" y="520" on="0"/>
        <pt x="461" y="555" on="0"/>
        <pt x="440" y="581" on="0"/>
        <pt x="409" y="597" on="0"/>
        <pt x="390" y="596" on="1"/>
        <pt x="360" y="595" on="0"/>
        <pt x="305" y="571" on="0"/>
        <pt x="260" y="526" on="0"/>
        <pt x="230" y="462" on="0"/>
        <pt x="224" y="422" on="1"/>
        <pt x="165" y="0" on="1"/>
        <pt x="36" y="0" on="1"/>
      </contour>
    </TTGlyph>
    <TTGlyph name="grave" xMin="-23" yMin="479" xMax="97" yMax="612">
      <contour>
        <pt x="39" y="612" on="1"/>
        <pt x="54" y="579" on="0"/>
        <pt x="82" y="512" on="0"/>
        <pt x="97" y="479" on="1"/>
        <pt x="51" y="479" on="1"/>
        <pt x="31" y="512" on="0"/>
        <pt x="-4" y="579" on="0"/>
        <pt x="-23" y="612" on="1"/>
      </contour>
    </TTGlyph>
    <TTGlyph name="greater" xMin="80" yMin="-14" xMax="553" yMax="490">
      <contour>
        <pt x="80" y="-14" on="1"/>
        <pt x="91" y="70" on="1"/>
        <pt x="170" y="112" on="0"/>
        <pt x="328" y="196" on="0"/>
        <pt x="408" y="238" on="1"/>
        <pt x="340" y="280" on="0"/>
        <pt x="206" y="364" on="0"/>
        <pt x="139" y="406" on="1"/>
        <pt x="151" y="490" on="1"/>
        <pt x="252" y="427" on="0"/>
        <pt x="451" y="301" on="0"/>
        <pt x="553" y="238" on="1"/>
        <pt x="434" y="175" on="0"/>
        <pt x="199" y="49" on="0"/>
      </contour>
    </TTGlyph>
    <TTGlyph name="guillemotleft" xMin="139" yMin="77" xMax="504" yMax="400">
      <contour>
        <pt x="459" y="77" on="1"/>
        <pt x="310" y="239" on="1"/>
        <pt x="359" y="280" on="0"/>
        <pt x="455" y="359" on="0"/>
        <pt x="504" y="400" on="1"/>
        <pt x="494" y="329" on="1"/>
        <pt x="469" y="306" on="0"/>
        <pt x="419" y="262" on="0"/>
        <pt x="393" y="239" on="1"/>
        <pt x="412" y="216" on="0"/>
        <pt x="449" y="171" on="0"/>
        <pt x="469" y="148" on="1"/>
      </contour>
      <contour>
        <pt x="288" y="77" on="1"/>
        <pt x="139" y="239" on="1"/>
        <pt x="188" y="280" on="0"/>
        <pt x="284" y="359" on="0"/>
        <pt x="333" y="400" on="1"/>
        <pt x="323" y="328" on="1"/>
        <pt x="297" y="306" on="0"/>
        <pt x="248" y="262" on="0"/>
        <pt x="222" y="239" on="1"/>
        <pt x="241" y="216" on="0"/>
        <pt x="278" y="171" on="0"/>
        <pt x="298" y="148" on="1"/>
      </contour>
    </TTGlyph>
    <TTGlyph name="guillemotright" xMin="117" yMin="77" xMax="481" yMax="400">
      <contour>
        <pt x="127" y="148" on="1"/>
        <pt x="152" y="171" on="0"/>
        <pt x="201" y="216" on="0"/>
        <pt x="227" y="239" on="1"/>
        <pt x="208" y="262" on="0"/>
        <pt x="172" y="306" on="0"/>
        <pt x="152" y="329" on="1"/>
        <pt x="162" y="400" on="1"/>
        <pt x="199" y="359" on="0"/>
        <pt x="273" y="280" on="0"/>
        <pt x="310" y="239" on="1"/>
        <pt x="117" y="77" on="1"/>
      </contour>
      <contour>
        <pt x="298" y="148" on="1"/>
        <pt x="323" y="171" on="0"/>
        <pt x="372" y="216" on="0"/>
        <pt x="398" y="239" on="1"/>
        <pt x="379" y="262" on="0"/>
        <pt x="342" y="306" on="0"/>
        <pt x="323" y="328" on="1"/>
        <pt x="333" y="400" on="1"/>
        <pt x="370" y="359" on="0"/>
        <pt x="444" y="280" on="0"/>
        <pt x="481" y="239" on="1"/>
        <pt x="288" y="77" on="1"/>
      </contour>
    </TTGlyph>
    <TTGlyph name="guilsinglleft" xMin="139" yMin="77" xMax="333" yMax="400">
      <contour>
        <pt x="288" y="77" on="1"/>
        <pt x="139" y="239" on="1"/>
        <pt x="188" y="280" on="0"/>
        <pt x="284" y="359" on="0"/>
        <pt x="333" y="400" on="1"/>
        <pt x="323" y="328" on="1"/>
        <pt x="297" y="306" on="0"/>
        <pt x="248" y="262" on="0"/>
        <pt x="222" y="239" on="1"/>
        <pt x="241" y="216" on="0"/>
        <pt x="278" y="171" on="0"/>
        <pt x="298" y="148" on="1"/>
      </contour>
    </TTGlyph>
    <TTGlyph name="guilsinglright" xMin="117" yMin="77" xMax="310" yMax="400">
      <contour>
        <pt x="127" y="148" on="1"/>
        <pt x="152" y="171" on="0"/>
        <pt x="201" y="216" on="0"/>
        <pt x="227" y="239" on="1"/>
        <pt x="208" y="262" on="0"/>
        <pt x="171" y="306" on="0"/>
        <pt x="152" y="328" on="1"/>
        <pt x="162" y="400" on="1"/>
        <pt x="199" y="359" on="0"/>
        <pt x="273" y="280" on="0"/>
        <pt x="310" y="239" on="1"/>
        <pt x="117" y="77" on="1"/>
      </contour>
    </TTGlyph>
    <TTGlyph name="h" xMin="35" yMin="0" xMax="536" yMax="750">
      <contour>
        <pt x="328" y="59" on="1"/>
        <pt x="406" y="59" on="1"/>
        <pt x="431" y="247" on="1"/>
        <pt x="434" y="276" on="0"/>
        <pt x="401" y="320" on="0"/>
        <pt x="361" y="322" on="1"/>
        <pt x="333" y="322" on="0"/>
        <pt x="279" y="302" on="0"/>
        <pt x="235" y="268" on="0"/>
        <pt x="205" y="221" on="0"/>
        <pt x="201" y="193" on="1"/>
        <pt x="182" y="59" on="1"/>
        <pt x="251" y="59" on="1"/>
        <pt x="243" y="0" on="1"/>
        <pt x="35" y="0" on="1"/>
        <pt x="43" y="59" on="1"/>
        <pt x="120" y="59" on="1"/>
        <pt x="209" y="690" on="1"/>
        <pt x="133" y="690" on="1"/>
        <pt x="142" y="750" on="1"/>
        <pt x="279" y="750" on="1"/>
        <pt x="219" y="323" on="1"/>
        <pt x="210" y="278" on="1"/>
        <pt x="238" y="326" on="0"/>
        <pt x="331" y="381" on="0"/>
        <pt x="388" y="383" on="1"/>
        <pt x="445" y="383" on="0"/>
        <pt x="503" y="321" on="0"/>
        <pt x="498" y="271" on="1"/>
        <pt x="468" y="59" on="1"/>
        <pt x="536" y="59" on="1"/>
        <pt x="528" y="0" on="1"/>
        <pt x="320" y="0" on="1"/>
      </contour>
    </TTGlyph>
    <TTGlyph name="hyphen" xMin="48" yMin="158" xMax="240" yMax="219">
      <contour>
        <pt x="48" y="158" on="1"/>
        <pt x="56" y="219" on="1"/>
        <pt x="240" y="219" on="1"/>
        <pt x="232" y="158" on="1"/>
      </contour>
    </TTGlyph>
    <TTGlyph name="i" xMin="35" yMin="0" xMax="257" yMax="557">
      <contour>
        <pt x="43" y="59" on="1"/>
        <pt x="117" y="59" on="1"/>
        <pt x="152" y="315" on="1"/>
        <pt x="79" y="315" on="1"/>
        <pt x="87" y="375" on="1"/>
        <pt x="223" y="375" on="1"/>
        <pt x="179" y="59" on="1"/>
        <pt x="251" y="59" on="1"/>
        <pt x="243" y="0" on="1"/>
        <pt x="35" y="0" on="1"/>
      </contour>
      <contour>
        <pt x="170" y="514" on="1"/>
        <pt x="173" y="532" on="0"/>
        <pt x="202" y="557" on="0"/>
        <pt x="219" y="557" on="1"/>
        <pt x="234" y="557" on="0"/>
        <pt x="257" y="532" on="0"/>
        <pt x="255" y="514" on="1"/>
        <pt x="251" y="495" on="0"/>
        <pt x="222" y="472" on="0"/>
        <pt x="206" y="472" on="1"/>
        <pt x="190" y="472" on="0"/>
        <pt x="167" y="495" on="0"/>
      </contour>
    </TTGlyph>
    <TTGlyph name="iacute" xMin="35" yMin="0" xMax="359" yMax="612">
      <contour>
        <pt x="43" y="59" on="1"/>
        <pt x="117" y="59" on="1"/>
        <pt x="152" y="315" on="1"/>
        <pt x="79" y="315" on="1"/>
        <pt x="87" y="375" on="1"/>
        <pt x="223" y="375" on="1"/>
        <pt x="179" y="59" on="1"/>
        <pt x="251" y="59" on="1"/>
        <pt x="243" y="0" on="1"/>
        <pt x="35" y="0" on="1"/>
      </contour>
      <contour>
        <pt x="187" y="479" on="1"/>
        <pt x="214" y="512" on="0"/>
        <pt x="268" y="579" on="0"/>
        <pt x="295" y="612" on="1"/>
        <pt x="359" y="612" on="1"/>
        <pt x="327" y="579" on="0"/>
        <pt x="265" y="512" on="0"/>
        <pt x="233" y="479" on="1"/>
      </contour>
    </TTGlyph>
    <TTGlyph name="icircumflex" xMin="35" yMin="0" xMax="314" yMax="660">
      <contour>
        <pt x="43" y="59" on="1"/>
        <pt x="117" y="59" on="1"/>
        <pt x="152" y="315" on="1"/>
        <pt x="79" y="315" on="1"/>
        <pt x="87" y="375" on="1"/>
        <pt x="223" y="375" on="1"/>
        <pt x="179" y="59" on="1"/>
        <pt x="251" y="59" on="1"/>
        <pt x="243" y="0" on="1"/>
        <pt x="35" y="0" on="1"/>
      </contour>
      <contour>
        <pt x="219" y="660" on="1"/>
        <pt x="243" y="615" on="0"/>
        <pt x="290" y="524" on="0"/>
        <pt x="314" y="479" on="1"/>
        <pt x="268" y="479" on="1"/>
        <pt x="253" y="503" on="0"/>
        <pt x="223" y="551" on="0"/>
        <pt x="207" y="576" on="1"/>
        <pt x="186" y="551" on="0"/>
        <pt x="142" y="503" on="0"/>
        <pt x="120" y="479" on="1"/>
        <pt x="74" y="479" on="1"/>
        <pt x="110" y="524" on="0"/>
        <pt x="183" y="615" on="0"/>
      </contour>
    </TTGlyph>
    <TTGlyph name="idieresis" xMin="35" yMin="0" xMax="335" yMax="557">
      <contour>
        <pt x="43" y="59" on="1"/>
        <pt x="117" y="59" on="1"/>
        <pt x="152" y="315" on="1"/>
        <pt x="79" y="315" on="1"/>
        <pt x="87" y="375" on="1"/>
        <pt x="223" y="375" on="1"/>
        <pt x="179" y="59" on="1"/>
        <pt x="251" y="59" on="1"/>
        <pt x="243" y="0" on="1"/>
        <pt x="35" y="0" on="1"/>
      </contour>
      <contour>
        <pt x="248" y="514" on="1"/>
        <pt x="250" y="532" on="0"/>
        <pt x="280" y="557" on="0"/>
        <pt x="296" y="557" on="1"/>
        <pt x="312" y="557" on="0"/>
        <pt x="335" y="532" on="0"/>
        <pt x="332" y="514" on="1"/>
        <pt x="329" y="495" on="0"/>
        <pt x="301" y="472" on="0"/>
        <pt x="285" y="472" on="1"/>
        <pt x="268" y="472" on="0"/>
        <pt x="245" y="495" on="0"/>
      </contour>
      <contour>
        <pt x="82" y="514" on="1"/>
        <pt x="85" y="532" on="0"/>
        <pt x="114" y="557" on="0"/>
        <pt x="131" y="557" on="1"/>
        <pt x="146" y="557" on="0"/>
        <pt x="169" y="532" on="0"/>
        <pt x="166" y="514" on="1"/>
        <pt x="164" y="495" on="0"/>
        <pt x="135" y="472" on="0"/>
        <pt x="119" y="472" on="1"/>
        <pt x="103" y="472" on="0"/>
        <pt x="80" y="495" on="0"/>
      </contour>
    </TTGlyph>
    <TTGlyph name="igrave" xMin="35" yMin="0" xMax="251" yMax="612">
      <contour>
        <pt x="43" y="59" on="1"/>
        <pt x="117" y="59" on="1"/>
        <pt x="152" y="315" on="1"/>
        <pt x="79" y="315" on="1"/>
        <pt x="87" y="375" on="1"/>
        <pt x="223" y="375" on="1"/>
        <pt x="179" y="59" on="1"/>
        <pt x="251" y="59" on="1"/>
        <pt x="243" y="0" on="1"/>
        <pt x="35" y="0" on="1"/>
      </contour>
      <contour>
        <pt x="163" y="612" on="1"/>
        <pt x="178" y="579" on="0"/>
        <pt x="206" y="512" on="0"/>
        <pt x="221" y="479" on="1"/>
        <pt x="175" y="479" on="1"/>
        <pt x="155" y="512" on="0"/>
        <pt x="120" y="579" on="0"/>
        <pt x="101" y="612" on="1"/>
      </contour>
    </TTGlyph>
    <TTGlyph name="j" xMin="0" yMin="-181" xMax="223" yMax="557">
      <contour>
        <pt x="60" y="375" on="1"/>
        <pt x="188" y="375" on="1"/>
        <pt x="135" y="-2" on="1"/>
        <pt x="127" y="-62" on="0"/>
        <pt x="76" y="-152" on="0"/>
        <pt x="38" y="-181" on="1"/>
        <pt x="0" y="-135" on="1"/>
        <pt x="29" y="-112" on="0"/>
        <pt x="67" y="-46" on="0"/>
        <pt x="72" y="-1" on="1"/>
        <pt x="117" y="315" on="1"/>
        <pt x="52" y="315" on="1"/>
      </contour>
      <contour>
        <pt x="136" y="514" on="1"/>
        <pt x="138" y="532" on="0"/>
        <pt x="168" y="557" on="0"/>
        <pt x="185" y="557" on="1"/>
        <pt x="200" y="557" on="0"/>
        <pt x="223" y="532" on="0"/>
        <pt x="220" y="514" on="1"/>
        <pt x="218" y="495" on="0"/>
        <pt x="189" y="472" on="0"/>
        <pt x="173" y="472" on="1"/>
        <pt x="156" y="472" on="0"/>
        <pt x="134" y="495" on="0"/>
      </contour>
    </TTGlyph>
    <TTGlyph name="k" xMin="35" yMin="0" xMax="491" yMax="750">
      <contour>
        <pt x="295" y="59" on="1"/>
        <pt x="325" y="59" on="1"/>
        <pt x="287" y="119" on="0"/>
        <pt x="253" y="179" on="1"/>
        <pt x="190" y="126" on="1"/>
        <pt x="180" y="59" on="1"/>
        <pt x="251" y="59" on="1"/>
        <pt x="243" y="0" on="1"/>
        <pt x="35" y="0" on="1"/>
        <pt x="43" y="59" on="1"/>
        <pt x="118" y="59" on="1"/>
        <pt x="206" y="690" on="1"/>
        <pt x="138" y="690" on="1"/>
        <pt x="147" y="750" on="1"/>
        <pt x="277" y="750" on="1"/>
        <pt x="200" y="200" on="1"/>
        <pt x="339" y="315" on="1"/>
        <pt x="290" y="315" on="1"/>
        <pt x="298" y="375" on="1"/>
        <pt x="491" y="375" on="1"/>
        <pt x="483" y="315" on="1"/>
        <pt x="416" y="315" on="1"/>
        <pt x="386" y="290" on="0"/>
        <pt x="333" y="245" on="0"/>
        <pt x="304" y="220" on="1"/>
        <pt x="327" y="180" on="0"/>
        <pt x="374" y="100" on="0"/>
        <pt x="398" y="59" on="1"/>
        <pt x="488" y="59" on="1"/>
        <pt x="480" y="0" on="1"/>
        <pt x="287" y="0" on="1"/>
      </contour>
    </TTGlyph>
    <TTGlyph name="l" xMin="35" yMin="0" xMax="277" yMax="750">
      <contour>
        <pt x="43" y="59" on="1"/>
        <pt x="118" y="59" on="1"/>
        <pt x="206" y="690" on="1"/>
        <pt x="138" y="690" on="1"/>
        <pt x="147" y="750" on="1"/>
        <pt x="277" y="750" on="1"/>
        <pt x="180" y="59" on="1"/>
        <pt x="251" y="59" on="1"/>
        <pt x="243" y="0" on="1"/>
        <pt x="35" y="0" on="1"/>
      </contour>
    </TTGlyph>
    <TTGlyph name="less" xMin="116" yMin="-14" xMax="588" yMax="490">
      <contour>
        <pt x="529" y="70" on="1"/>
        <pt x="517" y="-14" on="1"/>
        <pt x="416" y="49" on="0"/>
        <pt x="217" y="175" on="0"/>
        <pt x="116" y="238" on="1"/>
        <pt x="234" y="301" on="0"/>
        <pt x="469" y="427" on="0"/>
        <pt x="588" y="490" on="1"/>
        <pt x="576" y="406" on="1"/>
        <pt x="498" y="364" on="0"/>
        <pt x="339" y="280" on="0"/>
        <pt x="261" y="238" on="1"/>
        <pt x="327" y="196" on="0"/>
        <pt x="461" y="112" on="0"/>
      </contour>
    </TTGlyph>
    <TTGlyph name="logicalnot" xMin="107" yMin="148" xMax="474" yMax="246">
      <contour>
        <pt x="397" y="148" on="1"/>
        <pt x="404" y="200" on="1"/>
        <pt x="107" y="200" on="1"/>
        <pt x="114" y="246" on="1"/>
        <pt x="474" y="246" on="1"/>
        <pt x="460" y="148" on="1"/>
      </contour>
    </TTGlyph>
    <TTGlyph name="m" xMin="35" yMin="0" xMax="822" yMax="383">
      <contour>
        <pt x="614" y="59" on="1"/>
        <pt x="691" y="59" on="1"/>
        <pt x="717" y="247" on="1"/>
        <pt x="720" y="276" on="0"/>
        <pt x="687" y="320" on="0"/>
        <pt x="647" y="322" on="1"/>
        <pt x="619" y="322" on="0"/>
        <pt x="565" y="303" on="0"/>
        <pt x="521" y="269" on="0"/>
        <pt x="491" y="222" on="0"/>
        <pt x="487" y="195" on="1"/>
        <pt x="468" y="59" on="1"/>
        <pt x="536" y="59" on="1"/>
        <pt x="528" y="0" on="1"/>
        <pt x="321" y="0" on="1"/>
        <pt x="329" y="59" on="1"/>
        <pt x="406" y="59" on="1"/>
        <pt x="431" y="247" on="1"/>
        <pt x="434" y="276" on="0"/>
        <pt x="401" y="320" on="0"/>
        <pt x="361" y="322" on="1"/>
        <pt x="333" y="322" on="0"/>
        <pt x="279" y="302" on="0"/>
        <pt x="235" y="268" on="0"/>
        <pt x="205" y="221" on="0"/>
        <pt x="201" y="193" on="1"/>
        <pt x="182" y="59" on="1"/>
        <pt x="251" y="59" on="1"/>
        <pt x="243" y="0" on="1"/>
        <pt x="35" y="0" on="1"/>
        <pt x="43" y="59" on="1"/>
        <pt x="120" y="59" on="1"/>
        <pt x="156" y="315" on="1"/>
        <pt x="87" y="315" on="1"/>
        <pt x="95" y="375" on="1"/>
        <pt x="217" y="375" on="1"/>
        <pt x="215" y="353" on="1"/>
        <pt x="213" y="332" on="0"/>
        <pt x="212" y="299" on="0"/>
        <pt x="210" y="278" on="1"/>
        <pt x="238" y="326" on="0"/>
        <pt x="331" y="382" on="0"/>
        <pt x="388" y="383" on="1"/>
        <pt x="441" y="383" on="0"/>
        <pt x="499" y="328" on="0"/>
        <pt x="498" y="283" on="1"/>
        <pt x="526" y="329" on="0"/>
        <pt x="618" y="382" on="0"/>
        <pt x="673" y="383" on="1"/>
        <pt x="730" y="383" on="0"/>
        <pt x="789" y="321" on="0"/>
        <pt x="783" y="271" on="1"/>
        <pt x="754" y="59" on="1"/>
        <pt x="822" y="59" on="1"/>
        <pt x="814" y="0" on="1"/>
        <pt x="606" y="0" on="1"/>
      </contour>
    </TTGlyph>
    <TTGlyph name="macron" xMin="85" yMin="482" xMax="320" yMax="523">
      <contour>
        <pt x="85" y="482" on="1"/>
        <pt x="90" y="523" on="1"/>
        <pt x="320" y="523" on="1"/>
        <pt x="315" y="482" on="1"/>
      </contour>
    </TTGlyph>
    <TTGlyph name="mu" xMin="92" yMin="-201" xMax="543" yMax="375">
      <contour>
        <pt x="388" y="375" on="1"/>
        <pt x="520" y="375" on="1"/>
        <pt x="476" y="53" on="1"/>
        <pt x="543" y="53" on="1"/>
        <pt x="535" y="0" on="1"/>
        <pt x="409" y="0" on="1"/>
        <pt x="415" y="52" on="1"/>
        <pt x="422" y="97" on="1"/>
        <pt x="395" y="49" on="0"/>
        <pt x="298" y="-8" on="0"/>
        <pt x="244" y="-8" on="1"/>
        <pt x="205" y="-8" on="0"/>
        <pt x="184" y="13" on="1"/>
        <pt x="155" y="-201" on="1"/>
        <pt x="92" y="-201" on="1"/>
        <pt x="164" y="315" on="1"/>
        <pt x="94" y="315" on="1"/>
        <pt x="103" y="375" on="1"/>
        <pt x="235" y="375" on="1"/>
        <pt x="201" y="128" on="1"/>
        <pt x="198" y="98" on="0"/>
        <pt x="231" y="55" on="0"/>
        <pt x="271" y="53" on="1"/>
        <pt x="299" y="53" on="0"/>
        <pt x="353" y="72" on="0"/>
        <pt x="398" y="107" on="0"/>
        <pt x="428" y="154" on="0"/>
        <pt x="432" y="182" on="1"/>
        <pt x="450" y="315" on="1"/>
        <pt x="380" y="315" on="1"/>
      </contour>
    </TTGlyph>
    <TTGlyph name="multiply" xMin="122" yMin="0" xMax="449" yMax="299">
      <contour>
        <pt x="370" y="0" on="1"/>
        <pt x="347" y="26" on="0"/>
        <pt x="301" y="79" on="0"/>
        <pt x="278" y="105" on="1"/>
        <pt x="249" y="79" on="0"/>
        <pt x="189" y="27" on="0"/>
        <pt x="160" y="1" on="1"/>
        <pt x="150" y="12" on="0"/>
        <pt x="131" y="33" on="0"/>
        <pt x="122" y="44" on="1"/>
        <pt x="152" y="70" on="0"/>
        <pt x="211" y="123" on="0"/>
        <pt x="241" y="149" on="1"/>
        <pt x="151" y="255" on="1"/>
        <pt x="202" y="299" on="1"/>
        <pt x="292" y="193" on="1"/>
        <pt x="322" y="220" on="0"/>
        <pt x="382" y="272" on="0"/>
        <pt x="412" y="299" on="1"/>
        <pt x="422" y="288" on="0"/>
        <pt x="440" y="266" on="0"/>
        <pt x="449" y="255" on="1"/>
        <pt x="420" y="229" on="0"/>
        <pt x="359" y="176" on="0"/>
        <pt x="330" y="150" on="1"/>
        <pt x="353" y="124" on="0"/>
        <pt x="397" y="71" on="0"/>
        <pt x="420" y="44" on="1"/>
      </contour>
    </TTGlyph>
    <TTGlyph name="n" xMin="35" yMin="0" xMax="536" yMax="383">
      <contour>
        <pt x="328" y="59" on="1"/>
        <pt x="406" y="59" on="1"/>
        <pt x="431" y="247" on="1"/>
        <pt x="434" y="276" on="0"/>
        <pt x="401" y="320" on="0"/>
        <pt x="361" y="322" on="1"/>
        <pt x="333" y="322" on="0"/>
        <pt x="279" y="302" on="0"/>
        <pt x="235" y="268" on="0"/>
        <pt x="205" y="221" on="0"/>
        <pt x="201" y="193" on="1"/>
        <pt x="182" y="59" on="1"/>
        <pt x="251" y="59" on="1"/>
        <pt x="243" y="0" on="1"/>
        <pt x="35" y="0" on="1"/>
        <pt x="43" y="59" on="1"/>
        <pt x="120" y="59" on="1"/>
        <pt x="156" y="315" on="1"/>
        <pt x="87" y="315" on="1"/>
        <pt x="95" y="375" on="1"/>
        <pt x="217" y="375" on="1"/>
        <pt x="215" y="353" on="1"/>
        <pt x="213" y="332" on="0"/>
        <pt x="212" y="299" on="0"/>
        <pt x="210" y="278" on="1"/>
        <pt x="237" y="326" on="0"/>
        <pt x="333" y="383" on="0"/>
        <pt x="388" y="383" on="1"/>
        <pt x="445" y="383" on="0"/>
        <pt x="503" y="321" on="0"/>
        <pt x="498" y="271" on="1"/>
        <pt x="468" y="59" on="1"/>
        <pt x="536" y="59" on="1"/>
        <pt x="528" y="0" on="1"/>
        <pt x="320" y="0" on="1"/>
      </contour>
    </TTGlyph>
    <TTGlyph name="nine" xMin="43" yMin="-9" xMax="483" yMax="635">
      <contour>
        <pt x="413" y="423" on="1"/>
        <pt x="417" y="454" on="0"/>
        <pt x="402" y="509" on="0"/>
        <pt x="367" y="550" on="0"/>
        <pt x="316" y="574" on="0"/>
        <pt x="285" y="574" on="1"/>
        <pt x="254" y="574" on="0"/>
        <pt x="195" y="550" on="0"/>
        <pt x="148" y="509" on="0"/>
        <pt x="116" y="454" on="0"/>
        <pt x="112" y="423" on="1"/>
        <pt x="107" y="392" on="0"/>
        <pt x="124" y="337" on="0"/>
        <pt x="160" y="297" on="0"/>
        <pt x="212" y="273" on="0"/>
        <pt x="243" y="273" on="1"/>
        <pt x="274" y="273" on="0"/>
        <pt x="332" y="297" on="0"/>
        <pt x="378" y="337" on="0"/>
        <pt x="409" y="392" on="0"/>
      </contour>
      <contour>
        <pt x="477" y="423" on="1"/>
        <pt x="467" y="353" on="0"/>
        <pt x="387" y="230" on="0"/>
        <pt x="275" y="123" on="0"/>
        <pt x="145" y="30" on="0"/>
        <pt x="85" y="-9" on="1"/>
        <pt x="77" y="3" on="0"/>
        <pt x="60" y="28" on="0"/>
        <pt x="52" y="40" on="1"/>
        <pt x="146" y="97" on="0"/>
        <pt x="266" y="197" on="0"/>
        <pt x="301" y="237" on="1"/>
        <pt x="273" y="212" on="0"/>
        <pt x="234" y="212" on="1"/>
        <pt x="190" y="212" on="0"/>
        <pt x="117" y="245" on="0"/>
        <pt x="66" y="302" on="0"/>
        <pt x="43" y="379" on="0"/>
        <pt x="49" y="423" on="1"/>
        <pt x="55" y="466" on="0"/>
        <pt x="101" y="544" on="0"/>
        <pt x="167" y="601" on="0"/>
        <pt x="250" y="635" on="0"/>
        <pt x="294" y="635" on="1"/>
        <pt x="338" y="635" on="0"/>
        <pt x="411" y="601" on="0"/>
        <pt x="461" y="544" on="0"/>
        <pt x="483" y="466" on="0"/>
      </contour>
    </TTGlyph>
    <TTGlyph name="ntilde" xMin="35" yMin="0" xMax="536" yMax="542">
      <component glyphName="n" x="0" y="0" flags="0x204"/>
      <component glyphName="asciitilde" x="76" y="-7" flags="0x4"/>
    </TTGlyph>
    <TTGlyph name="numbersign" xMin="9" yMin="0" xMax="530" yMax="643">
      <contour>
        <pt x="218" y="382" on="1"/>
        <pt x="210" y="351" on="0"/>
        <pt x="195" y="291" on="0"/>
        <pt x="187" y="260" on="1"/>
        <pt x="308" y="260" on="1"/>
        <pt x="316" y="291" on="0"/>
        <pt x="331" y="351" on="0"/>
        <pt x="339" y="382" on="1"/>
      </contour>
      <contour>
        <pt x="240" y="0" on="1"/>
        <pt x="267" y="101" on="0"/>
        <pt x="292" y="199" on="1"/>
        <pt x="171" y="199" on="1"/>
        <pt x="146" y="101" on="0"/>
        <pt x="119" y="0" on="1"/>
        <pt x="56" y="0" on="1"/>
        <pt x="83" y="101" on="0"/>
        <pt x="108" y="199" on="1"/>
        <pt x="9" y="199" on="1"/>
        <pt x="13" y="214" on="0"/>
        <pt x="20" y="245" on="0"/>
        <pt x="24" y="260" on="1"/>
        <pt x="124" y="260" on="1"/>
        <pt x="132" y="291" on="0"/>
        <pt x="147" y="351" on="0"/>
        <pt x="155" y="382" on="1"/>
        <pt x="57" y="382" on="1"/>
        <pt x="61" y="397" on="0"/>
        <pt x="68" y="427" on="0"/>
        <pt x="72" y="443" on="1"/>
        <pt x="171" y="443" on="1"/>
        <pt x="185" y="494" on="0"/>
        <pt x="211" y="592" on="0"/>
        <pt x="224" y="643" on="1"/>
        <pt x="287" y="643" on="1"/>
        <pt x="274" y="592" on="0"/>
        <pt x="248" y="494" on="0"/>
        <pt x="234" y="443" on="1"/>
        <pt x="355" y="443" on="1"/>
        <pt x="369" y="494" on="0"/>
        <pt x="395" y="592" on="0"/>
        <pt x="408" y="643" on="1"/>
        <pt x="471" y="643" on="1"/>
        <pt x="458" y="592" on="0"/>
        <pt x="432" y="494" on="0"/>
        <pt x="418" y="443" on="1"/>
        <pt x="530" y="443" on="1"/>
        <pt x="526" y="427" on="0"/>
        <pt x="520" y="397" on="0"/>
        <pt x="516" y="382" on="1"/>
        <pt x="402" y="382" on="1"/>
        <pt x="394" y="351" on="0"/>
        <pt x="379" y="291" on="0"/>
        <pt x="371" y="260" on="1"/>
        <pt x="483" y="260" on="1"/>
        <pt x="479" y="245" on="0"/>
        <pt x="472" y="214" on="0"/>
        <pt x="467" y="199" on="1"/>
        <pt x="355" y="199" on="1"/>
        <pt x="330" y="101" on="0"/>
        <pt x="303" y="0" on="1"/>
      </contour>
    </TTGlyph>
    <TTGlyph name="o" xMin="56" yMin="-8" xMax="466" yMax="384">
      <contour>
        <pt x="62" y="188" on="1"/>
        <pt x="68" y="228" on="0"/>
        <pt x="109" y="300" on="0"/>
        <pt x="170" y="353" on="0"/>
        <pt x="247" y="384" on="0"/>
        <pt x="288" y="384" on="1"/>
        <pt x="330" y="384" on="0"/>
        <pt x="398" y="353" on="0"/>
        <pt x="445" y="300" on="0"/>
        <pt x="466" y="228" on="0"/>
        <pt x="460" y="188" on="1"/>
        <pt x="454" y="147" on="0"/>
        <pt x="414" y="76" on="0"/>
        <pt x="352" y="23" on="0"/>
        <pt x="275" y="-8" on="0"/>
        <pt x="233" y="-8" on="1"/>
        <pt x="192" y="-8" on="0"/>
        <pt x="124" y="23" on="0"/>
        <pt x="77" y="76" on="0"/>
        <pt x="56" y="147" on="0"/>
      </contour>
      <contour>
        <pt x="125" y="187" on="1"/>
        <pt x="121" y="159" on="0"/>
        <pt x="135" y="110" on="0"/>
        <pt x="166" y="74" on="0"/>
        <pt x="212" y="53" on="0"/>
        <pt x="240" y="53" on="1"/>
        <pt x="268" y="53" on="0"/>
        <pt x="320" y="74" on="0"/>
        <pt x="362" y="110" on="0"/>
        <pt x="391" y="159" on="0"/>
        <pt x="395" y="187" on="1"/>
        <pt x="399" y="215" on="0"/>
        <pt x="384" y="265" on="0"/>
        <pt x="353" y="302" on="0"/>
        <pt x="306" y="323" on="0"/>
        <pt x="278" y="323" on="1"/>
        <pt x="250" y="323" on="0"/>
        <pt x="198" y="302" on="0"/>
        <pt x="156" y="265" on="0"/>
        <pt x="129" y="215" on="0"/>
      </contour>
    </TTGlyph>
    <TTGlyph name="oacute" xMin="56" yMin="-8" xMax="472" yMax="612">
      <component glyphName="o" x="0" y="0" flags="0x204"/>
      <component glyphName="acute" x="200" y="0" flags="0x4"/>
    </TTGlyph>
    <TTGlyph name="ocircumflex" xMin="56" yMin="-8" xMax="466" yMax="660">
      <component glyphName="o" x="0" y="0" flags="0x204"/>
      <component glyphName="asciicircum" x="88" y="0" flags="0x4"/>
    </TTGlyph>
    <TTGlyph name="odieresis" xMin="56" yMin="-8" xMax="466" yMax="557">
      <component glyphName="o" x="0" y="0" flags="0x204"/>
      <component glyphName="dieresis" x="111" y="0" flags="0x4"/>
    </TTGlyph>
    <TTGlyph name="ograve" xMin="56" yMin="-8" xMax="466" yMax="612">
      <component glyphName="o" x="0" y="0" flags="0x204"/>
      <component glyphName="grave" x="214" y="0" flags="0x4"/>
    </TTGlyph>
    <TTGlyph name="one" xMin="-9" yMin="0" xMax="223" yMax="650">
      <contour>
        <pt x="-1" y="59" on="1"/>
        <pt x="78" y="59" on="1"/>
        <pt x="152" y="589" on="1"/>
        <pt x="71" y="589" on="1"/>
        <pt x="79" y="650" on="1"/>
        <pt x="223" y="650" on="1"/>
        <pt x="141" y="59" on="1"/>
        <pt x="220" y="59" on="1"/>
        <pt x="212" y="0" on="1"/>
        <pt x="-9" y="0" on="1"/>
      </contour>
    </TTGlyph>
    <TTGlyph name="onehalf" xMin="91" yMin="-19" xMax="868" yMax="736">
      <contour>
        <pt x="96" y="276" on="1"/>
        <pt x="152" y="276" on="1"/>
        <pt x="205" y="652" on="1"/>
        <pt x="147" y="652" on="1"/>
        <pt x="153" y="695" on="1"/>
        <pt x="255" y="695" on="1"/>
        <pt x="197" y="276" on="1"/>
        <pt x="253" y="276" on="1"/>
        <pt x="247" y="234" on="1"/>
        <pt x="91" y="234" on="1"/>
      </contour>
      <contour>
        <pt x="657" y="43" on="1"/>
        <pt x="811" y="43" on="1"/>
        <pt x="821" y="113" on="1"/>
        <pt x="863" y="113" on="1"/>
        <pt x="847" y="0" on="1"/>
        <pt x="543" y="0" on="1"/>
        <pt x="594" y="44" on="0"/>
        <pt x="689" y="128" on="0"/>
        <pt x="764" y="206" on="0"/>
        <pt x="814" y="280" on="0"/>
        <pt x="819" y="313" on="1"/>
        <pt x="823" y="344" on="0"/>
        <pt x="810" y="386" on="0"/>
        <pt x="785" y="412" on="0"/>
        <pt x="753" y="423" on="0"/>
        <pt x="739" y="423" on="1"/>
        <pt x="710" y="423" on="0"/>
        <pt x="669" y="403" on="0"/>
        <pt x="644" y="373" on="0"/>
        <pt x="630" y="339" on="0"/>
        <pt x="628" y="325" on="1"/>
        <pt x="622" y="279" on="0"/>
        <pt x="646" y="249" on="1"/>
        <pt x="615" y="223" on="1"/>
        <pt x="606" y="230" on="0"/>
        <pt x="592" y="254" on="0"/>
        <pt x="584" y="282" on="0"/>
        <pt x="581" y="312" on="0"/>
        <pt x="584" y="325" on="1"/>
        <pt x="588" y="354" on="0"/>
        <pt x="613" y="405" on="0"/>
        <pt x="654" y="444" on="0"/>
        <pt x="711" y="466" on="0"/>
        <pt x="745" y="466" on="1"/>
        <pt x="776" y="466" on="0"/>
        <pt x="824" y="444" on="0"/>
        <pt x="855" y="404" on="0"/>
        <pt x="868" y="352" on="0"/>
        <pt x="864" y="322" on="1"/>
        <pt x="859" y="285" on="0"/>
        <pt x="819" y="214" on="0"/>
        <pt x="762" y="145" on="0"/>
        <pt x="692" y="77" on="0"/>
      </contour>
      <contour>
        <pt x="215" y="-19" on="1"/>
        <pt x="312" y="171" on="0"/>
        <pt x="502" y="546" on="0"/>
        <pt x="599" y="736" on="1"/>
        <pt x="662" y="736" on="1"/>
        <pt x="565" y="546" on="0"/>
        <pt x="374" y="171" on="0"/>
        <pt x="277" y="-19" on="1"/>
      </contour>
    </TTGlyph>
    <TTGlyph name="onequarter" xMin="96" yMin="-19" xMax="836" yMax="736">
      <contour>
        <pt x="215" y="-19" on="1"/>
        <pt x="312" y="171" on="0"/>
        <pt x="502" y="546" on="0"/>
        <pt x="599" y="736" on="1"/>
        <pt x="662" y="736" on="1"/>
        <pt x="565" y="546" on="0"/>
        <pt x="374" y="171" on="0"/>
        <pt x="277" y="-19" on="1"/>
      </contour>
      <contour>
        <pt x="642" y="44" on="1"/>
        <pt x="698" y="44" on="1"/>
        <pt x="711" y="136" on="1"/>
        <pt x="486" y="136" on="1"/>
        <pt x="808" y="490" on="1"/>
        <pt x="764" y="182" on="1"/>
        <pt x="836" y="182" on="1"/>
        <pt x="830" y="136" on="1"/>
        <pt x="758" y="136" on="1"/>
        <pt x="744" y="44" on="1"/>
        <pt x="806" y="44" on="1"/>
        <pt x="800" y="0" on="1"/>
        <pt x="635" y="0" on="1"/>
      </contour>
      <contour>
        <pt x="741" y="353" on="1"/>
        <pt x="586" y="182" on="1"/>
        <pt x="717" y="182" on="1"/>
      </contour>
      <contour>
        <pt x="101" y="276" on="1"/>
        <pt x="157" y="276" on="1"/>
        <pt x="210" y="652" on="1"/>
        <pt x="152" y="652" on="1"/>
        <pt x="158" y="695" on="1"/>
        <pt x="260" y="695" on="1"/>
        <pt x="202" y="276" on="1"/>
        <pt x="258" y="276" on="1"/>
        <pt x="252" y="234" on="1"/>
        <pt x="96" y="234" on="1"/>
      </contour>
    </TTGlyph>
    <TTGlyph name="onesuperior" xMin="42" yMin="401" xMax="148" yMax="700">
      <contour>
        <pt x="46" y="428" on="1"/>
        <pt x="82" y="428" on="1"/>
        <pt x="116" y="672" on="1"/>
        <pt x="79" y="672" on="1"/>
        <pt x="82" y="700" on="1"/>
        <pt x="148" y="700" on="1"/>
        <pt x="111" y="428" on="1"/>
        <pt x="147" y="428" on="1"/>
        <pt x="143" y="401" on="1"/>
        <pt x="42" y="401" on="1"/>
      </contour>
    </TTGlyph>
    <TTGlyph name="ordfeminine" xMin="98" yMin="300" xMax="430" yMax="583">
      <contour>
        <pt x="103" y="441" on="1"/>
        <pt x="107" y="470" on="0"/>
        <pt x="136" y="521" on="0"/>
        <pt x="181" y="560" on="0"/>
        <pt x="236" y="583" on="0"/>
        <pt x="266" y="583" on="1"/>
        <pt x="287" y="583" on="0"/>
        <pt x="320" y="571" on="0"/>
        <pt x="345" y="554" on="0"/>
        <pt x="360" y="535" on="0"/>
        <pt x="362" y="528" on="1"/>
        <pt x="363" y="540" on="0"/>
        <pt x="370" y="564" on="0"/>
        <pt x="371" y="576" on="1"/>
        <pt x="408" y="576" on="1"/>
        <pt x="376" y="349" on="1"/>
        <pt x="430" y="349" on="1"/>
        <pt x="424" y="306" on="1"/>
        <pt x="331" y="306" on="1"/>
        <pt x="334" y="328" on="1"/>
        <pt x="335" y="333" on="0"/>
        <pt x="336" y="346" on="0"/>
        <pt x="337" y="351" on="1"/>
        <pt x="333" y="344" on="0"/>
        <pt x="313" y="327" on="0"/>
        <pt x="285" y="311" on="0"/>
        <pt x="248" y="300" on="0"/>
        <pt x="227" y="300" on="1"/>
        <pt x="197" y="300" on="0"/>
        <pt x="147" y="323" on="0"/>
        <pt x="114" y="361" on="0"/>
        <pt x="98" y="412" on="0"/>
      </contour>
      <contour>
        <pt x="148" y="442" on="1"/>
        <pt x="145" y="421" on="0"/>
        <pt x="155" y="385" on="0"/>
        <pt x="178" y="359" on="0"/>
        <pt x="212" y="344" on="0"/>
        <pt x="233" y="344" on="1"/>
        <pt x="253" y="344" on="0"/>
        <pt x="292" y="359" on="0"/>
        <pt x="322" y="385" on="0"/>
        <pt x="342" y="421" on="0"/>
        <pt x="344" y="442" on="1"/>
        <pt x="347" y="462" on="0"/>
        <pt x="338" y="498" on="0"/>
        <pt x="315" y="524" on="0"/>
        <pt x="281" y="539" on="0"/>
        <pt x="260" y="539" on="1"/>
        <pt x="238" y="539" on="0"/>
        <pt x="200" y="524" on="0"/>
        <pt x="171" y="498" on="0"/>
        <pt x="151" y="462" on="0"/>
      </contour>
    </TTGlyph>
    <TTGlyph name="ordmasculine" xMin="105" yMin="300" xMax="401" yMax="583">
      <contour>
        <pt x="110" y="442" on="1"/>
        <pt x="114" y="470" on="0"/>
        <pt x="144" y="522" on="0"/>
        <pt x="188" y="561" on="0"/>
        <pt x="243" y="583" on="0"/>
        <pt x="273" y="583" on="1"/>
        <pt x="303" y="583" on="0"/>
        <pt x="352" y="561" on="0"/>
        <pt x="386" y="522" on="0"/>
        <pt x="401" y="470" on="0"/>
        <pt x="397" y="442" on="1"/>
        <pt x="392" y="412" on="0"/>
        <pt x="364" y="361" on="0"/>
        <pt x="319" y="323" on="0"/>
        <pt x="263" y="300" on="0"/>
        <pt x="233" y="300" on="1"/>
        <pt x="203" y="300" on="0"/>
        <pt x="154" y="323" on="0"/>
        <pt x="121" y="361" on="0"/>
        <pt x="105" y="412" on="0"/>
      </contour>
      <contour>
        <pt x="155" y="441" on="1"/>
        <pt x="152" y="421" on="0"/>
        <pt x="162" y="385" on="0"/>
        <pt x="185" y="359" on="0"/>
        <pt x="218" y="344" on="0"/>
        <pt x="238" y="344" on="1"/>
        <pt x="258" y="344" on="0"/>
        <pt x="296" y="359" on="0"/>
        <pt x="326" y="385" on="0"/>
        <pt x="347" y="421" on="0"/>
        <pt x="350" y="441" on="1"/>
        <pt x="353" y="461" on="0"/>
        <pt x="342" y="497" on="0"/>
        <pt x="320" y="524" on="0"/>
        <pt x="286" y="539" on="0"/>
        <pt x="266" y="539" on="1"/>
        <pt x="245" y="539" on="0"/>
        <pt x="208" y="524" on="0"/>
        <pt x="178" y="497" on="0"/>
        <pt x="158" y="461" on="0"/>
      </contour>
    </TTGlyph>
    <TTGlyph name="oslash" xMin="47" yMin="-21" xMax="467" yMax="396">
      <contour>
        <pt x="126" y="188" on="1"/>
        <pt x="122" y="164" on="0"/>
        <pt x="132" y="122" on="0"/>
        <pt x="143" y="105" on="1"/>
        <pt x="194" y="156" on="0"/>
        <pt x="292" y="256" on="0"/>
        <pt x="343" y="307" on="1"/>
        <pt x="314" y="323" on="0"/>
        <pt x="281" y="323" on="1"/>
        <pt x="252" y="323" on="0"/>
        <pt x="199" y="302" on="0"/>
        <pt x="158" y="266" on="0"/>
        <pt x="130" y="216" on="0"/>
      </contour>
      <contour>
        <pt x="243" y="53" on="1"/>
        <pt x="272" y="53" on="0"/>
        <pt x="325" y="74" on="0"/>
        <pt x="366" y="110" on="0"/>
        <pt x="394" y="159" on="0"/>
        <pt x="398" y="188" on="1"/>
        <pt x="402" y="215" on="0"/>
        <pt x="390" y="262" on="0"/>
        <pt x="376" y="279" on="1"/>
        <pt x="324" y="228" on="0"/>
        <pt x="223" y="126" on="0"/>
        <pt x="172" y="74" on="1"/>
        <pt x="186" y="64" on="0"/>
        <pt x="222" y="53" on="0"/>
      </contour>
      <contour>
        <pt x="64" y="188" on="1"/>
        <pt x="70" y="228" on="0"/>
        <pt x="110" y="300" on="0"/>
        <pt x="171" y="353" on="0"/>
        <pt x="248" y="384" on="0"/>
        <pt x="289" y="384" on="1"/>
        <pt x="348" y="384" on="0"/>
        <pt x="389" y="354" on="1"/>
        <pt x="400" y="365" on="0"/>
        <pt x="421" y="385" on="0"/>
        <pt x="431" y="396" on="1"/>
        <pt x="439" y="388" on="0"/>
        <pt x="453" y="373" on="0"/>
        <pt x="461" y="365" on="1"/>
        <pt x="422" y="326" on="1"/>
        <pt x="445" y="300" on="0"/>
        <pt x="467" y="229" on="0"/>
        <pt x="461" y="188" on="1"/>
        <pt x="455" y="147" on="0"/>
        <pt x="415" y="76" on="0"/>
        <pt x="353" y="23" on="0"/>
        <pt x="277" y="-8" on="0"/>
        <pt x="235" y="-8" on="1"/>
        <pt x="170" y="-8" on="0"/>
        <pt x="125" y="28" on="1"/>
        <pt x="113" y="16" on="0"/>
        <pt x="90" y="-9" on="0"/>
        <pt x="78" y="-21" on="1"/>
        <pt x="70" y="-13" on="0"/>
        <pt x="55" y="0" on="0"/>
        <pt x="47" y="8" on="1"/>
        <pt x="59" y="21" on="0"/>
        <pt x="83" y="45" on="0"/>
        <pt x="95" y="57" on="1"/>
        <pt x="75" y="83" on="0"/>
        <pt x="59" y="150" on="0"/>
      </contour>
    </TTGlyph>
    <TTGlyph name="otilde" xMin="56" yMin="-8" xMax="466" yMax="549">
      <component glyphName="o" x="0" y="0" flags="0x204"/>
      <component glyphName="asciitilde" x="15" y="0" flags="0x4"/>
    </TTGlyph>
    <TTGlyph name="p" xMin="-1" yMin="-250" xMax="528" yMax="383">
      <contour>
        <pt x="5" y="-191" on="1"/>
        <pt x="72" y="-191" on="1"/>
        <pt x="143" y="315" on="1"/>
        <pt x="68" y="315" on="1"/>
        <pt x="78" y="375" on="1"/>
        <pt x="203" y="375" on="1"/>
        <pt x="201" y="358" on="0"/>
        <pt x="198" y="324" on="0"/>
        <pt x="196" y="307" on="1"/>
        <pt x="202" y="317" on="0"/>
        <pt x="231" y="344" on="0"/>
        <pt x="273" y="367" on="0"/>
        <pt x="324" y="383" on="0"/>
        <pt x="351" y="383" on="1"/>
        <pt x="393" y="383" on="0"/>
        <pt x="461" y="352" on="0"/>
        <pt x="507" y="299" on="0"/>
        <pt x="528" y="228" on="0"/>
        <pt x="523" y="188" on="1"/>
        <pt x="517" y="147" on="0"/>
        <pt x="476" y="76" on="0"/>
        <pt x="414" y="22" on="0"/>
        <pt x="338" y="-9" on="0"/>
        <pt x="296" y="-9" on="1"/>
        <pt x="267" y="-9" on="0"/>
        <pt x="221" y="5" on="0"/>
        <pt x="187" y="26" on="0"/>
        <pt x="166" y="50" on="0"/>
        <pt x="163" y="61" on="1"/>
        <pt x="164" y="53" on="0"/>
        <pt x="165" y="39" on="0"/>
        <pt x="166" y="32" on="1"/>
        <pt x="134" y="-191" on="1"/>
        <pt x="213" y="-191" on="1"/>
        <pt x="205" y="-250" on="1"/>
        <pt x="-1" y="-250" on="1"/>
      </contour>
      <contour>
        <pt x="460" y="188" on="1"/>
        <pt x="464" y="216" on="0"/>
        <pt x="450" y="265" on="0"/>
        <pt x="419" y="301" on="0"/>
        <pt x="372" y="322" on="0"/>
        <pt x="343" y="322" on="1"/>
        <pt x="313" y="322" on="0"/>
        <pt x="260" y="301" on="0"/>
        <pt x="219" y="265" on="0"/>
        <pt x="192" y="216" on="0"/>
        <pt x="188" y="188" on="1"/>
        <pt x="183" y="159" on="0"/>
        <pt x="197" y="110" on="0"/>
        <pt x="228" y="73" on="0"/>
        <pt x="275" y="52" on="0"/>
        <pt x="304" y="52" on="1"/>
        <pt x="333" y="52" on="0"/>
        <pt x="386" y="73" on="0"/>
        <pt x="428" y="110" on="0"/>
        <pt x="456" y="159" on="0"/>
      </contour>
    </TTGlyph>
    <TTGlyph name="paragraph" xMin="115" yMin="0" xMax="612" yMax="750">
      <contour>
        <pt x="263" y="0" on="1"/>
        <pt x="201" y="0" on="1"/>
        <pt x="260" y="423" on="1"/>
        <pt x="226" y="423" on="0"/>
        <pt x="170" y="448" on="0"/>
        <pt x="132" y="492" on="0"/>
        <pt x="115" y="552" on="0"/>
        <pt x="120" y="586" on="1"/>
        <pt x="125" y="620" on="0"/>
        <pt x="159" y="680" on="0"/>
        <pt x="209" y="724" on="0"/>
        <pt x="272" y="750" on="0"/>
        <pt x="306" y="750" on="1"/>
        <pt x="612" y="750" on="1"/>
        <pt x="604" y="697" on="1"/>
        <pt x="524" y="697" on="1"/>
        <pt x="433" y="53" on="1"/>
        <pt x="514" y="53" on="1"/>
        <pt x="507" y="0" on="1"/>
        <pt x="364" y="0" on="1"/>
        <pt x="461" y="697" on="1"/>
        <pt x="361" y="697" on="1"/>
      </contour>
    </TTGlyph>
    <TTGlyph name="parenleft" xMin="114" yMin="-164" xMax="402" yMax="746">
      <contour>
        <pt x="125" y="291" on="1"/>
        <pt x="135" y="366" on="0"/>
        <pt x="182" y="502" on="0"/>
        <pt x="245" y="618" on="0"/>
        <pt x="317" y="713" on="0"/>
        <pt x="353" y="746" on="1"/>
        <pt x="365" y="740" on="0"/>
        <pt x="389" y="729" on="0"/>
        <pt x="402" y="723" on="1"/>
        <pt x="369" y="690" on="0"/>
        <pt x="301" y="600" on="0"/>
        <pt x="242" y="490" on="0"/>
        <pt x="198" y="362" on="0"/>
        <pt x="188" y="291" on="1"/>
        <pt x="178" y="220" on="0"/>
        <pt x="186" y="92" on="0"/>
        <pt x="214" y="-18" on="0"/>
        <pt x="257" y="-108" on="0"/>
        <pt x="281" y="-141" on="1"/>
        <pt x="267" y="-147" on="0"/>
        <pt x="240" y="-158" on="0"/>
        <pt x="226" y="-164" on="1"/>
        <pt x="199" y="-131" on="0"/>
        <pt x="153" y="-36" on="0"/>
        <pt x="123" y="80" on="0"/>
        <pt x="114" y="216" on="0"/>
      </contour>
    </TTGlyph>
    <TTGlyph name="parenright" xMin="24" yMin="-166" xMax="312" yMax="744">
      <contour>
        <pt x="302" y="289" on="1"/>
        <pt x="291" y="214" on="0"/>
        <pt x="244" y="78" on="0"/>
        <pt x="181" y="-38" on="0"/>
        <pt x="109" y="-133" on="0"/>
        <pt x="73" y="-166" on="1"/>
        <pt x="61" y="-161" on="0"/>
        <pt x="36" y="-150" on="0"/>
        <pt x="24" y="-144" on="1"/>
        <pt x="57" y="-111" on="0"/>
        <pt x="125" y="-21" on="0"/>
        <pt x="184" y="89" on="0"/>
        <pt x="228" y="217" on="0"/>
        <pt x="238" y="288" on="1"/>
        <pt x="248" y="359" on="0"/>
        <pt x="240" y="487" on="0"/>
        <pt x="212" y="597" on="0"/>
        <pt x="169" y="687" on="0"/>
        <pt x="145" y="720" on="1"/>
        <pt x="159" y="726" on="0"/>
        <pt x="186" y="738" on="0"/>
        <pt x="200" y="744" on="1"/>
        <pt x="227" y="711" on="0"/>
        <pt x="273" y="616" on="0"/>
        <pt x="303" y="500" on="0"/>
        <pt x="312" y="364" on="0"/>
      </contour>
    </TTGlyph>
    <TTGlyph name="percent" xMin="111" yMin="-10" xMax="628" yMax="510">
      <contour>
        <pt x="442" y="111" on="1"/>
        <pt x="438" y="85" on="0"/>
        <pt x="468" y="51" on="0"/>
        <pt x="494" y="51" on="1"/>
        <pt x="520" y="51" on="0"/>
        <pt x="558" y="85" on="0"/>
        <pt x="562" y="111" on="1"/>
        <pt x="565" y="137" on="0"/>
        <pt x="536" y="171" on="0"/>
        <pt x="510" y="171" on="1"/>
        <pt x="484" y="171" on="0"/>
        <pt x="446" y="137" on="0"/>
      </contour>
      <contour>
        <pt x="485" y="-10" on="1"/>
        <pt x="460" y="-10" on="0"/>
        <pt x="418" y="9" on="0"/>
        <pt x="389" y="42" on="0"/>
        <pt x="376" y="86" on="0"/>
        <pt x="379" y="112" on="1"/>
        <pt x="383" y="137" on="0"/>
        <pt x="409" y="181" on="0"/>
        <pt x="447" y="213" on="0"/>
        <pt x="494" y="232" on="0"/>
        <pt x="519" y="232" on="1"/>
        <pt x="544" y="232" on="0"/>
        <pt x="586" y="213" on="0"/>
        <pt x="615" y="181" on="0"/>
        <pt x="628" y="137" on="0"/>
        <pt x="625" y="112" on="1"/>
        <pt x="621" y="86" on="0"/>
        <pt x="595" y="42" on="0"/>
        <pt x="557" y="9" on="0"/>
        <pt x="510" y="-10" on="0"/>
      </contour>
      <contour>
        <pt x="177" y="389" on="1"/>
        <pt x="173" y="363" on="0"/>
        <pt x="203" y="328" on="0"/>
        <pt x="229" y="328" on="1"/>
        <pt x="255" y="328" on="0"/>
        <pt x="293" y="363" on="0"/>
        <pt x="297" y="389" on="1"/>
        <pt x="300" y="414" on="0"/>
        <pt x="271" y="449" on="0"/>
        <pt x="245" y="449" on="1"/>
        <pt x="219" y="449" on="0"/>
        <pt x="181" y="414" on="0"/>
      </contour>
      <contour>
        <pt x="220" y="267" on="1"/>
        <pt x="195" y="267" on="0"/>
        <pt x="153" y="286" on="0"/>
        <pt x="124" y="319" on="0"/>
        <pt x="111" y="363" on="0"/>
        <pt x="114" y="389" on="1"/>
        <pt x="118" y="414" on="0"/>
        <pt x="144" y="458" on="0"/>
        <pt x="182" y="491" on="0"/>
        <pt x="229" y="510" on="0"/>
        <pt x="254" y="510" on="1"/>
        <pt x="279" y="510" on="0"/>
        <pt x="321" y="491" on="0"/>
        <pt x="350" y="458" on="0"/>
        <pt x="363" y="414" on="0"/>
        <pt x="360" y="389" on="1"/>
        <pt x="356" y="363" on="0"/>
        <pt x="330" y="319" on="0"/>
        <pt x="292" y="286" on="0"/>
        <pt x="245" y="267" on="0"/>
      </contour>
      <contour>
        <pt x="148" y="0" on="1"/>
        <pt x="241" y="126" on="0"/>
        <pt x="424" y="374" on="0"/>
        <pt x="517" y="500" on="1"/>
        <pt x="586" y="500" on="1"/>
        <pt x="493" y="374" on="0"/>
        <pt x="310" y="126" on="0"/>
        <pt x="217" y="0" on="1"/>
      </contour>
    </TTGlyph>
    <TTGlyph name="period" xMin="40" yMin="0" xMax="129" yMax="85">
      <contour>
        <pt x="42" y="42" on="1"/>
        <pt x="45" y="61" on="0"/>
        <pt x="74" y="85" on="0"/>
        <pt x="91" y="85" on="1"/>
        <pt x="107" y="85" on="0"/>
        <pt x="129" y="61" on="0"/>
        <pt x="126" y="42" on="1"/>
        <pt x="124" y="23" on="0"/>
        <pt x="95" y="0" on="0"/>
        <pt x="79" y="0" on="1"/>
        <pt x="62" y="0" on="0"/>
        <pt x="40" y="23" on="0"/>
      </contour>
    </TTGlyph>
    <TTGlyph name="periodcentered" xMin="40" yMin="239" xMax="129" yMax="324">
      <component glyphName="period" x="0" y="239" flags="0x4"/>
    </TTGlyph>
    <TTGlyph name="plus" xMin="81" yMin="51" xMax="450" yMax="411">
      <contour>
        <pt x="208" y="51" on="1"/>
        <pt x="230" y="200" on="1"/>
        <pt x="81" y="200" on="1"/>
        <pt x="90" y="261" on="1"/>
        <pt x="238" y="261" on="1"/>
        <pt x="259" y="411" on="1"/>
        <pt x="322" y="411" on="1"/>
        <pt x="301" y="261" on="1"/>
        <pt x="450" y="261" on="1"/>
        <pt x="441" y="200" on="1"/>
        <pt x="293" y="200" on="1"/>
        <pt x="271" y="51" on="1"/>
      </contour>
    </TTGlyph>
    <TTGlyph name="plusminus" xMin="86" yMin="111" xMax="489" yMax="571">
      <contour>
        <pt x="248" y="211" on="1"/>
        <pt x="269" y="360" on="1"/>
        <pt x="121" y="360" on="1"/>
        <pt x="129" y="421" on="1"/>
        <pt x="277" y="421" on="1"/>
        <pt x="299" y="571" on="1"/>
        <pt x="362" y="571" on="1"/>
        <pt x="340" y="421" on="1"/>
        <pt x="489" y="421" on="1"/>
        <pt x="481" y="360" on="1"/>
        <pt x="332" y="360" on="1"/>
        <pt x="311" y="211" on="1"/>
      </contour>
      <contour>
        <pt x="446" y="111" on="1"/>
        <pt x="86" y="111" on="1"/>
        <pt x="94" y="172" on="1"/>
        <pt x="454" y="172" on="1"/>
      </contour>
    </TTGlyph>
    <TTGlyph name="q" xMin="90" yMin="-250" xMax="597" yMax="383">
      <contour>
        <pt x="298" y="-191" on="1"/>
        <pt x="378" y="-191" on="1"/>
        <pt x="409" y="32" on="1"/>
        <pt x="411" y="39" on="0"/>
        <pt x="417" y="53" on="0"/>
        <pt x="420" y="61" on="1"/>
        <pt x="413" y="50" on="0"/>
        <pt x="385" y="26" on="0"/>
        <pt x="345" y="5" on="0"/>
        <pt x="295" y="-9" on="0"/>
        <pt x="267" y="-9" on="1"/>
        <pt x="225" y="-9" on="0"/>
        <pt x="157" y="22" on="0"/>
        <pt x="111" y="76" on="0"/>
        <pt x="90" y="147" on="0"/>
        <pt x="96" y="188" on="1"/>
        <pt x="102" y="228" on="0"/>
        <pt x="142" y="299" on="0"/>
        <pt x="204" y="352" on="0"/>
        <pt x="281" y="383" on="0"/>
        <pt x="323" y="383" on="1"/>
        <pt x="350" y="383" on="0"/>
        <pt x="396" y="367" on="0"/>
        <pt x="431" y="344" on="0"/>
        <pt x="452" y="317" on="0"/>
        <pt x="455" y="307" on="1"/>
        <pt x="457" y="324" on="0"/>
        <pt x="466" y="358" on="0"/>
        <pt x="468" y="375" on="1"/>
        <pt x="597" y="375" on="1"/>
        <pt x="589" y="315" on="1"/>
        <pt x="511" y="315" on="1"/>
        <pt x="440" y="-191" on="1"/>
        <pt x="506" y="-191" on="1"/>
        <pt x="498" y="-250" on="1"/>
        <pt x="290" y="-250" on="1"/>
      </contour>
      <contour>
        <pt x="159" y="188" on="1"/>
        <pt x="155" y="159" on="0"/>
        <pt x="168" y="110" on="0"/>
        <pt x="200" y="73" on="0"/>
        <pt x="247" y="52" on="0"/>
        <pt x="276" y="52" on="1"/>
        <pt x="305" y="52" on="0"/>
        <pt x="358" y="73" on="0"/>
        <pt x="400" y="110" on="0"/>
        <pt x="427" y="159" on="0"/>
        <pt x="431" y="188" on="1"/>
        <pt x="435" y="216" on="0"/>
        <pt x="422" y="265" on="0"/>
        <pt x="390" y="301" on="0"/>
        <pt x="343" y="322" on="0"/>
        <pt x="314" y="322" on="1"/>
        <pt x="284" y="322" on="0"/>
        <pt x="231" y="301" on="0"/>
        <pt x="190" y="265" on="0"/>
        <pt x="163" y="216" on="0"/>
      </contour>
    </TTGlyph>
    <TTGlyph name="question" xMin="67" yMin="8" xMax="459" yMax="732">
      <contour>
        <pt x="120" y="565" on="1"/>
        <pt x="107" y="570" on="0"/>
        <pt x="81" y="580" on="0"/>
        <pt x="67" y="585" on="1"/>
        <pt x="79" y="609" on="0"/>
        <pt x="115" y="661" on="0"/>
        <pt x="168" y="704" on="0"/>
        <pt x="239" y="732" on="0"/>
        <pt x="284" y="732" on="1"/>
        <pt x="325" y="732" on="0"/>
        <pt x="393" y="701" on="0"/>
        <pt x="438" y="648" on="0"/>
        <pt x="459" y="577" on="0"/>
        <pt x="453" y="537" on="1"/>
        <pt x="445" y="482" on="0"/>
        <pt x="381" y="399" on="0"/>
        <pt x="330" y="366" on="1"/>
        <pt x="313" y="354" on="0"/>
        <pt x="277" y="334" on="0"/>
        <pt x="247" y="308" on="0"/>
        <pt x="225" y="270" on="0"/>
        <pt x="221" y="242" on="1"/>
        <pt x="210" y="164" on="1"/>
        <pt x="147" y="164" on="1"/>
        <pt x="161" y="261" on="1"/>
        <pt x="165" y="292" on="0"/>
        <pt x="192" y="332" on="0"/>
        <pt x="231" y="362" on="0"/>
        <pt x="278" y="389" on="0"/>
        <pt x="304" y="409" on="1"/>
        <pt x="342" y="436" on="0"/>
        <pt x="384" y="500" on="0"/>
        <pt x="389" y="537" on="1"/>
        <pt x="393" y="566" on="0"/>
        <pt x="380" y="615" on="0"/>
        <pt x="350" y="651" on="0"/>
        <pt x="304" y="671" on="0"/>
        <pt x="276" y="671" on="1"/>
        <pt x="219" y="671" on="0"/>
        <pt x="143" y="616" on="0"/>
      </contour>
      <contour>
        <pt x="156" y="8" on="1"/>
        <pt x="140" y="8" on="0"/>
        <pt x="117" y="31" on="0"/>
        <pt x="120" y="50" on="1"/>
        <pt x="122" y="68" on="0"/>
        <pt x="152" y="93" on="0"/>
        <pt x="168" y="93" on="1"/>
        <pt x="183" y="93" on="0"/>
        <pt x="206" y="68" on="0"/>
        <pt x="203" y="50" on="1"/>
        <pt x="201" y="31" on="0"/>
        <pt x="171" y="8" on="0"/>
      </contour>
    </TTGlyph>
    <TTGlyph name="questiondown" xMin="3" yMin="-193" xMax="395" yMax="531">
      <component glyphName="question" x="462" y="539" scale="-0.999877929688" flags="0x4"/>
    </TTGlyph>
    <TTGlyph name="quotedbl" xMin="45" yMin="472" xMax="276" yMax="720">
      <contour>
        <pt x="178" y="472" on="1"/>
        <pt x="213" y="720" on="1"/>
        <pt x="276" y="720" on="1"/>
        <pt x="266" y="657" on="0"/>
        <pt x="247" y="535" on="0"/>
        <pt x="237" y="472" on="1"/>
      </contour>
      <contour>
        <pt x="45" y="472" on="1"/>
        <pt x="80" y="720" on="1"/>
        <pt x="143" y="720" on="1"/>
        <pt x="133" y="657" on="0"/>
        <pt x="114" y="535" on="0"/>
        <pt x="104" y="472" on="1"/>
      </contour>
    </TTGlyph>
    <TTGlyph name="quotedblbase" xMin="22" yMin="-51" xMax="220" yMax="92">
      <contour>
        <pt x="50" y="-51" on="1"/>
        <pt x="42" y="-46" on="0"/>
        <pt x="29" y="-34" on="0"/>
        <pt x="22" y="-29" on="1"/>
        <pt x="46" y="-9" on="0"/>
        <pt x="73" y="50" on="0"/>
        <pt x="71" y="85" on="1"/>
        <pt x="82" y="87" on="0"/>
        <pt x="103" y="90" on="0"/>
        <pt x="114" y="92" on="1"/>
        <pt x="116" y="51" on="0"/>
        <pt x="82" y="-24" on="0"/>
      </contour>
      <contour>
        <pt x="154" y="-51" on="1"/>
        <pt x="146" y="-46" on="0"/>
        <pt x="133" y="-34" on="0"/>
        <pt x="126" y="-29" on="1"/>
        <pt x="150" y="-9" on="0"/>
        <pt x="177" y="50" on="0"/>
        <pt x="175" y="85" on="1"/>
        <pt x="186" y="87" on="0"/>
        <pt x="207" y="90" on="0"/>
        <pt x="218" y="92" on="1"/>
        <pt x="220" y="51" on="0"/>
        <pt x="186" y="-24" on="0"/>
      </contour>
    </TTGlyph>
    <TTGlyph name="quotedblleft" xMin="37" yMin="568" xMax="213" yMax="711">
      <contour>
        <pt x="213" y="590" on="1"/>
        <pt x="204" y="585" on="0"/>
        <pt x="188" y="573" on="0"/>
        <pt x="180" y="568" on="1"/>
        <pt x="155" y="595" on="0"/>
        <pt x="141" y="670" on="0"/>
        <pt x="155" y="711" on="1"/>
        <pt x="165" y="709" on="0"/>
        <pt x="185" y="706" on="0"/>
        <pt x="196" y="704" on="1"/>
        <pt x="184" y="669" on="0"/>
        <pt x="195" y="610" on="0"/>
      </contour>
      <contour>
        <pt x="109" y="590" on="1"/>
        <pt x="100" y="585" on="0"/>
        <pt x="84" y="573" on="0"/>
        <pt x="76" y="568" on="1"/>
        <pt x="51" y="595" on="0"/>
        <pt x="37" y="670" on="0"/>
        <pt x="51" y="711" on="1"/>
        <pt x="61" y="709" on="0"/>
        <pt x="81" y="706" on="0"/>
        <pt x="92" y="704" on="1"/>
        <pt x="80" y="669" on="0"/>
        <pt x="91" y="610" on="0"/>
      </contour>
    </TTGlyph>
    <TTGlyph name="quotedblright" xMin="24" yMin="568" xMax="222" yMax="711">
      <contour>
        <pt x="51" y="568" on="1"/>
        <pt x="44" y="573" on="0"/>
        <pt x="31" y="585" on="0"/>
        <pt x="24" y="590" on="1"/>
        <pt x="48" y="610" on="0"/>
        <pt x="75" y="669" on="0"/>
        <pt x="73" y="704" on="1"/>
        <pt x="83" y="706" on="0"/>
        <pt x="105" y="709" on="0"/>
        <pt x="116" y="711" on="1"/>
        <pt x="118" y="670" on="0"/>
        <pt x="83" y="595" on="0"/>
      </contour>
      <contour>
        <pt x="155" y="568" on="1"/>
        <pt x="148" y="573" on="0"/>
        <pt x="135" y="585" on="0"/>
        <pt x="128" y="590" on="1"/>
        <pt x="152" y="610" on="0"/>
        <pt x="179" y="669" on="0"/>
        <pt x="177" y="704" on="1"/>
        <pt x="187" y="706" on="0"/>
        <pt x="209" y="709" on="0"/>
        <pt x="220" y="711" on="1"/>
        <pt x="222" y="670" on="0"/>
        <pt x="187" y="595" on="0"/>
      </contour>
    </TTGlyph>
    <TTGlyph name="quoteleft" xMin="39" yMin="568" xMax="111" yMax="711">
      <contour>
        <pt x="111" y="590" on="1"/>
        <pt x="103" y="585" on="0"/>
        <pt x="86" y="573" on="0"/>
        <pt x="78" y="568" on="1"/>
        <pt x="53" y="595" on="0"/>
        <pt x="39" y="670" on="0"/>
        <pt x="53" y="711" on="1"/>
        <pt x="64" y="709" on="0"/>
        <pt x="84" y="706" on="0"/>
        <pt x="94" y="704" on="1"/>
        <pt x="83" y="669" on="0"/>
        <pt x="93" y="610" on="0"/>
      </contour>
    </TTGlyph>
    <TTGlyph name="quoteright" xMin="45" yMin="568" xMax="139" yMax="711">
      <contour>
        <pt x="73" y="568" on="1"/>
        <pt x="65" y="573" on="0"/>
        <pt x="52" y="585" on="0"/>
        <pt x="45" y="590" on="1"/>
        <pt x="69" y="610" on="0"/>
        <pt x="96" y="669" on="0"/>
        <pt x="94" y="704" on="1"/>
        <pt x="105" y="706" on="0"/>
        <pt x="126" y="709" on="0"/>
        <pt x="137" y="711" on="1"/>
        <pt x="139" y="670" on="0"/>
        <pt x="105" y="595" on="0"/>
      </contour>
    </TTGlyph>
    <TTGlyph name="quotesinglbase" xMin="22" yMin="-51" xMax="116" yMax="92">
      <contour>
        <pt x="50" y="-51" on="1"/>
        <pt x="42" y="-46" on="0"/>
        <pt x="29" y="-34" on="0"/>
        <pt x="22" y="-29" on="1"/>
        <pt x="46" y="-9" on="0"/>
        <pt x="73" y="50" on="0"/>
        <pt x="71" y="85" on="1"/>
        <pt x="82" y="87" on="0"/>
        <pt x="103" y="90" on="0"/>
        <pt x="114" y="92" on="1"/>
        <pt x="116" y="51" on="0"/>
        <pt x="82" y="-24" on="0"/>
      </contour>
    </TTGlyph>
    <TTGlyph name="quotesingle" xMin="31" yMin="472" xMax="131" yMax="720">
      <contour>
        <pt x="31" y="472" on="1"/>
        <pt x="66" y="720" on="1"/>
        <pt x="131" y="720" on="1"/>
        <pt x="121" y="657" on="0"/>
        <pt x="102" y="535" on="0"/>
        <pt x="92" y="472" on="1"/>
      </contour>
    </TTGlyph>
    <TTGlyph name="r" xMin="35" yMin="0" xMax="375" yMax="383">
      <contour>
        <pt x="43" y="59" on="1"/>
        <pt x="120" y="59" on="1"/>
        <pt x="156" y="315" on="1"/>
        <pt x="87" y="315" on="1"/>
        <pt x="95" y="375" on="1"/>
        <pt x="217" y="375" on="1"/>
        <pt x="215" y="353" on="1"/>
        <pt x="213" y="332" on="0"/>
        <pt x="212" y="299" on="0"/>
        <pt x="210" y="278" on="1"/>
        <pt x="225" y="303" on="0"/>
        <pt x="266" y="342" on="0"/>
        <pt x="311" y="369" on="0"/>
        <pt x="356" y="383" on="0"/>
        <pt x="375" y="383" on="1"/>
        <pt x="362" y="322" on="1"/>
        <pt x="299" y="321" on="0"/>
        <pt x="209" y="249" on="0"/>
        <pt x="201" y="193" on="1"/>
        <pt x="182" y="59" on="1"/>
        <pt x="251" y="59" on="1"/>
        <pt x="243" y="0" on="1"/>
        <pt x="35" y="0" on="1"/>
      </contour>
    </TTGlyph>
    <TTGlyph name="registered" xMin="167" yMin="113" xMax="704" yMax="632">
      <contour>
        <pt x="403" y="143" on="1"/>
        <pt x="451" y="143" on="0"/>
        <pt x="540" y="178" on="0"/>
        <pt x="610" y="239" on="0"/>
        <pt x="657" y="323" on="0"/>
        <pt x="664" y="372" on="1"/>
        <pt x="671" y="422" on="0"/>
        <pt x="648" y="506" on="0"/>
        <pt x="595" y="568" on="0"/>
        <pt x="516" y="602" on="0"/>
        <pt x="468" y="602" on="1"/>
        <pt x="420" y="602" on="0"/>
        <pt x="332" y="568" on="0"/>
        <pt x="261" y="506" on="0"/>
        <pt x="214" y="422" on="0"/>
        <pt x="207" y="372" on="1"/>
        <pt x="200" y="323" on="0"/>
        <pt x="224" y="239" on="0"/>
        <pt x="277" y="178" on="0"/>
        <pt x="355" y="143" on="0"/>
      </contour>
      <contour>
        <pt x="400" y="113" on="1"/>
        <pt x="346" y="113" on="0"/>
        <pt x="256" y="152" on="0"/>
        <pt x="195" y="222" on="0"/>
        <pt x="167" y="316" on="0"/>
        <pt x="175" y="372" on="1"/>
        <pt x="183" y="428" on="0"/>
        <pt x="237" y="524" on="0"/>
        <pt x="318" y="593" on="0"/>
        <pt x="418" y="632" on="0"/>
        <pt x="472" y="632" on="1"/>
        <pt x="526" y="632" on="0"/>
        <pt x="615" y="593" on="0"/>
        <pt x="676" y="524" on="0"/>
        <pt x="704" y="428" on="0"/>
        <pt x="696" y="372" on="1"/>
        <pt x="688" y="316" on="0"/>
        <pt x="635" y="222" on="0"/>
        <pt x="554" y="152" on="0"/>
        <pt x="454" y="113" on="0"/>
      </contour>
      <contour>
        <pt x="313" y="238" on="1"/>
        <pt x="338" y="238" on="1"/>
        <pt x="377" y="513" on="1"/>
        <pt x="352" y="513" on="1"/>
        <pt x="356" y="541" on="1"/>
        <pt x="455" y="541" on="1"/>
        <pt x="471" y="541" on="0"/>
        <pt x="507" y="531" on="0"/>
        <pt x="536" y="510" on="0"/>
        <pt x="553" y="477" on="0"/>
        <pt x="550" y="453" on="1"/>
        <pt x="545" y="418" on="0"/>
        <pt x="502" y="372" on="0"/>
        <pt x="467" y="364" on="1"/>
        <pt x="509" y="238" on="1"/>
        <pt x="552" y="238" on="1"/>
        <pt x="548" y="210" on="1"/>
        <pt x="487" y="210" on="1"/>
        <pt x="436" y="362" on="1"/>
        <pt x="415" y="362" on="1"/>
        <pt x="385" y="362" on="1"/>
        <pt x="368" y="238" on="1"/>
        <pt x="418" y="238" on="1"/>
        <pt x="415" y="210" on="1"/>
        <pt x="310" y="210" on="1"/>
      </contour>
      <contour>
        <pt x="389" y="390" on="1"/>
        <pt x="435" y="390" on="1"/>
        <pt x="457" y="390" on="0"/>
        <pt x="489" y="402" on="0"/>
        <pt x="509" y="421" on="0"/>
        <pt x="519" y="443" on="0"/>
        <pt x="520" y="453" on="1"/>
        <pt x="524" y="477" on="0"/>
        <pt x="485" y="513" on="0"/>
        <pt x="452" y="513" on="1"/>
        <pt x="407" y="513" on="1"/>
      </contour>
    </TTGlyph>
    <TTGlyph name="s" xMin="54" yMin="-8" xMax="330" yMax="382">
      <contour>
        <pt x="121" y="111" on="1"/>
        <pt x="115" y="66" on="1"/>
        <pt x="129" y="57" on="0"/>
        <pt x="161" y="53" on="0"/>
        <pt x="181" y="53" on="1"/>
        <pt x="186" y="53" on="0"/>
        <pt x="206" y="57" on="0"/>
        <pt x="227" y="69" on="0"/>
        <pt x="245" y="89" on="0"/>
        <pt x="248" y="106" on="1"/>
        <pt x="252" y="128" on="0"/>
        <pt x="231" y="151" on="0"/>
        <pt x="195" y="166" on="0"/>
        <pt x="152" y="179" on="0"/>
        <pt x="116" y="201" on="0"/>
        <pt x="96" y="240" on="0"/>
        <pt x="101" y="274" on="1"/>
        <pt x="105" y="303" on="0"/>
        <pt x="132" y="344" on="0"/>
        <pt x="170" y="370" on="0"/>
        <pt x="212" y="382" on="0"/>
        <pt x="230" y="382" on="1"/>
        <pt x="237" y="382" on="0"/>
        <pt x="263" y="379" on="0"/>
        <pt x="293" y="371" on="0"/>
        <pt x="321" y="356" on="0"/>
        <pt x="330" y="344" on="1"/>
        <pt x="318" y="264" on="1"/>
        <pt x="262" y="264" on="1"/>
        <pt x="270" y="311" on="1"/>
        <pt x="260" y="318" on="0"/>
        <pt x="231" y="322" on="0"/>
        <pt x="223" y="322" on="1"/>
        <pt x="200" y="322" on="0"/>
        <pt x="165" y="298" on="0"/>
        <pt x="163" y="273" on="1"/>
        <pt x="162" y="256" on="0"/>
        <pt x="187" y="236" on="0"/>
        <pt x="222" y="220" on="0"/>
        <pt x="264" y="204" on="0"/>
        <pt x="297" y="178" on="0"/>
        <pt x="316" y="138" on="0"/>
        <pt x="312" y="107" on="1"/>
        <pt x="310" y="92" on="0"/>
        <pt x="293" y="52" on="0"/>
        <pt x="259" y="16" on="0"/>
        <pt x="208" y="-8" on="0"/>
        <pt x="171" y="-8" on="1"/>
        <pt x="157" y="-8" on="0"/>
        <pt x="123" y="-4" on="0"/>
        <pt x="91" y="5" on="0"/>
        <pt x="63" y="20" on="0"/>
        <pt x="54" y="31" on="1"/>
        <pt x="65" y="111" on="1"/>
      </contour>
    </TTGlyph>
    <TTGlyph name="section" xMin="179" yMin="-38" xMax="447" yMax="752">
      <contour>
        <pt x="241" y="345" on="1"/>
        <pt x="242" y="318" on="0"/>
        <pt x="279" y="285" on="0"/>
        <pt x="307" y="286" on="1"/>
        <pt x="322" y="286" on="0"/>
        <pt x="350" y="299" on="0"/>
        <pt x="372" y="320" on="0"/>
        <pt x="386" y="348" on="0"/>
        <pt x="387" y="363" on="1"/>
        <pt x="390" y="395" on="0"/>
        <pt x="350" y="436" on="0"/>
        <pt x="319" y="434" on="1"/>
        <pt x="301" y="433" on="0"/>
        <pt x="271" y="417" on="0"/>
        <pt x="250" y="392" on="0"/>
        <pt x="239" y="361" on="0"/>
      </contour>
      <contour>
        <pt x="252" y="150" on="1"/>
        <pt x="235" y="186" on="0"/>
        <pt x="213" y="234" on="0"/>
        <pt x="199" y="264" on="0"/>
        <pt x="192" y="282" on="0"/>
        <pt x="190" y="289" on="1"/>
        <pt x="180" y="311" on="0"/>
        <pt x="179" y="361" on="0"/>
        <pt x="195" y="410" on="0"/>
        <pt x="227" y="454" on="0"/>
        <pt x="250" y="469" on="1"/>
        <pt x="289" y="493" on="0"/>
        <pt x="335" y="487" on="1"/>
        <pt x="325" y="507" on="0"/>
        <pt x="309" y="547" on="0"/>
        <pt x="299" y="568" on="1"/>
        <pt x="286" y="598" on="0"/>
        <pt x="280" y="642" on="0"/>
        <pt x="289" y="674" on="0"/>
        <pt x="310" y="698" on="0"/>
        <pt x="324" y="707" on="1"/>
        <pt x="341" y="720" on="0"/>
        <pt x="385" y="741" on="0"/>
        <pt x="404" y="752" on="1"/>
        <pt x="409" y="739" on="0"/>
        <pt x="422" y="713" on="0"/>
        <pt x="428" y="700" on="1"/>
        <pt x="416" y="694" on="0"/>
        <pt x="394" y="682" on="0"/>
        <pt x="382" y="676" on="1"/>
        <pt x="356" y="661" on="0"/>
        <pt x="349" y="620" on="0"/>
        <pt x="368" y="576" on="1"/>
        <pt x="369" y="576" on="1"/>
        <pt x="386" y="538" on="0"/>
        <pt x="419" y="464" on="0"/>
        <pt x="436" y="426" on="1"/>
        <pt x="446" y="404" on="0"/>
        <pt x="447" y="354" on="0"/>
        <pt x="431" y="306" on="0"/>
        <pt x="398" y="264" on="0"/>
        <pt x="375" y="249" on="1"/>
        <pt x="335" y="223" on="0"/>
        <pt x="290" y="229" on="1"/>
        <pt x="299" y="209" on="0"/>
        <pt x="317" y="167" on="0"/>
        <pt x="327" y="147" on="1"/>
        <pt x="340" y="117" on="0"/>
        <pt x="347" y="72" on="0"/>
        <pt x="338" y="39" on="0"/>
        <pt x="317" y="16" on="0"/>
        <pt x="303" y="7" on="1"/>
        <pt x="285" y="-6" on="0"/>
        <pt x="243" y="-27" on="0"/>
        <pt x="224" y="-38" on="1"/>
        <pt x="218" y="-25" on="0"/>
        <pt x="206" y="1" on="0"/>
        <pt x="199" y="15" on="1"/>
        <pt x="211" y="21" on="0"/>
        <pt x="234" y="33" on="0"/>
        <pt x="246" y="39" on="1"/>
        <pt x="259" y="46" on="0"/>
        <pt x="274" y="64" on="0"/>
        <pt x="275" y="89" on="0"/>
        <pt x="264" y="124" on="0"/>
      </contour>
    </TTGlyph>
    <TTGlyph name="semicolon" xMin="-36" yMin="-120" xMax="183" yMax="335">
      <contour>
        <pt x="96" y="292" on="1"/>
        <pt x="99" y="311" on="0"/>
        <pt x="129" y="335" on="0"/>
        <pt x="145" y="335" on="1"/>
        <pt x="161" y="335" on="0"/>
        <pt x="183" y="311" on="0"/>
        <pt x="181" y="292" on="1"/>
        <pt x="178" y="273" on="0"/>
        <pt x="149" y="250" on="0"/>
        <pt x="133" y="250" on="1"/>
        <pt x="117" y="250" on="0"/>
        <pt x="94" y="273" on="0"/>
      </contour>
      <contour>
        <pt x="134" y="86" on="1"/>
        <pt x="105" y="34" on="0"/>
        <pt x="49" y="-68" on="0"/>
        <pt x="20" y="-120" on="1"/>
        <pt x="-36" y="-120" on="1"/>
        <pt x="-10" y="-68" on="0"/>
        <pt x="42" y="34" on="0"/>
        <pt x="69" y="86" on="1"/>
      </contour>
    </TTGlyph>
    <TTGlyph name="seven" xMin="14" yMin="0" xMax="468" yMax="650">
      <contour>
        <pt x="468" y="650" on="1"/>
        <pt x="85" y="0" on="1"/>
        <pt x="14" y="0" on="1"/>
        <pt x="362" y="588" on="1"/>
        <pt x="110" y="588" on="1"/>
        <pt x="103" y="535" on="1"/>
        <pt x="43" y="535" on="1"/>
        <pt x="59" y="650" on="1"/>
      </contour>
    </TTGlyph>
    <TTGlyph name="six" xMin="27" yMin="-8" xMax="467" yMax="636">
      <contour>
        <pt x="97" y="204" on="1"/>
        <pt x="92" y="173" on="0"/>
        <pt x="108" y="118" on="0"/>
        <pt x="142" y="77" on="0"/>
        <pt x="193" y="53" on="0"/>
        <pt x="224" y="53" on="1"/>
        <pt x="255" y="53" on="0"/>
        <pt x="314" y="77" on="0"/>
        <pt x="362" y="118" on="0"/>
        <pt x="393" y="173" on="0"/>
        <pt x="398" y="204" on="1"/>
        <pt x="402" y="235" on="0"/>
        <pt x="386" y="290" on="0"/>
        <pt x="350" y="330" on="0"/>
        <pt x="298" y="354" on="0"/>
        <pt x="267" y="354" on="1"/>
        <pt x="236" y="354" on="0"/>
        <pt x="178" y="330" on="0"/>
        <pt x="132" y="290" on="0"/>
        <pt x="101" y="235" on="0"/>
      </contour>
      <contour>
        <pt x="32" y="196" on="1"/>
        <pt x="42" y="268" on="0"/>
        <pt x="121" y="393" on="0"/>
        <pt x="232" y="501" on="0"/>
        <pt x="363" y="595" on="0"/>
        <pt x="425" y="636" on="1"/>
        <pt x="433" y="624" on="0"/>
        <pt x="449" y="599" on="0"/>
        <pt x="457" y="587" on="1"/>
        <pt x="363" y="530" on="0"/>
        <pt x="243" y="429" on="0"/>
        <pt x="209" y="390" on="1"/>
        <pt x="223" y="401" on="0"/>
        <pt x="256" y="415" on="0"/>
        <pt x="275" y="415" on="1"/>
        <pt x="319" y="415" on="0"/>
        <pt x="393" y="382" on="0"/>
        <pt x="444" y="325" on="0"/>
        <pt x="467" y="248" on="0"/>
        <pt x="461" y="204" on="1"/>
        <pt x="455" y="160" on="0"/>
        <pt x="409" y="83" on="0"/>
        <pt x="343" y="26" on="0"/>
        <pt x="260" y="-8" on="0"/>
        <pt x="216" y="-8" on="1"/>
        <pt x="173" y="-8" on="0"/>
        <pt x="101" y="24" on="0"/>
        <pt x="51" y="79" on="0"/>
        <pt x="27" y="154" on="0"/>
      </contour>
    </TTGlyph>
    <TTGlyph name="slash" xMin="-36" yMin="-19" xMax="411" yMax="736">
      <contour>
        <pt x="-36" y="-19" on="1"/>
        <pt x="61" y="171" on="0"/>
        <pt x="251" y="546" on="0"/>
        <pt x="348" y="736" on="1"/>
        <pt x="411" y="736" on="1"/>
        <pt x="314" y="546" on="0"/>
        <pt x="123" y="171" on="0"/>
        <pt x="26" y="-19" on="1"/>
      </contour>
    </TTGlyph>
    <TTGlyph name="sterling" xMin="28" yMin="0" xMax="565" yMax="634">
      <contour>
        <pt x="529" y="0" on="1"/>
        <pt x="28" y="0" on="1"/>
        <pt x="36" y="61" on="1"/>
        <pt x="80" y="61" on="1"/>
        <pt x="96" y="61" on="0"/>
        <pt x="118" y="70" on="0"/>
        <pt x="133" y="96" on="0"/>
        <pt x="143" y="141" on="0"/>
        <pt x="148" y="176" on="1"/>
        <pt x="164" y="284" on="1"/>
        <pt x="99" y="284" on="1"/>
        <pt x="107" y="345" on="1"/>
        <pt x="172" y="345" on="1"/>
        <pt x="194" y="500" on="1"/>
        <pt x="204" y="569" on="0"/>
        <pt x="321" y="634" on="0"/>
        <pt x="415" y="634" on="1"/>
        <pt x="482" y="634" on="0"/>
        <pt x="551" y="577" on="0"/>
        <pt x="565" y="537" on="1"/>
        <pt x="514" y="510" on="1"/>
        <pt x="508" y="522" on="0"/>
        <pt x="495" y="544" on="0"/>
        <pt x="472" y="562" on="0"/>
        <pt x="435" y="573" on="0"/>
        <pt x="406" y="573" on="1"/>
        <pt x="333" y="573" on="0"/>
        <pt x="262" y="533" on="0"/>
        <pt x="255" y="486" on="1"/>
        <pt x="235" y="345" on="1"/>
        <pt x="355" y="345" on="1"/>
        <pt x="347" y="284" on="1"/>
        <pt x="227" y="284" on="1"/>
        <pt x="207" y="147" on="1"/>
        <pt x="203" y="118" on="0"/>
        <pt x="190" y="75" on="0"/>
        <pt x="173" y="61" on="1"/>
        <pt x="474" y="61" on="1"/>
        <pt x="488" y="161" on="1"/>
        <pt x="551" y="161" on="1"/>
      </contour>
    </TTGlyph>
    <TTGlyph name="t" xMin="79" yMin="0" xMax="341" yMax="619">
      <contour>
        <pt x="206" y="619" on="1"/>
        <pt x="269" y="619" on="1"/>
        <pt x="235" y="375" on="1"/>
        <pt x="341" y="375" on="1"/>
        <pt x="333" y="314" on="1"/>
        <pt x="226" y="314" on="1"/>
        <pt x="191" y="59" on="1"/>
        <pt x="269" y="59" on="1"/>
        <pt x="261" y="0" on="1"/>
        <pt x="120" y="0" on="1"/>
        <pt x="164" y="314" on="1"/>
        <pt x="79" y="314" on="1"/>
        <pt x="87" y="375" on="1"/>
        <pt x="172" y="375" on="1"/>
      </contour>
    </TTGlyph>
    <TTGlyph name="thorn" xMin="-54" yMin="-250" xMax="487" yMax="750">
      <contour>
        <pt x="-46" y="-191" on="1"/>
        <pt x="30" y="-191" on="1"/>
        <pt x="155" y="690" on="1"/>
        <pt x="78" y="690" on="1"/>
        <pt x="86" y="750" on="1"/>
        <pt x="294" y="750" on="1"/>
        <pt x="285" y="690" on="1"/>
        <pt x="217" y="690" on="1"/>
        <pt x="168" y="348" on="1"/>
        <pt x="165" y="337" on="0"/>
        <pt x="158" y="318" on="0"/>
        <pt x="156" y="307" on="1"/>
        <pt x="162" y="318" on="0"/>
        <pt x="190" y="344" on="0"/>
        <pt x="231" y="367" on="0"/>
        <pt x="282" y="382" on="0"/>
        <pt x="309" y="382" on="1"/>
        <pt x="351" y="382" on="0"/>
        <pt x="419" y="351" on="0"/>
        <pt x="466" y="298" on="0"/>
        <pt x="487" y="227" on="0"/>
        <pt x="481" y="187" on="1"/>
        <pt x="475" y="147" on="0"/>
        <pt x="435" y="76" on="0"/>
        <pt x="373" y="22" on="0"/>
        <pt x="296" y="-9" on="0"/>
        <pt x="254" y="-9" on="1"/>
        <pt x="225" y="-9" on="0"/>
        <pt x="180" y="5" on="0"/>
        <pt x="146" y="26" on="0"/>
        <pt x="125" y="50" on="0"/>
        <pt x="122" y="61" on="1"/>
        <pt x="123" y="53" on="0"/>
        <pt x="124" y="39" on="0"/>
        <pt x="124" y="32" on="1"/>
        <pt x="93" y="-191" on="1"/>
        <pt x="175" y="-191" on="1"/>
        <pt x="167" y="-250" on="1"/>
        <pt x="-54" y="-250" on="1"/>
      </contour>
      <contour>
        <pt x="418" y="188" on="1"/>
        <pt x="422" y="216" on="0"/>
        <pt x="409" y="265" on="0"/>
        <pt x="377" y="301" on="0"/>
        <pt x="330" y="322" on="0"/>
        <pt x="301" y="322" on="1"/>
        <pt x="272" y="322" on="0"/>
        <pt x="219" y="301" on="0"/>
        <pt x="178" y="265" on="0"/>
        <pt x="150" y="216" on="0"/>
        <pt x="146" y="188" on="1"/>
        <pt x="142" y="159" on="0"/>
        <pt x="156" y="110" on="0"/>
        <pt x="187" y="73" on="0"/>
        <pt x="233" y="52" on="0"/>
        <pt x="263" y="52" on="1"/>
        <pt x="292" y="52" on="0"/>
        <pt x="345" y="73" on="0"/>
        <pt x="387" y="110" on="0"/>
        <pt x="414" y="159" on="0"/>
      </contour>
    </TTGlyph>
    <TTGlyph name="three" xMin="32" yMin="-8" xMax="475" yMax="650">
      <contour>
        <pt x="163" y="336" on="1"/>
        <pt x="359" y="588" on="1"/>
        <pt x="199" y="588" on="1"/>
        <pt x="192" y="535" on="1"/>
        <pt x="133" y="535" on="1"/>
        <pt x="149" y="650" on="1"/>
        <pt x="475" y="650" on="1"/>
        <pt x="281" y="408" on="1"/>
        <pt x="316" y="400" on="0"/>
        <pt x="374" y="364" on="0"/>
        <pt x="412" y="311" on="0"/>
        <pt x="429" y="244" on="0"/>
        <pt x="424" y="205" on="1"/>
        <pt x="418" y="161" on="0"/>
        <pt x="372" y="84" on="0"/>
        <pt x="306" y="26" on="0"/>
        <pt x="223" y="-8" on="0"/>
        <pt x="179" y="-8" on="1"/>
        <pt x="132" y="-8" on="0"/>
        <pt x="57" y="29" on="0"/>
        <pt x="32" y="61" on="1"/>
        <pt x="84" y="105" on="1"/>
        <pt x="101" y="82" on="0"/>
        <pt x="153" y="53" on="0"/>
        <pt x="187" y="53" on="1"/>
        <pt x="218" y="53" on="0"/>
        <pt x="277" y="77" on="0"/>
        <pt x="324" y="119" on="0"/>
        <pt x="356" y="174" on="0"/>
        <pt x="361" y="205" on="1"/>
        <pt x="365" y="236" on="0"/>
        <pt x="349" y="291" on="0"/>
        <pt x="313" y="331" on="0"/>
        <pt x="260" y="355" on="0"/>
        <pt x="229" y="355" on="1"/>
        <pt x="195" y="355" on="0"/>
      </contour>
    </TTGlyph>
    <TTGlyph name="threequarters" xMin="115" yMin="-19" xMax="1035" yMax="736">
      <contour>
        <pt x="216" y="465" on="1"/>
        <pt x="367" y="660" on="1"/>
        <pt x="244" y="660" on="1"/>
        <pt x="238" y="619" on="1"/>
        <pt x="193" y="619" on="1"/>
        <pt x="205" y="707" on="1"/>
        <pt x="457" y="707" on="1"/>
        <pt x="307" y="520" on="1"/>
        <pt x="334" y="514" on="0"/>
        <pt x="379" y="486" on="0"/>
        <pt x="408" y="445" on="0"/>
        <pt x="421" y="394" on="0"/>
        <pt x="417" y="363" on="1"/>
        <pt x="413" y="329" on="0"/>
        <pt x="377" y="270" on="0"/>
        <pt x="326" y="225" on="0"/>
        <pt x="262" y="199" on="0"/>
        <pt x="228" y="199" on="1"/>
        <pt x="192" y="199" on="0"/>
        <pt x="134" y="227" on="0"/>
        <pt x="115" y="252" on="1"/>
        <pt x="155" y="286" on="1"/>
        <pt x="168" y="268" on="0"/>
        <pt x="208" y="246" on="0"/>
        <pt x="234" y="246" on="1"/>
        <pt x="258" y="246" on="0"/>
        <pt x="304" y="265" on="0"/>
        <pt x="340" y="297" on="0"/>
        <pt x="365" y="340" on="0"/>
        <pt x="369" y="363" on="1"/>
        <pt x="372" y="387" on="0"/>
        <pt x="360" y="430" on="0"/>
        <pt x="332" y="461" on="0"/>
        <pt x="291" y="479" on="0"/>
        <pt x="267" y="479" on="1"/>
        <pt x="241" y="479" on="0"/>
      </contour>
      <contour>
        <pt x="397" y="-19" on="1"/>
        <pt x="494" y="171" on="0"/>
        <pt x="684" y="546" on="0"/>
        <pt x="781" y="736" on="1"/>
        <pt x="844" y="736" on="1"/>
        <pt x="747" y="546" on="0"/>
        <pt x="556" y="171" on="0"/>
        <pt x="459" y="-19" on="1"/>
      </contour>
      <contour>
        <pt x="841" y="44" on="1"/>
        <pt x="897" y="44" on="1"/>
        <pt x="910" y="136" on="1"/>
        <pt x="685" y="136" on="1"/>
        <pt x="1007" y="490" on="1"/>
        <pt x="963" y="182" on="1"/>
        <pt x="1035" y="182" on="1"/>
        <pt x="1029" y="136" on="1"/>
        <pt x="957" y="136" on="1"/>
        <pt x="944" y="44" on="1"/>
        <pt x="1005" y="44" on="1"/>
        <pt x="999" y="0" on="1"/>
        <pt x="834" y="0" on="1"/>
      </contour>
      <contour>
        <pt x="941" y="353" on="1"/>
        <pt x="785" y="182" on="1"/>
        <pt x="916" y="182" on="1"/>
      </contour>
    </TTGlyph>
</ttFont>
